<?xml version="1.0" encoding="UTF-8"?>
<svg width="279px" height="181px" viewBox="0 0 279 181" version="1.1" xmlns="http://www.w3.org/2000/svg" xmlns:xlink="http://www.w3.org/1999/xlink">
    <title>lock-shutter-photography-black</title>
    <g id="Page-1" stroke="none" stroke-width="1" fill="none" fill-rule="evenodd">
        <g id="lock-shutter-photography-black" fill="#000000" fill-rule="nonzero">
            <g id="Group" transform="translate(118.729000, 74.241866) scale(-1, 1) rotate(-180.000000) translate(-118.729000, -74.241866) translate(43.000000, 0.000000)">
                <path d="M39.8613254,148.322785 C39.6500824,148.26243 39.3483066,147.930477 39.1974188,147.628701 C38.9258206,147.14586 39.0163533,147.115682 40.1932788,147.417458 C41.7323351,147.779589 41.883223,147.870122 41.3098491,148.232252 C40.8270079,148.534028 40.4648769,148.564206 39.8613254,148.322785 Z" id="Path"></path>
                <path d="M67.2625643,147.960654 C67.2625643,147.477813 68.1678916,146.904439 68.4998449,147.236392 C68.6809103,147.417458 68.5300225,147.628701 68.0170037,147.870122 C67.5945176,148.051187 67.2625643,148.111542 67.2625643,147.960654 Z" id="Path"></path>
                <path d="M30.71752,142.890822 C27.0358557,139.118625 26.2210612,137.971877 27.2772763,137.971877 C28.152426,137.971877 29.4802393,138.847026 29.6914824,139.541111 C29.8121927,139.933419 30.8382303,141.080167 31.9548006,142.106205 C33.131726,143.192597 34.0672309,144.309168 34.127586,144.761831 C34.3991842,146.15 33.3731466,145.606803 30.71752,142.890822 Z" id="Path"></path>
                <path d="M66.3874146,142.528691 C65.6631528,142.076027 66.357237,141.593186 67.7152279,141.593186 C69.2844619,141.593186 69.7371255,142.076027 68.6205552,142.498513 C67.6548728,142.860644 66.9306109,142.890822 66.3874146,142.528691 Z" id="Path"></path>
                <path d="M74.8069582,141.894962 C74.8069582,141.110345 75.9537061,140.476615 76.1951267,141.140522 C76.4063698,141.683718 75.8329958,142.498513 75.2294443,142.498513 C74.9880237,142.498513 74.8069582,142.226915 74.8069582,141.894962 Z" id="Path"></path>
                <path d="M40.3441666,141.563008 C38.895643,140.808569 38.7749327,139.933419 40.1329236,140.205017 C40.6459424,140.29555 41.2796715,140.386083 41.4909145,140.386083 C41.9435782,140.386083 42.094466,141.744074 41.7021576,141.985494 C41.5512697,142.076027 40.9477182,141.864784 40.3441666,141.563008 Z" id="Path"></path>
                <path d="M69.918191,141.472475 C68.5903776,140.265372 68.9223309,139.510933 70.2803219,140.627503 C70.6424528,140.929279 70.914051,141.41212 70.8536958,141.713896 C70.7329855,142.196737 70.6424528,142.16656 69.918191,141.472475 Z" id="Path"></path>
                <path d="M77.3720522,141.593186 C77.4625849,141.442298 77.6738279,141.29141 77.8548934,141.29141 C78.0057813,141.29141 78.1264916,141.442298 78.1264916,141.593186 C78.1264916,141.774251 77.9152485,141.894962 77.6436504,141.894962 C77.4022298,141.894962 77.2815195,141.774251 77.3720522,141.593186 Z" id="Path"></path>
                <path d="M85.5199977,141.29141 C84.9768013,141.080167 83.6188104,139.812709 83.8904086,139.752354 C86.0028389,139.480755 86.5762128,139.510933 86.847811,140.054129 C87.2702971,140.808569 86.3951474,141.623363 85.5199977,141.29141 Z" id="Path"></path>
                <path d="M60.5631424,140.386083 C59.9897685,139.360045 59.9897685,139.360045 61.0761612,139.842886 C61.4986473,140.023952 61.8004231,140.386083 61.7702455,140.627503 C61.6193576,141.442298 61.1063388,141.321588 60.5631424,140.386083 Z" id="Path"></path>
                <path d="M42.3962418,140.205017 C42.3057091,139.933419 42.2151763,139.390223 42.2151763,138.997914 C42.2151763,138.334008 42.1548212,138.30383 41.5814473,138.605606 C40.9778957,138.907382 40.9477182,138.877204 41.1589612,137.911522 C41.3702042,136.885484 41.9134006,136.040512 41.9134006,136.704418 C41.9134006,136.976017 42.1548212,136.915662 42.6376624,136.553531 C43.3317467,136.070689 43.3317467,135.980157 42.9092606,135.648203 C42.6376624,135.43696 41.8228679,135.255895 41.098606,135.255895 C39.8009703,135.255895 39.8009703,135.255895 39.8009703,134.19968 C39.8009703,133.20382 39.7707927,133.143465 39.1672412,133.475418 C38.8051103,133.656483 38.4429794,134.048792 38.3826242,134.350568 C38.1713812,135.135185 37.6583624,135.255895 36.6323248,134.803231 C36.0287733,134.531633 35.908063,134.380745 36.2701939,134.380745 C37.0246333,134.350568 38.7749327,132.570091 39.0163533,131.574231 C39.2879515,130.367128 39.8009703,130.548193 39.5897272,131.755296 L39.4388394,132.781334 L40.7364751,132.509735 C42.1849988,132.177782 42.5773073,131.936362 41.9737557,131.725118 C41.7926903,131.634586 41.67198,131.45352 41.7926903,131.302632 C41.883223,131.151745 42.3358866,131.242277 42.8489054,131.483698 C43.874943,132.026894 43.9051206,131.966539 43.1205036,130.668903 C42.456597,129.552333 42.3057091,128.888426 42.879083,129.4618 C43.090326,129.673043 43.5128121,129.823931 43.8145879,129.823931 C44.2672515,129.823931 44.3577842,129.974819 44.2068963,130.578371 C44.086186,131.091389 44.2068963,131.513875 44.6293824,131.936362 C45.3536442,132.660623 45.3838218,132.751156 44.7199151,132.902044 C44.3879618,132.992577 44.8104479,133.233997 45.6855976,133.475418 C47.1642988,133.928082 47.1944764,133.958259 47.1039436,135.014474 C47.0435885,136.040512 47.1039436,136.161222 48.6731776,137.066549 C50.7252527,138.213297 50.8157855,138.364185 50.0613461,139.028092 C49.5483273,139.480755 49.3370842,139.510933 48.6731776,139.239335 C47.64714,138.756494 46.2891491,138.786671 45.866663,139.29969 C45.6252424,139.601466 45.1725788,139.691998 44.448317,139.571288 C43.5429897,139.4204 43.4222794,139.480755 43.4222794,140.054129 C43.4222794,140.778391 42.66784,140.899102 42.3962418,140.205017 Z M45.5347097,134.350568 C45.5347097,134.19968 45.4139994,134.048792 45.2329339,134.048792 C45.082046,134.048792 44.9311582,134.19968 44.9311582,134.350568 C44.9311582,134.531633 45.082046,134.652343 45.2329339,134.652343 C45.4139994,134.652343 45.5347097,134.531633 45.5347097,134.350568 Z" id="Shape"></path>
                <path d="M82.0495764,140.17484 C82.0495764,139.209157 82.3513522,138.575428 82.8341934,138.575428 C83.4075673,138.575428 83.3773898,138.847026 82.6531279,139.933419 C82.1099316,140.748214 82.0495764,140.778391 82.0495764,140.17484 Z" id="Path"></path>
                <path d="M88.3868674,140.386083 C88.3868674,140.235195 88.5981104,140.084307 88.8697086,140.084307 C89.1111292,140.084307 89.2318395,140.235195 89.1413068,140.386083 C89.050774,140.567148 88.839531,140.687858 88.6584655,140.687858 C88.5075777,140.687858 88.3868674,140.567148 88.3868674,140.386083 Z" id="Path"></path>
                <path d="M73.6903879,138.726316 L72.8454158,138.002054 L73.9921637,137.971877 C74.9880237,137.971877 75.108734,138.062409 75.108734,138.726316 C75.108734,139.661821 74.7767807,139.691998 73.6903879,138.726316 Z" id="Path"></path>
                <path d="M79.4844825,138.122765 C78.4886225,137.30797 78.8205758,137.18726 80.5708752,137.730456 C81.5063801,138.002054 81.6874455,138.152942 81.4158473,138.484895 C80.9330061,139.058269 80.5105201,138.967737 79.4844825,138.122765 Z" id="Path"></path>
                <path d="M70.2803219,138.002054 C70.0992564,137.639923 69.0732188,136.976017 67.9868261,136.462998 C66.2667043,135.708558 66.0252837,135.497315 66.2063491,134.954119 C66.3270594,134.591988 66.2667043,134.169502 66.1158164,133.958259 C65.9649285,133.747016 65.6027976,132.962399 65.3010219,132.177782 C64.8181806,130.849969 64.7276479,130.789614 64.0637412,131.091389 C63.2187691,131.483698 63.0678812,132.841689 63.7921431,133.44524 C64.2146291,133.807371 64.1844515,133.928082 63.6110776,134.531633 L62.9773485,135.19554 L63.6110776,135.406783 C63.9732085,135.497315 64.2448067,135.738736 64.2448067,135.889624 C64.2448067,136.281932 63.5205449,136.221577 63.1282364,135.829269 C62.8566382,135.557671 62.5548625,135.648203 61.9513109,136.131045 C60.8649182,136.976017 60.3217218,136.945839 60.3217218,136.010334 C60.3217218,135.165362 60.4122546,135.135185 61.2572267,135.557671 C61.7098903,135.799091 61.8306006,135.768914 61.8306006,135.467138 C61.8306006,134.803231 60.2010115,134.229857 59.4767497,134.622166 C59.1146188,134.803231 58.2696467,134.863586 57.4850297,134.773054 C56.2779267,134.591988 56.1572164,134.501455 56.398637,134.018614 C56.7909455,133.32453 56.3684594,133.052932 54.61816,132.962399 C51.841823,132.781334 50.9364958,132.841689 50.2725891,133.20382 C49.8199255,133.44524 49.6690376,133.354708 49.5483273,132.871866 C49.3672618,132.147605 49.3370842,132.117427 48.4921121,132.570091 C47.9489158,132.871866 47.7678503,132.781334 47.1341212,131.966539 C46.65128,131.362988 46.1382612,131.031034 45.6252424,131.031034 C44.870803,131.031034 44.870803,131.031034 45.3838218,130.246417 C45.8063079,129.612688 45.8364854,129.401445 45.5045321,129.190202 C45.1725788,129.009137 45.2027564,128.737538 45.6252424,127.832211 C45.9270182,127.22866 46.1080836,126.655286 46.0175509,126.564753 C45.7459527,126.323332 44.3879618,127.34937 43.8145879,128.194342 C43.3921018,128.858249 43.2713915,128.888426 43.0601485,128.496118 C42.9092606,128.22452 42.9092606,127.802034 43.090326,127.439903 C43.3619242,126.957061 43.2713915,126.775996 42.4264194,126.293155 C41.9134006,125.961201 41.0080733,125.538715 40.4346994,125.35765 C39.5595497,125.055874 39.3483066,125.055874 39.0163533,125.538715 C38.6542224,126.021557 38.5636897,125.991379 37.8092503,125.055874 C37.1453436,124.210902 36.8737454,124.090192 36.1796612,124.24108 C35.2139788,124.452323 34.6707824,123.818594 34.6707824,122.49078 C34.6707824,121.917406 34.8820254,121.706163 35.6666424,121.464743 L36.6323248,121.193145 L35.8175303,120.649948 C34.8518478,120.016219 30.5666321,118.869471 30.144146,119.110892 C29.9630806,119.231602 29.8423703,119.563555 29.8423703,119.925686 C29.8423703,120.37835 29.9932581,120.49906 30.4459218,120.37835 C30.928763,120.25764 31.0494733,120.37835 31.0494733,121.042257 C31.0494733,122.128649 31.8340903,123.215042 32.2263987,122.611491 C32.6187072,122.038117 33.1619036,122.49078 33.1619036,123.396108 C33.1619036,124.180725 32.9506606,124.210902 31.5926697,123.637528 C31.140006,123.456463 31.0494733,123.577173 31.0494733,124.452323 C31.0494733,125.810314 31.2003612,125.931024 32.4074642,125.418005 C33.7956327,124.844631 34.1577636,124.874809 33.916343,125.568893 C33.7051,126.262977 35.3045115,127.711501 36.3003715,127.711501 C37.2660539,127.711501 37.8092503,128.315052 37.2056988,128.737538 C36.8435678,129.009137 36.8133903,129.34109 37.0246333,130.306772 C37.2962315,131.513875 37.2660539,131.544053 36.1494836,132.177782 C34.7311375,132.992577 33.7051,132.992577 31.9849781,132.238137 C31.2607163,131.906184 30.4459218,131.634586 30.1743236,131.604408 C29.8423703,131.604408 29.8121927,131.544053 30.0837909,131.423343 C30.3855666,131.302632 30.355389,131.151745 29.9630806,130.699081 C29.2689963,129.914464 28.9973981,129.974819 29.1784636,130.880146 C29.359529,131.815651 28.7861551,131.876006 28.3033139,130.970679 C27.6997624,129.793754 26.7944351,128.948781 25.8891078,128.767716 C25.2252012,128.616828 25.0139581,128.405585 25.0139581,127.862389 C25.0139581,126.383688 24.7725375,126.202622 22.6299296,126.202622 C21.3624715,126.172445 20.4269666,126.021557 20.0648357,125.749958 C19.3103963,125.176585 18.978443,125.176585 18.978443,125.749958 C18.978443,126.504398 18.4654242,126.262977 17.8015175,125.146407 C17.409209,124.4825 16.9565454,124.090192 16.5642369,124.090192 C16.2322836,124.090192 15.9606854,123.909126 15.9606854,123.728061 C15.9606854,123.094332 17.5299193,123.184865 18.4352466,123.848771 C18.9180878,124.180725 20.185546,124.573033 21.3021163,124.723921 C22.9920605,124.965341 23.3541915,124.935164 23.5654345,124.542855 C23.7163224,124.301435 24.0482757,124.090192 24.3500515,124.090192 C24.6820048,124.090192 24.4104066,123.667706 23.5050793,122.732201 C22.7808175,122.007939 22.0867333,121.464743 21.966023,121.555275 C21.5435369,121.796696 21.3322939,121.042257 21.6944248,120.619771 C22.1470884,120.076574 21.8754902,119.26178 21.2719387,119.26178 C21.0305181,119.26178 20.7890975,119.5032 20.6985648,119.804976 C20.5778545,120.25764 20.5476769,120.25764 20.3364339,119.744621 C20.1553684,119.352312 20.2157236,119.110892 20.4269666,119.020359 C20.970163,118.839294 20.5476769,118.356452 19.8535927,118.356452 C19.3707514,118.356452 19.2802187,118.175387 19.3405739,117.330415 C19.3707514,116.545798 19.1595084,116.032779 18.4352466,115.217984 C17.8920502,114.614433 17.4695642,113.980704 17.4695642,113.829816 C17.4695642,113.678928 17.1376108,113.467685 16.7151248,113.346975 C15.9606854,113.165909 15.4476666,112.109694 15.628732,111.053479 C15.6589096,110.751703 15.5381993,110.510283 15.3269563,110.510283 C15.1157133,110.510283 15.0553581,110.208507 15.1157133,109.755843 C15.2364236,109.242824 15.1157133,108.880694 14.7837599,108.669451 C14.3914514,108.42803 14.421629,108.397852 15.0251805,108.458208 C15.5381993,108.518563 15.8399751,108.820338 16.0813957,109.5446 C16.4737042,110.721526 16.986723,111.113834 18.1636484,111.113834 C18.7671999,111.113834 18.978443,111.264722 18.978443,111.717386 C18.978443,112.049339 19.1595084,112.320937 19.3707514,112.320937 C19.6121721,112.320937 20.3364339,112.713246 21.0003405,113.196087 C22.2979763,114.131592 22.5997521,114.131592 22.5997521,113.105554 C22.5695745,112.260582 21.5435369,110.902591 21.2719387,111.385432 C21.1512284,111.566498 20.6985648,111.717386 20.2459011,111.717386 L19.4311066,111.717386 L20.0950133,111.174189 L20.7890975,110.661171 L19.974303,110.600815 C19.2500411,110.570638 18.3748914,109.846376 18.3748914,109.273002 C18.3748914,109.182469 18.9482654,109.001404 19.6725272,108.941049 C20.396789,108.850516 21.3624715,108.54874 21.7849575,108.246964 C22.5695745,107.733946 22.5997521,107.673591 22.1169108,107.160572 C21.7849575,106.798441 21.6944248,106.345777 21.8151351,105.862936 C21.9962005,105.138674 21.9358454,105.138674 20.9399854,105.289562 C20.2459011,105.410272 19.8837702,105.349917 19.8837702,105.108497 C19.8837702,104.927431 20.0950133,104.776543 20.3364339,104.776543 C20.7287424,104.776543 20.6985648,104.595478 20.185546,103.56944 C19.8535927,102.935711 19.3103963,102.241627 18.978443,102.060561 C18.6464896,101.879496 18.3748914,101.487187 18.3748914,101.155234 C18.3748914,100.823281 18.0127605,100.370617 17.5600969,100.129197 C16.9565454,99.7972432 16.8660127,99.6765329 17.2583211,99.6463554 C17.9222278,99.6463554 17.9222278,99.2540469 17.2281436,98.6203178 C16.6849472,98.1676542 16.624592,98.1676542 16.0813957,98.7712057 C15.5080217,99.4049348 15.5080217,99.4049348 16.3529939,100.129197 C17.2583211,100.913814 17.197966,101.45701 16.2322836,101.45701 C15.8399751,101.45701 15.4476666,101.034524 14.995003,100.099019 C14.632872,99.3445796 14.2405636,98.7410281 14.1198533,98.7410281 C13.9991429,98.7410281 13.6068345,98.2581869 13.2447036,97.7149905 C12.8825726,97.0812614 12.429909,96.7191305 12.218666,96.8096632 C11.9772454,96.900196 11.7056472,96.8096632 11.5849369,96.6285978 C11.434049,96.3871772 11.2529835,96.3871772 10.9512078,96.6587754 C10.7097872,96.8398408 10.2873011,96.9303735 9.95534779,96.8398408 C9.50268415,96.7191305 9.3216187,96.9605511 9.01984294,98.0167663 C8.80859991,98.7410281 8.53700173,99.3445796 8.41629142,99.3445796 C7.96362779,99.3445796 7.20918839,98.1978317 7.20918839,97.4735699 C7.20918839,96.5380651 9.29144112,94.5161675 10.2873011,94.5161675 C10.8908526,94.5161675 10.8908526,94.4859899 10.438189,93.9729711 C10.1364132,93.6711954 9.92517021,93.1883541 9.92517021,92.916756 C9.92517021,92.0717838 8.5671793,92.2830269 7.96362779,93.1883541 L7.450609,93.9729711 L6.90741263,93.0676438 C6.60563687,92.5848026 6.21332839,92.0717838 6.03226293,91.9812511 C5.85119748,91.8605408 5.7003096,91.4078772 5.7003096,90.9552135 C5.67013202,90.5025499 5.48906657,89.8084657 5.24764596,89.3859796 C5.00622535,88.9634935 4.8251599,88.0279887 4.8251599,87.2735493 C4.8251599,86.2173341 4.88551505,86.0362687 5.12693566,86.4587547 C5.36835626,86.8812408 5.54942172,86.9114184 6.03226293,86.6398202 C6.8168799,86.2173341 7.5713193,86.5191099 7.450609,87.1830166 C7.39025384,87.6055026 7.60149688,87.7563905 8.50682415,87.8167456 C9.14055324,87.8771008 9.62339446,87.7865681 9.62339446,87.6055026 C9.62339446,87.4244372 9.3216187,87.2433717 8.95948779,87.2433717 C8.38611385,87.2131941 8.446469,87.152839 9.17073082,86.9717735 C9.68374961,86.8510632 10.6192545,86.7001753 11.2831611,86.6699978 C12.2790211,86.579465 12.3393763,86.5492875 11.645292,86.4587547 C11.1624508,86.368222 10.7399648,86.0966238 10.649432,85.8250256 C10.5588993,85.5534275 10.3476563,85.0705862 10.1967684,84.7386329 C9.95534779,84.3161469 10.0157029,84.0445487 10.4985442,83.5315299 C10.8606751,83.169399 11.1322732,82.5356699 11.1322732,82.173539 C11.1322732,81.5699875 11.0719181,81.5096323 10.649432,81.8717632 C10.4080114,82.0830062 10.2571235,82.5054923 10.3476563,82.8374456 C10.4683666,83.380642 10.3476563,83.4108196 8.98966536,83.2901093 C7.5713193,83.1392214 7.450609,83.1995765 7.17901081,83.9238384 C6.78670233,84.8895208 6.39439384,85.161119 5.21746839,85.161119 C4.16125323,85.161119 3.76894475,84.7989881 3.46716899,83.5315299 L3.25592596,82.6563802 L4.31214111,83.4711747 L5.36835626,84.2557917 L5.88137505,83.2901093 C6.15297324,82.7469129 6.51510415,82.2037165 6.66599202,82.1131838 C6.84705748,81.9924735 6.96776778,81.4492771 6.99794536,80.8457256 C7.02812293,80.0912862 7.17901081,79.7291553 7.5713193,79.6386226 C8.23522597,79.4575571 8.26540354,78.7332953 7.66185203,78.2202765 C7.05830051,77.7072577 7.08847809,77.405482 7.93345021,75.7758929 C8.29558112,74.9912759 8.71806718,74.0557711 8.80859991,73.6936402 C8.92931021,73.2409765 9.14055324,73.0599111 9.41215142,73.1806214 C10.0458805,73.422042 9.86481506,72.637425 9.11037567,71.8226305 C8.77842233,71.430322 8.38611385,70.8267705 8.26540354,70.4646395 C8.11451566,69.8912656 8.20504839,69.7705553 8.6878896,69.7705553 C9.5630393,69.7705553 9.50268415,68.7445177 8.59735688,68.3220317 C7.99380536,68.0504335 7.84291748,68.1107886 7.51096415,68.7143402 C7.29972112,69.1066486 7.20918839,69.649845 7.29972112,69.8912656 C7.450609,70.2533965 7.29972112,70.3137517 6.63581445,70.1930414 C6.15297324,70.0723311 5.67013202,70.1628638 5.57959929,70.3439292 C4.85533748,71.4906771 3.88965505,69.6800226 4.55356172,68.4729195 C4.85533748,67.8995456 4.9458702,67.869368 5.03640293,68.3522092 C5.18729081,69.0161159 5.48906657,69.0161159 6.12279566,68.2918541 C6.42457142,67.9599008 7.02812293,67.5675923 7.51096415,67.3563492 C8.20504839,67.0545735 8.50682415,67.0847511 9.14055324,67.5072371 C9.89499264,68.0202559 9.98552537,68.0202559 10.5287217,67.5072371 C11.1322732,66.9640408 11.1322732,66.9640408 10.4985442,66.2699565 L9.83463749,65.5758723 L10.7399648,64.5498347 C12.3091987,62.7391801 12.3091987,60.8681704 10.7097872,58.3634316 C10.226946,57.5788147 9.68374961,57.0959735 9.3216187,57.0959735 C8.59735688,57.0959735 7.02812293,55.6776274 6.75652475,54.7723001 C6.48492657,53.7764401 7.54114172,52.8711128 9.01984294,52.8711128 C10.0458805,52.8711128 10.2873011,52.7504025 10.5287217,52.0864959 C10.9512078,51.0302807 10.9813854,51.0604583 9.65357203,51.0604583 C8.59735688,51.0604583 8.446469,50.9699256 8.14469324,50.1249534 C7.72220718,48.8574953 7.6920296,48.9178504 8.5671793,49.1290934 C9.01984294,49.2498037 9.53286173,49.159271 9.77428233,48.948028 C10.1364132,48.6462522 10.3174787,48.6462522 10.6796096,48.948028 C10.9512078,49.159271 11.1926284,49.2799813 11.2529835,49.2196262 C11.6151145,48.7971401 12.2790211,47.1977286 12.1281332,47.0468407 C12.0376005,46.956308 12.2488436,46.5036443 12.6109745,46.0509807 L13.2748811,45.2060086 L12.4600866,44.5722795 C11.7056472,43.968728 11.6754696,43.9083728 12.1281332,42.8219801 C12.5807969,41.7355874 12.6109745,41.7355874 13.5766569,42.0675407 C14.3914514,42.3391389 14.6026945,42.3391389 14.7234048,41.977008 C14.7837599,41.7355874 15.3269563,41.1320358 15.9003302,40.5888395 L16.9263678,39.6533346 L16.1417508,39.1403158 C15.3269563,38.5971195 15.1157133,37.9633904 15.6589096,37.6314371 C16.1417508,37.3296613 17.1677884,37.7823249 17.1677884,38.2651661 C17.1677884,38.989428 17.7109848,38.7480074 18.5559569,37.6314371 C19.3707514,36.5752219 19.974303,36.3639789 20.7890975,36.8769977 C21.1512284,37.0882407 21.1210508,37.2693061 20.5174993,37.9030352 C19.974303,38.4764092 19.8535927,38.8687177 19.974303,39.6533346 C20.0648357,40.196531 19.974303,41.2225686 19.7932375,41.9166528 C19.5216393,42.972868 19.5518169,43.395354 19.9441254,44.2403262 C20.396789,45.175831 20.396789,45.3267189 19.974303,45.6586722 C19.7328824,45.9000928 18.9180878,46.0811583 18.193826,46.0811583 C16.8660127,46.0811583 16.8660127,46.0811583 16.8660127,47.1977286 C16.8660127,47.8012801 17.0169005,48.4048316 17.1677884,48.4953643 C17.3488539,48.5858971 17.4695642,49.0687383 17.4695642,49.5817571 C17.4695642,50.3060189 17.5902745,50.4569068 18.2240036,50.4569068 C18.7370224,50.4569068 19.189686,50.155131 19.6423496,49.4006916 C20.4269666,48.1935886 20.6382096,48.1332334 21.0908733,48.9178504 C21.7547799,50.1853086 20.5174993,51.0604583 18.0731157,51.0604583 C16.7151248,51.0604583 16.5340593,51.150991 16.1115733,51.9657856 C15.8399751,52.4788044 15.5381993,52.8711128 15.417489,52.8711128 C15.2666011,52.8711128 14.9044702,53.0521783 14.5725169,53.2935989 C14.0293205,53.716085 14.0293205,53.7462625 14.8441151,54.6214122 C15.417489,55.2249638 15.9003302,55.4663844 16.2926387,55.3758516 C16.7151248,55.2551413 16.8660127,55.3758516 16.8660127,55.8285153 C16.8660127,56.9752632 16.202106,58.0013007 15.4778442,58.0013007 C14.632872,58.0013007 13.3050587,59.691245 13.7878999,60.1740862 C13.9991429,60.3853292 13.9086102,60.6569274 13.5163017,61.0492359 C12.5807969,61.9847407 12.8825726,65.4249844 13.9689654,65.8474704 C14.3310963,65.9983583 14.4819842,66.1190686 14.3009187,66.1190686 C14.1500308,66.1492462 14.3310963,66.3604892 14.6932272,66.6320874 C15.6890872,67.3261717 15.5080217,68.0504335 14.1802084,68.8048729 C13.2748811,69.3178917 13.0334605,69.649845 13.0032829,70.2835741 C13.0032829,70.7664153 12.9127502,71.5208547 12.7920399,72.0036959 C12.5506193,72.8788456 12.5807969,72.8788456 13.5766569,72.6676026 C14.1198533,72.5770699 14.632872,72.3658268 14.7535823,72.2149389 C14.8441151,72.0942286 15.1760684,71.8829856 15.5080217,71.7622753 C16.0813957,71.6113874 16.1115733,71.7320977 16.1719284,73.3918644 C16.202106,74.5386123 16.0512181,75.2930517 15.8097975,75.5042947 C15.4778442,75.7758929 15.5683769,76.1380238 16.3529939,77.3451268 C17.620452,79.397202 17.7713399,81.6303426 16.7151248,82.7469129 C16.0813957,83.4108196 16.0210405,83.6522402 16.2624611,84.6782778 C16.413349,85.3421844 16.8660127,86.2173341 17.3186763,86.6398202 C18.0429381,87.364082 18.1334708,87.3942596 18.405069,86.9114184 C18.8275551,86.156979 19.400929,86.2173341 18.978443,86.9415959 C18.7370224,87.4546147 18.8275551,87.6658578 19.7328824,88.3297644 C20.6080321,89.0238487 20.7287424,89.2652693 20.5778545,90.0197087 C20.3666114,91.1061014 21.0003405,91.4380547 22.3281539,90.8948584 C23.3240139,90.4723723 23.7766775,90.6534378 23.2636587,91.2871669 C22.9920605,91.6191202 23.0825933,91.8605408 23.6559672,92.4037372 C24.0784533,92.7960457 24.4104066,93.339242 24.4104066,93.6410178 C24.4104066,94.6972329 24.7725375,95.119719 25.6476872,95.119719 C26.6435472,95.119719 26.7039024,95.4214948 26.1003509,97.1717942 C25.7080424,98.2581869 25.7080424,98.4392523 26.1003509,98.7712057 C26.4926593,99.103159 26.4323042,99.2238693 25.5571545,99.6765329 C24.2293412,100.400795 24.1086309,100.370617 24.1086309,99.4351123 C24.1086309,98.9522711 23.8370327,98.1978317 23.5050793,97.6848129 C22.961883,96.8700184 22.961883,96.7493081 23.4145466,96.2664669 C23.8672102,95.7534481 23.8672102,95.7232705 23.2938363,95.7232705 C22.9317054,95.7232705 22.4790418,95.330962 22.1169108,94.6670554 C21.6038921,93.7013729 21.5133593,93.6410178 21.181406,94.123859 C20.3666114,95.2102517 20.8796302,96.5984202 22.1169108,96.6587754 C22.7204624,96.6587754 22.7204624,96.6889529 22.0867333,96.9303735 C21.5435369,97.1717942 21.392649,97.4433923 21.392649,98.3788972 C21.392649,99.4049348 21.6038921,99.7670657 22.9015278,101.064701 C24.0784533,102.241627 24.3500515,102.694291 24.1991636,103.237487 C24.0784533,103.780683 24.1991636,104.082459 24.7423599,104.504945 C25.6778648,105.229207 25.9796406,105.229207 26.945323,104.44459 C27.5790521,103.931571 27.6695848,103.720328 27.4281642,103.237487 C27.2470987,102.935711 26.945323,102.664113 26.7340799,102.664113 C26.4926593,102.664113 26.3417715,102.241627 26.3115939,101.607898 C26.2814163,101.034524 26.371949,100.551683 26.4926593,100.551683 C26.6133696,100.551683 27.156566,101.004346 27.6997624,101.57772 C28.2429587,102.151094 28.9973981,102.694291 29.3897066,102.784823 C29.932903,102.935711 30.0536133,103.146954 30.0536133,104.263524 C30.0536133,105.410272 30.2045012,105.742226 31.2607163,106.798441 C32.3772866,107.915011 32.5281745,108.005544 32.9808381,107.55288 C33.4033242,107.100217 33.4938569,107.130394 34.0672309,107.733946 C34.4293618,108.096077 34.8820254,108.397852 35.123446,108.397852 C35.3950442,108.397852 35.5761097,108.699628 35.5761097,109.152292 C35.5761097,109.604955 35.7873527,110.329217 36.0287733,110.812058 C36.6021472,111.928629 36.2400163,111.988984 35.2743339,110.962946 L34.5500721,110.178329 L34.3086515,110.842236 C33.9766981,111.747563 34.7914927,113.015021 35.5459321,112.773601 C35.8477078,112.683068 36.2701939,112.803778 36.4814369,113.105554 C36.8435678,113.52804 36.9341006,113.497863 37.3867642,112.894311 L37.899783,112.230404 L38.5636897,112.894311 C39.4991945,113.829816 39.3784842,114.433368 38.2920915,114.433368 C37.8092503,114.433368 37.3867642,114.493723 37.3867642,114.554078 C37.3867642,114.644611 37.7187175,115.338695 38.1412036,116.123312 C38.5636897,116.907929 38.895643,117.722723 38.895643,117.903789 C38.895643,118.115032 39.106886,118.356452 39.3483066,118.477163 C40.1329236,118.778938 39.8311479,119.442845 38.6240448,120.106752 C37.9903157,120.468883 37.2962315,120.981901 37.0548109,121.2535 C36.8435678,121.525098 36.3607266,121.857051 35.9684181,122.007939 C35.0630909,122.339892 35.0932685,122.822734 36.0287733,123.24522 C36.9944557,123.697883 38.1412036,122.943444 38.3826242,121.706163 C38.6542224,120.438705 39.68026,120.227462 41.7625127,121.012079 C43.3619242,121.645808 44.086186,121.434565 42.7885503,120.770658 C42.3660642,120.529238 42.2453539,120.25764 42.3660642,119.925686 C42.4867745,119.654088 42.6074848,119.26178 42.6074848,119.050537 C42.6074848,118.839294 42.7281951,118.748761 42.8489054,118.839294 C42.9696157,118.899649 43.2110363,118.748761 43.3921018,118.446985 C43.6637,117.933966 43.6938776,117.933966 44.2672515,118.446985 C44.5992048,118.748761 45.0518685,118.960004 45.2932891,118.899649 C45.5347097,118.839294 46.1684388,119.322135 46.7116351,119.955864 C47.4962521,120.831014 47.64714,121.162967 47.3755418,121.49492 C46.862523,122.128649 47.435897,122.37007 48.4015794,121.917406 C49.0956636,121.615631 49.2465515,121.615631 49.5181497,122.098472 C49.7293927,122.49078 49.9104582,122.551135 50.2424115,122.24936 C50.7252527,121.857051 51.7211127,122.128649 51.419337,122.551135 C51.3288042,122.732201 51.5098697,123.003799 51.841823,123.184865 C52.2341315,123.36593 52.3850194,123.667706 52.2643091,123.969481 C52.1134212,124.391968 52.1737764,124.422145 52.7471503,124.090192 C53.1394588,123.909126 53.6524776,123.818594 53.8938982,123.909126 C54.1654964,124.029837 54.61816,123.909126 54.8897582,123.637528 C55.3424218,123.215042 55.5234873,123.215042 56.4589921,123.607351 C57.8773382,124.210902 58.3601794,124.814454 57.7868055,125.267117 C57.5152073,125.47836 57.0625437,125.568893 56.6702352,125.448183 C56.2175715,125.297295 56.0666836,125.35765 56.1572164,125.629248 C56.2477491,125.870669 57.0021885,126.172445 57.9376933,126.293155 C60.6838527,126.715641 60.8649182,126.775996 61.9211334,127.802034 C62.7359279,128.556473 63.0980588,128.707361 63.4601897,128.46594 C63.8223206,128.254697 64.0335637,128.34523 64.3956946,128.858249 C64.9992461,129.673043 65.4519097,129.733398 65.4519097,128.948781 C65.4519097,128.556473 65.7235079,128.315052 66.4477697,128.194342 C68.0170037,127.892566 68.8619758,127.168305 68.7110879,126.202622 C68.6205552,125.538715 68.7110879,125.327472 69.1939291,125.206762 C69.55606,125.146407 70.0690788,124.965341 70.3708546,124.844631 C70.8536958,124.633388 70.914051,124.784276 70.8235182,126.2328 L70.7329855,127.862389 L73.9619861,127.862389 C75.7122855,127.862389 77.2815195,127.952921 77.4022298,128.103809 C77.7945382,128.496118 80.088034,128.315052 80.7821182,127.832211 C81.3253146,127.47008 81.3856698,127.258837 81.1442492,126.775996 C80.9028286,126.323332 80.9330061,126.202622 81.2347819,126.202622 C81.4762025,126.202622 81.7478007,126.47422 81.8383334,126.836351 C81.9892213,127.379548 82.1401092,127.439903 83.3773898,127.258837 C84.856091,127.017417 85.8217734,127.47008 85.5501752,128.194342 C85.4596425,128.405585 85.851951,128.858249 86.3951474,129.190202 C86.9383437,129.522155 87.5418952,130.155885 87.7229607,130.578371 C88.0247364,131.242277 87.9643813,131.45352 87.1194092,132.419203 C86.1839043,133.475418 86.0933716,133.505595 84.5543152,133.32453 C82.864371,133.143465 78.6093328,133.897904 78.880931,134.32039 C78.9412861,134.471278 78.6998655,134.501455 78.3377346,134.4411 C77.885071,134.350568 77.2513419,134.622166 76.4969025,135.225717 C75.3803322,136.100867 72.5134625,137.368325 71.6081352,137.368325 C71.3667146,137.368325 71.1856491,137.579568 71.2460043,137.851166 C71.3667146,138.605606 70.6726303,138.696138 70.2803219,138.002054 Z M48.9145982,125.538715 C49.6992151,124.995519 50.3631218,124.452323 50.3631218,124.36179 C50.3631218,123.909126 49.3069067,123.788416 49.0051309,124.180725 C48.7335327,124.573033 48.5826448,124.4825 48.1903364,123.758238 C47.5867848,122.702023 46.2891491,122.551135 45.9873733,123.48664 C45.8364854,123.999659 46.9228782,126.504398 47.3151867,126.504398 C47.4057194,126.504398 48.0998036,126.051734 48.9145982,125.538715 Z M29.5405945,121.37421 C29.5405945,121.223322 29.2991739,121.072434 29.0275757,121.072434 C28.5749121,121.072434 28.5447345,121.132789 28.937043,121.37421 C29.5104169,121.736341 29.5405945,121.736341 29.5405945,121.37421 Z M28.2429587,119.38249 C28.4542018,118.839294 27.9110054,118.205565 27.4885193,118.477163 C27.1263884,118.688406 27.367809,119.865331 27.7601175,119.865331 C27.941183,119.865331 28.1222484,119.654088 28.2429587,119.38249 Z M25.0139581,116.304377 C25.0139581,116.002601 24.6820048,115.429228 24.2595187,115.036919 C23.5956121,114.433368 23.5050793,114.40319 23.3240139,114.855854 C23.0825933,115.459405 23.957743,116.847574 24.5612945,116.847574 C24.8027151,116.847574 25.0139581,116.606153 25.0139581,116.304377 Z M18.8577327,113.28662 C18.6163121,112.803778 18.193826,112.260582 17.9524054,112.049339 C17.1677884,111.385432 17.3488539,112.622713 18.1636484,113.437508 C19.0991533,114.342835 19.3707514,114.28248 18.8577327,113.28662 Z M30.3252115,108.458208 C29.6613048,108.30732 29.4198842,108.54874 29.6914824,109.001404 C29.8423703,109.242824 30.0234357,109.212647 30.355389,108.941049 C30.8080527,108.578918 30.7778751,108.54874 30.3252115,108.458208 Z M28.9068654,106.466488 C29.359529,105.923291 29.0879309,105.772403 27.3979866,105.500805 C26.160706,105.289562 26.1003509,105.31974 26.5228369,105.802581 C26.9151454,106.285422 27.8204727,106.828618 28.363669,106.858796 C28.4843793,106.888974 28.7258,106.707908 28.9068654,106.466488 Z M13.6973672,89.9895311 C14.2405636,89.4161572 14.210386,89.3859796 13.6068345,89.3859796 C13.1541708,89.3859796 12.9429278,89.567045 12.9429278,89.9895311 C12.9429278,90.3214844 13.0032829,90.5930826 13.0334605,90.5930826 C13.0938157,90.5930826 13.3955914,90.3214844 13.6973672,89.9895311 Z M11.2831611,89.3859796 C11.0115629,88.9031384 10.6796096,88.4806523 10.5287217,88.4806523 C10.0458805,88.4806523 9.83463749,89.144559 10.226946,89.3859796 C10.438189,89.5066899 10.4985442,89.7782881 10.4080114,89.9593535 C10.2571235,90.1705966 10.4683666,90.2913069 10.9813854,90.2913069 C11.7358248,90.2913069 11.7358248,90.2913069 11.2831611,89.3859796 Z M11.0719181,72.7279577 C11.6151145,72.1847614 11.5245817,71.641565 10.8003199,71.2492565 C9.95534779,70.7965929 9.5630393,71.3699668 10.0458805,72.3658268 C10.438189,73.1806214 10.5588993,73.2409765 11.0719181,72.7279577 Z M13.2447036,43.2142886 C13.2447036,43.0634007 13.1843484,42.9125128 13.1239933,42.9125128 C13.0334605,42.9125128 12.8825726,43.0634007 12.7920399,43.2142886 C12.7015072,43.395354 12.7618623,43.5160643 12.9127502,43.5160643 C13.0938157,43.5160643 13.2447036,43.395354 13.2447036,43.2142886 Z" id="Shape"></path>
                <path d="M32.3169315,137.398503 C31.6228472,137.126905 30.8080527,136.644063 30.5062769,136.372465 C30.0536133,135.889624 30.0536133,135.799091 30.4459218,135.527493 C30.928763,135.225717 31.2607163,135.255895 33.8861654,135.980157 C35.908063,136.523353 36.4814369,136.885484 35.9985957,137.368325 C35.4252218,137.941699 33.6447448,137.941699 32.3169315,137.398503 Z" id="Path"></path>
                <path d="M66.0554612,137.368325 C66.0554612,137.217437 66.2063491,137.066549 66.3874146,137.066549 C66.5383025,137.066549 66.5986576,137.217437 66.5081249,137.368325 C66.4175922,137.549391 66.2667043,137.670101 66.1761715,137.670101 C66.1158164,137.670101 66.0554612,137.549391 66.0554612,137.368325 Z" id="Path"></path>
                <path d="M95.4484201,136.281932 C95.5389528,136.010334 95.6294856,135.738736 95.6294856,135.678381 C95.6294856,135.286072 96.2028595,135.648203 96.3235698,136.161222 C96.4442801,136.613886 96.3235698,136.764774 95.8709062,136.764774 C95.4484201,136.764774 95.3277098,136.613886 95.4484201,136.281932 Z" id="Path"></path>
                <path d="M97.802271,136.100867 C97.8928037,135.889624 98.2549347,135.648203 98.6472431,135.618026 C99.2809722,135.527493 99.3111498,135.557671 98.9791965,135.980157 C98.4963553,136.553531 97.6513831,136.613886 97.802271,136.100867 Z" id="Path"></path>
                <path d="M87.0892316,134.622166 C85.851951,133.958259 85.851951,133.626306 87.0892316,133.294352 C87.5720728,133.20382 88.1756243,132.871866 88.4774001,132.600268 C89.0205964,132.117427 89.0809516,132.147605 89.7750358,132.932222 C90.7105407,134.018614 90.6803631,134.471278 89.7448583,134.893764 C88.7188207,135.376605 88.4472225,135.346428 87.0892316,134.622166 Z" id="Path"></path>
                <path d="M93.5170552,134.652343 C93.5170552,134.018614 93.7584759,133.928082 94.5430928,134.229857 C94.9354013,134.380745 94.9655789,134.501455 94.6939807,134.833409 C94.1809619,135.467138 93.5170552,135.346428 93.5170552,134.652343 Z" id="Path"></path>
                <path d="M97.8626262,134.139325 C97.379785,133.626306 97.379785,133.596128 98.2851122,133.32453 C99.1300843,133.083109 99.1904395,132.992577 99.0395516,132.117427 C98.9188413,131.604408 98.6472431,131.000857 98.4360001,130.759436 C97.8324486,130.155885 98.1644019,130.004997 99.2809722,130.397305 C99.8241686,130.578371 100.699318,130.729258 101.272692,130.729258 C101.846066,130.729258 102.570328,130.880146 102.902281,131.061212 C103.445478,131.33281 103.385123,131.423343 102.117664,132.117427 C101.363225,132.509735 100.518253,132.841689 100.276832,132.841689 C100.035412,132.841689 99.6732807,133.264175 99.5223928,133.747016 C99.1602619,134.773054 98.6170656,134.893764 97.8626262,134.139325 Z" id="Path"></path>
                <path d="M113.192835,133.113287 C112.679816,132.751156 112.227152,132.358848 112.227152,132.238137 C112.227152,131.785474 113.796386,130.970679 114.792246,130.940501 C115.395798,130.910324 115.727751,130.759436 115.637218,130.518015 C115.305265,129.703221 117.659116,126.806174 118.654976,126.806174 C118.866219,126.806174 119.892257,126.383688 120.918294,125.900846 C121.974509,125.387828 123.030724,124.995519 123.241967,124.995519 C123.483388,124.995519 123.664453,125.448183 123.754986,126.172445 C123.845519,127.168305 123.694631,127.500258 122.638416,128.677183 C121.883977,129.552333 120.978649,130.186062 120.22421,130.427483 C119.560303,130.638726 118.443733,131.121567 117.749649,131.513875 C117.055564,131.906184 116.331303,132.238137 116.12006,132.238137 C115.908817,132.238137 115.395798,132.570091 114.943134,132.992577 L114.188695,133.716838 L113.192835,133.113287 Z" id="Path"></path>
                <path d="M94.0602516,133.233997 C93.3963449,133.052932 93.3661674,132.660623 93.9998965,132.419203 C94.7845134,132.117427 95.025934,132.20796 95.025934,132.841689 C95.025934,133.44524 94.9655789,133.475418 94.0602516,133.233997 Z" id="Path"></path>
                <path d="M105.28631,131.996717 C105.28631,131.664763 104.863824,131.242277 104.199917,130.940501 C103.385123,130.548193 103.17388,130.276595 103.324767,129.884286 C103.4153,129.612688 103.596366,129.009137 103.686898,128.526295 C103.807609,127.862389 103.928319,127.771856 104.260272,128.043454 C104.743113,128.435763 105.376843,128.043454 106.855544,126.383688 C107.609983,125.568893 107.760871,125.508538 108.726553,125.810314 C109.692236,126.112089 109.812946,126.081912 110.325965,125.327472 C110.597563,124.904986 110.808806,124.36179 110.778629,124.120369 C110.688096,123.818594 110.989872,123.758238 112.166797,123.939304 L113.675676,124.150547 L114.218872,122.973621 C114.671536,122.098472 115.033667,121.796696 115.788106,121.645808 C116.391658,121.525098 117.146097,121.042257 117.598761,120.468883 L118.413555,119.533378 L119.288705,120.438705 L120.194032,121.37421 L119.499948,123.426285 L118.836041,125.448183 L115.063844,127.862389 C112.981592,129.190202 110.989872,130.548193 110.627741,130.880146 C109.933656,131.513875 107.096964,132.539913 105.980394,132.539913 C105.497553,132.539913 105.28631,132.358848 105.28631,131.996717 Z" id="Path"></path>
                <path d="M95.4182425,131.121567 C95.6898407,130.849969 95.9916165,130.699081 96.1123268,130.789614 C96.4141025,131.091389 95.9312613,131.634586 95.3880649,131.634586 C94.9354013,131.634586 94.9354013,131.604408 95.4182425,131.121567 Z" id="Path"></path>
                <path d="M89.2318395,130.880146 C89.1413068,130.789614 89.4732601,130.306772 89.9561013,129.823931 C90.5898304,129.160025 90.9821389,128.978959 91.3140922,129.190202 C91.7064007,129.401445 91.5856904,129.582511 90.7407183,130.246417 C89.624148,131.061212 89.5034377,131.121567 89.2318395,130.880146 Z" id="Path"></path>
                <path d="M38.1412036,129.491978 C37.8696054,128.707361 38.4429794,128.043454 38.9258206,128.526295 C39.2879515,128.888426 39.0163533,130.125707 38.5938672,130.125707 C38.4429794,130.125707 38.2317363,129.854109 38.1412036,129.491978 Z" id="Path"></path>
                <path d="M99.2507947,124.814454 L99.2507947,123.48664 L100.54843,123.48664 C101.242515,123.48664 102.117664,123.396108 102.509973,123.305575 C104.199917,122.852911 102.117664,125.267117 100.337187,125.810314 L99.2507947,126.142267 L99.2507947,124.814454 Z" id="Path"></path>
                <path d="M71.7892007,124.723921 C71.7892007,124.391968 72.9661261,123.969481 73.2075467,124.180725 C73.2980794,124.271257 73.2679019,124.4825 73.1471916,124.663566 C72.905771,125.055874 71.7892007,125.116229 71.7892007,124.723921 Z" id="Path"></path>
                <path d="M78.7300431,124.090192 C78.7300431,123.939304 78.880931,123.788416 79.0318189,123.788416 C79.2128843,123.788416 79.3335946,123.939304 79.3335946,124.090192 C79.3335946,124.271257 79.2128843,124.391968 79.0318189,124.391968 C78.880931,124.391968 78.7300431,124.271257 78.7300431,124.090192 Z" id="Path"></path>
                <path d="M95.9614389,123.667706 C94.7543359,122.400248 95.4785977,121.736341 96.8667662,122.852911 C97.5004953,123.36593 97.5306728,123.456463 97.0780092,123.878949 C96.6555231,124.331612 96.5649904,124.301435 95.9614389,123.667706 Z" id="Path"></path>
                <path d="M80.9330061,123.094332 C80.9933613,122.883089 81.3554922,122.671846 81.7176231,122.641668 C82.5625952,122.520958 82.3211746,123.033977 81.4460249,123.275397 C81.0235389,123.36593 80.8424734,123.305575 80.9330061,123.094332 Z" id="Path"></path>
                <path d="M120.1035,120.167107 C119.711191,119.623911 119.288705,119.322135 119.077462,119.442845 C118.866219,119.563555 118.956752,119.38249 119.258527,119.080714 C119.801724,118.50734 119.831901,118.50734 120.405275,119.231602 C120.888117,119.804976 121.22007,121.072434 120.888117,121.072434 C120.827761,121.072434 120.495808,120.649948 120.1035,120.167107 Z" id="Path"></path>
                <path d="M127.617716,113.256442 C127.617716,113.105554 127.406473,112.743423 127.134875,112.502003 C126.712389,112.049339 126.772744,111.898451 127.798781,110.661171 C128.492866,109.786021 129.036062,109.393712 129.217127,109.574778 C129.398193,109.755843 129.820679,109.725666 130.394053,109.5446 C131.540801,109.122114 131.812399,109.454068 130.997604,110.29904 C130.635474,110.691348 130.333698,111.144012 130.333698,111.325077 C130.333698,111.777741 128.492866,113.52804 128.010024,113.52804 C127.798781,113.52804 127.617716,113.40733 127.617716,113.256442 Z" id="Path"></path>
                <path d="M133.653231,108.729806 C133.200567,107.854656 133.260923,107.794301 134.40767,107.794301 C135.644951,107.794301 135.765661,108.126254 134.709446,108.820338 C134.015362,109.273002 133.955007,109.273002 133.653231,108.729806 Z" id="Path"></path>
                <path d="M137.727204,108.216787 C137.425428,107.975366 136.942587,107.794301 136.640811,107.794301 C136.369213,107.794301 135.916549,107.462348 135.644951,107.039861 C135.373353,106.617375 134.890512,106.285422 134.558558,106.285422 C134.136072,106.285422 133.955007,106.074179 133.955007,105.651693 C133.955007,105.31974 133.804119,104.776543 133.653231,104.44459 C133.381633,103.991926 133.441988,103.810861 133.804119,103.690151 C134.105895,103.56944 134.196427,103.297842 134.105895,102.935711 C133.955007,102.513225 134.105895,102.301982 134.618914,102.090739 C135.071577,101.909674 135.463886,101.426832 135.675129,100.702571 C135.976904,99.7670657 135.946727,99.6161778 135.584596,99.7670657 C135.343175,99.8575984 135.16211,99.7368881 135.16211,99.4652899 C135.16211,99.103159 135.343175,99.0126263 135.916549,99.1635142 C136.761521,99.3747572 137.697026,98.6203178 138.179867,97.3528596 C138.451466,96.6889529 139.839634,95.7534481 140.111232,96.0552238 C140.171587,96.115579 140.111232,96.9303735 139.990522,97.8357008 C139.839634,98.9824487 139.869812,99.5860002 140.111232,99.7972432 C140.322475,99.9783087 140.473363,101.426832 140.503541,103.599618 L140.563896,107.130394 L139.447326,107.884834 C138.451466,108.54874 138.240223,108.578918 137.727204,108.216787 Z" id="Path"></path>
                <path d="M142.857392,106.285422 C142.555616,105.349917 144.24556,95.2404293 144.607691,95.8741584 C144.758579,96.1457566 144.788757,96.8096632 144.698224,97.322682 C144.607691,97.8658784 144.668046,98.7712057 144.818934,99.3445796 C145.150887,100.46115 144.969822,101.698431 143.973962,105.168852 C143.460943,106.979506 143.159167,107.281282 142.857392,106.285422 Z" id="Path"></path>
                <path d="M11.7358248,105.108497 C11.3133387,104.293702 11.3435163,104.172992 12.0074229,104.172992 C12.5204417,104.172992 12.9429278,104.716188 12.9429278,105.410272 C12.9429278,105.923291 12.0677781,105.681871 11.7358248,105.108497 Z" id="Path"></path>
                <path d="M76.4063698,104.655833 C73.6903879,103.780683 71.6684903,101.970029 70.4010322,99.2238693 C69.7069479,97.6848129 69.6164152,97.2019717 69.7371255,95.1498966 C69.8276582,93.4901299 70.0992564,92.4339147 70.6424528,91.347522 C71.3667146,89.929176 73.328257,87.8771008 74.6560704,87.0924838 C75.1992667,86.7907081 75.108734,86.3380444 72.6039952,76.8019305 C71.1554716,71.3397892 69.9785461,66.6320874 69.9785461,66.3906668 C69.9785461,66.1190686 70.1897891,65.8172929 70.4613873,65.7267601 C70.7329855,65.6362274 74.6560704,65.5456947 79.1827067,65.5456947 C83.7093431,65.5456947 87.632428,65.6362274 87.9040261,65.7267601 C88.1756243,65.8172929 88.3868674,66.1794238 88.3868674,66.5113771 C88.3868674,66.8433304 87.2401195,71.430322 85.8217734,76.7415753 C84.4034273,82.0226511 83.2566795,86.4587547 83.2566795,86.579465 C83.2566795,86.7303529 83.8300534,87.152839 84.5241377,87.575325 C89.5939704,90.6836154 90.1069892,98.5599626 85.4898201,102.603758 C82.9850813,104.836898 79.4844825,105.621515 76.4063698,104.655833 Z" id="Path"></path>
                <path d="M6.30386111,104.32388 C6.30386111,104.082459 6.51510415,103.871216 6.75652475,103.871216 C7.02812293,103.871216 7.11865566,104.052281 7.02812293,104.32388 C6.90741263,104.5653 6.72634718,104.776543 6.5754593,104.776543 C6.42457142,104.776543 6.30386111,104.5653 6.30386111,104.32388 Z" id="Path"></path>
                <path d="M17.7713399,104.32388 C17.3790314,103.841038 17.6808072,103.720328 18.4956017,104.052281 C18.7671999,104.142814 18.8879102,104.354057 18.7973775,104.504945 C18.5559569,104.897254 18.193826,104.836898 17.7713399,104.32388 Z" id="Path"></path>
                <path d="M30.2346787,101.245767 C29.6914824,101.064701 29.7518375,100.551683 30.2648563,100.551683 C30.7778751,100.551683 31.1701836,101.034524 30.8382303,101.245767 C30.6873424,101.306122 30.4157442,101.306122 30.2346787,101.245767 Z" id="Path"></path>
                <path d="M9.62339446,100.58186 C9.08019809,100.219729 9.29144112,99.9783087 10.2571235,99.887776 C10.7399648,99.8274208 10.9813854,99.9481311 10.9813854,100.249907 C10.9813854,100.793103 10.2571235,100.974169 9.62339446,100.58186 Z" id="Path"></path>
                <path d="M27.8204727,99.4954675 C27.5790521,98.8315608 28.0015381,98.4996075 28.3334915,99.0428039 C28.7258,99.6463554 28.6956224,99.9481311 28.3334915,99.9481311 C28.152426,99.9481311 27.941183,99.7368881 27.8204727,99.4954675 Z" id="Path"></path>
                <path d="M144.366271,94.4859899 C144.24556,94.335102 144.396448,93.912616 144.698224,93.5806626 C145.181065,93.0374663 145.271598,93.0374663 145.513018,93.4599523 C145.935504,94.2747469 144.818934,95.2706069 144.366271,94.4859899 Z" id="Path"></path>
                <path d="M148.98344,94.6067002 C149.194683,94.5161675 149.466281,94.5463451 149.556814,94.6368778 C149.677524,94.7274105 149.496458,94.8179432 149.164505,94.7877657 C148.832552,94.7877657 148.742019,94.6972329 148.98344,94.6067002 Z" id="Path"></path>
                <path d="M140.382831,93.7315505 C140.292298,93.4901299 140.352653,93.127999 140.563896,92.916756 C140.805317,92.6753354 140.895849,92.7960457 140.895849,93.3995972 C140.895849,94.3049244 140.684606,94.4558123 140.382831,93.7315505 Z" id="Path"></path>
                <path d="M141.378691,90.5930826 C141.589934,89.1747366 143.00828,86.368222 143.00828,87.364082 C143.00828,88.4504747 142.374551,90.4421947 141.770999,91.1966341 L141.167447,91.9510735 L141.378691,90.5930826 Z" id="Path"></path>
                <path d="M144.064495,88.0581663 C143.521298,87.6658578 143.521298,87.6356802 144.155027,87.3037269 C145.030177,86.8208856 145.12071,86.8812408 145.12071,87.7262129 C145.12071,88.571185 144.879289,88.6617178 144.064495,88.0581663 Z" id="Path"></path>
                <path d="M21.0305181,85.5534275 C21.2115836,85.4930723 21.5737145,85.4930723 21.7849575,85.5534275 C21.966023,85.6439602 21.8151351,85.7043153 21.392649,85.7043153 C20.970163,85.7043153 20.8192751,85.6439602 21.0305181,85.5534275 Z" id="Path"></path>
                <path d="M143.00828,83.9841935 C143.038457,83.3202868 144.064495,81.0569687 144.486981,80.8155481 C145.060355,80.4534171 145.150887,81.3587444 144.668046,82.5356699 C144.24556,83.5315299 144.24556,83.6824178 144.668046,83.8333056 C145.452663,84.1350814 145.150887,84.4368572 144.064495,84.4368572 C143.310055,84.4368572 143.00828,84.3161469 143.00828,83.9841935 Z" id="Path"></path>
                <path d="M20.970163,83.5013523 C20.4571442,83.1090438 19.974303,82.8374456 19.8837702,82.8978008 C19.7932375,82.9581559 19.6725272,82.4451372 19.6121721,81.7812305 C19.5216393,80.2723517 19.400929,80.0309311 18.6766672,80.0309311 C18.1334708,80.0309311 18.1334708,80.0007535 18.6163121,79.1256038 C18.8879102,78.6427626 19.2198636,78.2202765 19.3707514,78.2202765 C19.4914617,78.2202765 19.5819945,77.9185008 19.5819945,77.5261923 C19.5819945,77.0433511 19.8535927,76.7415753 20.4571442,76.5001547 C21.1210508,76.2587341 21.4530042,75.8664256 21.7246024,74.9007432 C22.2979763,72.9995559 21.392649,71.9131632 20.0648357,72.9392008 C19.6121721,73.2711541 19.5819945,73.4522196 19.8535927,73.7841729 C20.1251908,74.1463038 19.9441254,74.4480796 18.978443,75.3232293 C17.7109848,76.4699771 16.8660127,76.7113977 16.8660127,75.9267808 C16.8660127,75.1119862 17.4997417,74.2368365 17.9524054,74.417902 C18.2541811,74.5386123 18.3748914,74.3575468 18.3748914,73.8143505 C18.3748914,73.1806214 18.2843587,73.0900886 17.620452,73.2711541 C16.7453023,73.4823971 16.6849472,73.2107989 17.3488539,72.2451165 C17.620452,71.8226305 18.1334708,71.5812099 18.6464896,71.5812099 C19.1293308,71.5812099 19.8234151,71.3397892 20.2157236,71.0078359 C20.9098078,70.4646395 20.9399854,70.4646395 22.7204624,71.430322 C23.7464999,71.9735183 25.1044909,72.5770699 25.7683975,72.7883129 C27.8506503,73.4522196 28.6352672,74.1764814 28.6352672,75.5042947 C28.6352672,76.5906874 28.0317157,77.616725 27.4281642,77.616725 C27.2470987,77.616725 27.2470987,77.8883232 27.3979866,78.3108093 C27.8204727,79.4273796 27.0962109,80.7853705 25.376089,82.1433614 C24.4707618,82.8374456 23.3240139,83.591885 22.8109951,83.8031281 C21.9358454,84.165259 21.7547799,84.1350814 20.970163,83.5013523 Z" id="Path"></path>
                <path d="M143.400588,79.5782674 C143.310055,79.3066693 143.310055,79.0350711 143.400588,78.9143608 C143.732541,78.612585 145.12071,79.1256038 145.12071,79.5782674 C145.12071,80.181819 143.642009,80.181819 143.400588,79.5782674 Z" id="Path"></path>
                <path d="M150.854449,78.9445384 C150.854449,78.7031177 151.005337,78.5824074 151.156225,78.6729402 C151.337291,78.7634729 151.458001,78.9747159 151.458001,79.1557814 C151.458001,79.3066693 151.337291,79.4273796 151.156225,79.4273796 C151.005337,79.4273796 150.854449,79.2161365 150.854449,78.9445384 Z" id="Path"></path>
                <path d="M5.09675808,74.5989674 C5.09675808,74.4480796 4.8251599,74.2971917 4.52338414,74.2971917 C3.64823444,74.2971917 3.49734656,73.8143505 4.04054293,72.7883129 C4.55356172,71.7924529 5.09675808,71.5812099 5.09675808,72.426182 C5.09675808,72.7279577 5.30800111,73.2409765 5.54942172,73.5729299 C6.12279566,74.3273693 6.12279566,74.9007432 5.54942172,74.9007432 C5.30800111,74.9007432 5.09675808,74.7800329 5.09675808,74.5989674 Z" id="Path"></path>
                <path d="M7.20918839,72.2451165 C7.20918839,71.8226305 7.54114172,71.6113874 7.99380536,71.7924529 C8.23522597,71.8829856 8.32575869,72.0640511 8.23522597,72.2149389 C8.02398294,72.5468923 7.20918839,72.5770699 7.20918839,72.2451165 Z" id="Path"></path>
                <path d="M14.4518066,70.7664153 C14.4518066,70.2533965 14.632872,69.6800226 14.8742926,69.4989571 C15.2364236,69.1971814 15.2666011,69.3178917 15.0553581,70.2232189 C14.7234048,71.6717426 14.4518066,71.9131632 14.4518066,70.7664153 Z" id="Path"></path>
                <path d="M2.38077626,71.1587238 C2.38077626,71.0983686 2.59201929,70.8871256 2.83343989,70.6758826 C3.10503808,70.4646395 3.28610353,70.434462 3.28610353,70.6155274 C3.28610353,70.7664153 3.0748605,70.9776583 2.83343989,71.0983686 C2.59201929,71.1889014 2.38077626,71.2190789 2.38077626,71.1587238 Z" id="Path"></path>
                <path d="M19.7328824,68.5936298 C19.4311066,68.0504335 20.2459011,67.8995456 20.7287424,68.3823868 C21.181406,68.8350505 21.181406,68.865228 20.5778545,68.865228 C20.2157236,68.865228 19.8535927,68.7445177 19.7328824,68.5936298 Z" id="Path"></path>
                <path d="M17.8618727,67.0243959 C17.3186763,66.4811995 17.3790314,65.2740965 17.9222278,65.0628535 C18.7068448,64.7309001 18.8879102,65.0628535 18.5559569,66.2397789 C18.2843587,67.1752838 18.1636484,67.3261717 17.8618727,67.0243959 Z" id="Path"></path>
                <path d="M5.30800111,65.6362274 C4.9458702,64.9421432 4.8251599,63.7350401 5.12693566,63.7350401 C5.33817869,63.7350401 5.39853384,63.463442 5.27782354,62.9504232 C5.09675808,62.2261613 5.12693566,62.1959838 6.06244051,62.2865165 C6.90741263,62.3770492 7.05830051,62.467582 6.96776778,63.1314886 C6.93759021,63.5237971 6.63581445,64.1273486 6.33403869,64.4894795 C6.03226293,64.8214329 5.85119748,65.2740965 5.91155263,65.4853395 C6.06244051,65.877648 5.51924414,65.9983583 5.30800111,65.6362274 Z" id="Path"></path>
                <path d="M0.509766557,64.881788 C0.962430194,64.6403674 1.17367322,64.2782365 1.17367322,63.7048626 C1.17367322,63.0711335 1.35473868,62.8297129 2.10917808,62.5581147 C3.58787929,62.0450959 3.67841202,62.4374044 2.50148656,63.9161056 C1.68669201,64.881788 1.2038508,65.2439189 0.600299284,65.2137414 C-0.184317687,65.2137414 -0.184317687,65.2137414 0.509766557,64.881788 Z" id="Path"></path>
                <path d="M2.68255202,64.8214329 C2.68255202,64.5498347 2.89379505,64.3385917 3.16539323,64.3385917 C3.43699141,64.3385917 3.58787929,64.4894795 3.52752414,64.7007226 C3.34645868,65.2439189 2.68255202,65.3344517 2.68255202,64.8214329 Z" id="Path"></path>
                <path d="M19.5819945,64.4894795 C19.5819945,64.1877038 19.8837702,64.0368159 20.4269666,64.0368159 C21.2115836,64.0669935 21.2115836,64.0669935 20.6683872,64.4894795 C19.9139478,65.0628535 19.5819945,65.0628535 19.5819945,64.4894795 Z" id="Path"></path>
                <path d="M15.0553581,64.0669935 C15.0553581,63.885928 15.206246,63.674685 15.3571339,63.5841523 C15.5381993,63.4936195 15.6589096,63.6143298 15.6589096,63.8557504 C15.6589096,64.1273486 15.5381993,64.3385917 15.3571339,64.3385917 C15.206246,64.3385917 15.0553581,64.2178814 15.0553581,64.0669935 Z" id="Path"></path>
                <path d="M17.6506296,61.9545632 C17.4393866,61.5924323 19.189686,59.2084038 19.6725272,59.2084038 C20.8192751,59.2385813 20.7589199,59.7516001 19.4612842,60.9587032 C17.982583,62.3166941 17.8920502,62.3770492 17.6506296,61.9545632 Z" id="Path"></path>
                <path d="M15.1760684,60.5965723 C14.9044702,59.4800019 15.4778442,58.906628 15.9606854,59.8119553 C16.2624611,60.3551516 16.2322836,60.5663947 15.8701527,60.9587032 C15.4476666,61.3811892 15.3571339,61.3208341 15.1760684,60.5965723 Z" id="Path"></path>
                <path d="M6.90741263,58.906628 C6.90741263,58.7557401 7.05830051,58.6048522 7.20918839,58.6048522 C7.39025384,58.6048522 7.51096415,58.7557401 7.51096415,58.906628 C7.51096415,59.0876935 7.39025384,59.2084038 7.20918839,59.2084038 C7.05830051,59.2084038 6.90741263,59.0876935 6.90741263,58.906628 Z" id="Path"></path>
                <path d="M18.6766672,54.6817674 C18.6766672,54.0782159 18.8275551,53.7764401 19.1293308,53.7764401 C19.400929,53.7764401 20.1553684,53.5048419 20.7890975,53.1728886 C21.4530042,52.8409353 21.9962005,52.6598698 21.9962005,52.7805801 C21.9962005,53.1728886 19.4612842,55.5870947 19.0689757,55.5870947 C18.8275551,55.5870947 18.6766672,55.2249638 18.6766672,54.6817674 Z" id="Path"></path>
                <path d="M19.1293308,52.8409353 C19.0086205,52.6598698 18.978443,52.4788044 19.0689757,52.3882716 C19.1293308,52.2977389 19.2802187,52.4486268 19.3707514,52.720225 C19.5819945,53.2332438 19.400929,53.3237765 19.1293308,52.8409353 Z" id="Path"></path>
                <path d="M10.5890769,47.4391492 C10.3476563,47.0468407 10.3476563,46.8355977 10.5287217,46.8355977 C10.7097872,46.8355977 10.9210302,47.0468407 11.0417405,47.2882613 C11.3133387,48.0125231 11.0115629,48.1030559 10.5890769,47.4391492 Z" id="Path"></path>
                <path d="M20.6683872,45.6888498 C20.5778545,45.5077843 20.6080321,45.2965413 20.7890975,45.175831 C20.9399854,45.0852983 21.0908733,44.7533449 21.0908733,44.4515692 C21.0908733,44.179971 21.5435369,43.4858868 22.1169108,42.9426904 C22.9015278,42.188251 23.4145466,41.9468304 24.2595187,41.9468304 C25.5873321,41.9468304 26.0098181,42.2787837 25.8589302,43.2444662 C25.6778648,44.6326346 21.3021163,46.6847098 20.6683872,45.6888498 Z" id="Path"></path>
                <path d="M27.9713606,42.0977183 C28.1826036,42.0071855 28.4542018,42.0373631 28.5447345,42.1278959 C28.6654448,42.2184286 28.4843793,42.3089613 28.152426,42.2787837 C27.8204727,42.2787837 27.7299399,42.188251 27.9713606,42.0977183 Z" id="Path"></path>
                <path d="M35.7873527,41.1018583 C35.9684181,40.4379516 36.7228575,39.7136898 36.9642782,39.985288 C37.1755212,40.1663534 36.2098388,41.7054098 35.8778854,41.7054098 C35.7269975,41.7054098 35.69682,41.4338116 35.7873527,41.1018583 Z" id="Path"></path>
                <path d="M23.8068551,38.6574746 C23.6257896,38.3255213 23.5352569,37.9030352 23.5956121,37.6917922 C23.6559672,37.4805492 23.9275654,37.7823249 24.2293412,38.3255213 C24.5009393,38.8385401 24.5914721,39.2912037 24.4405842,39.2912037 C24.2595187,39.2912037 23.9879205,39.0196055 23.8068551,38.6574746 Z" id="Path"></path>
                <path d="M16.7151248,35.9716704 C16.624592,35.8207825 16.6849472,35.6698946 16.8358351,35.6698946 C17.0169005,35.6698946 17.1677884,35.8207825 17.1677884,35.9716704 C17.1677884,36.1527358 17.1074333,36.2734461 17.0470781,36.2734461 C16.9565454,36.2734461 16.8056575,36.1527358 16.7151248,35.9716704 Z" id="Path"></path>
                <path d="M20.970163,35.8811377 C20.5174993,35.5491843 20.4873218,35.428474 20.8796302,35.1266983 C21.2115836,34.8249225 21.3624715,34.9154552 21.6340696,35.5190067 C22.0263781,36.3639789 21.7849575,36.4846892 20.970163,35.8811377 Z" id="Path"></path>
                <path d="M42.0642885,35.0663431 C41.9737557,34.9154552 42.094466,34.7645673 42.3358866,34.7645673 C42.6074848,34.7645673 42.8187279,34.9154552 42.8187279,35.0663431 C42.8187279,35.2474086 42.6980176,35.3681189 42.5471297,35.3681189 C42.3660642,35.3681189 42.1548212,35.2474086 42.0642885,35.0663431 Z" id="Path"></path>
                <path d="M22.1470884,33.2556886 C22.2376211,33.1048007 22.5997521,32.9539128 22.9015278,32.9539128 C23.2033036,32.9539128 23.5654345,33.1048007 23.6559672,33.2556886 C23.7766775,33.436754 23.4447242,33.5574643 22.9015278,33.5574643 C22.3583315,33.5574643 22.0263781,33.436754 22.1470884,33.2556886 Z" id="Path"></path>
                <path d="M41.4607369,33.2556886 C41.3702042,33.0746231 41.4909145,32.8633801 41.7625127,32.7728473 C42.3358866,32.5314267 42.66784,32.7728473 42.3660642,33.225511 C42.1246436,33.647997 41.7021576,33.647997 41.4607369,33.2556886 Z" id="Path"></path>
                <path d="M30.9891181,32.1391183 C30.3252115,32.0485855 30.144146,31.8373425 30.144146,31.2941461 C30.144146,30.9018376 30.2648563,30.4793516 30.4459218,30.3888189 C30.8080527,30.1473982 32.2565763,27.2805285 32.2565763,26.7675098 C32.2565763,26.5562667 32.7997727,25.9225376 33.4636794,25.4095188 C34.127586,24.8663225 34.6707824,24.2929485 34.6406048,24.0817055 C34.5500721,23.2367334 34.70096,22.9651352 35.2139788,23.1160231 C35.5459321,23.2065558 35.908063,22.9651352 36.3305491,22.3314061 C36.69268,21.7580322 37.6281848,21.0337703 38.6240448,20.5509291 C39.7104376,20.0077328 40.5855873,19.283471 41.1589612,18.4686764 C42.094466,17.1408631 45.6855976,14.4248812 46.1684388,14.726657 C46.3193267,14.8171897 46.65128,14.7568346 46.8927006,14.5455915 C47.1039436,14.3645261 48.643,14.1532831 50.2725891,14.0929279 C53.3205242,13.9722176 54.5879824,13.7911522 55.61402,13.2479558 C56.1572164,12.9763576 56.1572164,12.94618 55.4631321,12.5538715 C54.4974497,12.0106752 54.406917,12.0408528 53.7128327,12.7651146 C53.3808794,13.1272455 52.9885709,13.3083109 52.8075055,13.1876006 C52.2341315,12.8556473 52.4453745,11.6183667 53.1696364,11.1355255 C54.1654964,10.4716188 56.3382818,8.29883335 56.7004127,7.60474911 C57.1530764,6.78995456 56.5797024,6.82013214 55.7347303,7.66510426 L55.1010012,8.29883335 L54.3767394,7.4840388 C53.2903467,6.18640304 53.4412346,5.79409456 55.1311788,5.79409456 C56.2175715,5.79409456 56.6400576,5.94498244 56.9116558,6.3674685 C57.1530764,6.75977698 57.4850297,6.91066486 57.9075158,6.78995456 C58.2394691,6.69942183 58.7223103,6.78995456 58.9637309,7.00119759 C59.3258618,7.30297335 59.4465721,7.2426182 59.7181703,6.54853395 C59.8690582,6.12604789 60.0199461,5.58285153 60.0501237,5.40178607 C60.0501237,5.19054304 60.2010115,5.43196365 60.382077,5.88462729 C60.7743855,6.97102002 61.5288249,6.85030971 62.162554,5.55267395 L62.6755728,4.55681395 L63.4903673,5.52249638 C64.1240964,6.30711335 64.3353394,6.42782365 64.57676,6.06569274 C64.7880031,5.73373941 64.8483582,5.73373941 64.8483582,6.18640304 C64.8483582,6.45800123 64.6974703,6.69942183 64.5164049,6.69942183 C64.2749843,6.69942183 64.2749843,6.85030971 64.5465825,7.15208547 C65.150134,7.87634729 66.0554612,7.72545941 66.1158164,6.85030971 C66.1158164,6.42782365 66.145994,5.91480486 66.1761715,5.73373941 C66.2063491,5.4923188 65.9045734,5.3716085 65.5122649,5.40178607 C64.9388909,5.4923188 64.8785358,5.40178607 65.150134,4.91894486 C65.3010219,4.58699153 65.4519097,3.77219698 65.4519097,3.13846789 L65.4519097,1.93136485 L66.9607885,1.72012182 C68.4998449,1.50887879 69.2241067,1.68994425 68.8921534,2.20296304 C68.8016206,2.38402849 68.5300225,2.35385091 68.2282467,2.11243031 C67.8057606,1.78047697 67.7755831,1.81065455 68.0170037,2.32367334 C68.1678916,2.65562667 68.2584243,3.28935576 68.2282467,3.77219698 C68.2282467,4.22486062 68.1980691,4.76805698 68.1980691,4.97930001 C68.1678916,5.16036547 68.2584243,5.85444971 68.348957,6.4881788 C68.4998449,7.42368365 68.6507328,7.60474911 69.2542843,7.60474911 C69.8880134,7.60474911 69.9483685,7.4840388 69.7974806,6.85030971 C69.5862376,5.97516001 69.7371255,5.91480486 70.7028079,6.54853395 C71.336537,6.97102002 71.4572473,6.97102002 72.1815091,6.39764607 C72.6039952,6.06569274 73.0868364,5.79409456 73.2679019,5.79409456 C73.4489673,5.79409456 73.8714534,5.64320668 74.2034067,5.43196365 C74.6560704,5.13018789 74.8673134,5.16036547 75.3803322,5.6130291 C75.9838837,6.15622547 75.9838837,6.15622547 76.1649491,5.43196365 C76.3460146,4.79823456 76.4969025,4.70770183 77.7945382,4.76805698 C78.6093328,4.76805698 79.5750152,5.03965516 79.9673237,5.31125335 C80.9330061,5.97516001 81.0537164,5.94498244 81.2649595,4.88876728 C81.3554922,4.40592607 81.5667352,3.98344001 81.7478007,3.98344001 C81.8986886,3.98344001 81.9590437,4.34557092 81.868511,4.82841213 C81.7176231,5.55267395 81.868511,5.85444971 82.6531279,6.4881788 C83.7696983,7.42368365 84.6750255,7.72545941 86.063194,7.54439396 C86.9986989,7.45386123 87.059054,7.4840388 86.9383437,8.2384782 C86.8176334,8.9929176 86.7572783,9.02309517 85.278577,8.87220729 C84.4034273,8.81185214 83.2566795,8.54025396 82.6833055,8.32901093 L81.6874455,7.90652487 L81.8081558,9.53611396 C81.9590437,11.3467685 81.4762025,11.5580115 80.6915855,10.0491327 C80.3596322,9.41540366 80.088034,9.2343382 79.2732395,9.26451578 C78.7300431,9.29469335 78.0057813,9.44558123 77.6738279,9.62664669 C77.3418746,9.80771214 76.4969025,10.0491327 75.8028182,10.1698431 C74.6560704,10.3509085 74.5353601,10.3207309 74.4448273,9.68700184 C74.3542946,9.08345032 74.2939394,9.05327275 73.901631,9.44558123 C73.6602104,9.68700184 72.9359485,10.2000206 72.3022194,10.5923291 C71.4572473,11.1053479 71.1856491,11.4674788 71.2761819,11.8597873 C71.5176025,12.7952921 70.914051,12.8556473 70.55192,11.9201425 C70.4010322,11.4674788 70.0690788,10.9846376 69.8880134,10.8639273 C69.133574,10.3810861 67.8359382,10.6225067 67.1720316,11.3467685 C66.5383025,12.0408528 66.3874146,12.0710303 65.0294237,11.739077 C63.8826758,11.4674788 62.9169934,11.527834 60.1406564,11.9804976 C56.7909455,12.523694 56.7004127,12.5538715 57.2134315,13.1272455 C57.7264503,13.6704418 57.7264503,13.730797 56.9116558,14.3947037 C56.2779267,14.9680776 56.0968612,15.3905637 56.0968612,16.4166012 C56.0968612,17.3521061 56.0063285,17.5935267 55.7649079,17.3521061 C55.3424218,16.92962 52.4755521,17.1710406 52.0228885,17.6840594 C51.8720006,17.8651249 51.5098697,18.0160128 51.2684491,18.0160128 C50.9063182,18.0160128 50.8157855,18.4083213 50.845963,19.9172 L50.8761406,21.8485649 L49.9708133,21.6674994 C49.2163739,21.5166116 48.8844206,21.6373219 48.1903364,22.3012285 C47.4962521,22.9651352 47.2246539,23.0556679 46.8021679,22.8142473 C46.4098594,22.5426491 46.1986164,22.6331819 45.7459527,23.2065558 C45.2631115,23.7799297 44.9915133,23.8704625 44.1465412,23.7195746 C43.3317467,23.5686867 42.9696157,23.689397 42.2151763,24.3231261 C41.3702042,25.0172104 40.7062976,25.2888085 38.2015588,25.8320049 C37.5074745,26.0130704 37.3565866,26.1639582 37.4471194,26.8278649 C37.5074745,27.4917716 37.8092503,27.7935473 38.8654654,28.3367437 C38.895643,28.3669213 38.8654654,28.5178092 38.7447551,28.6988746 C38.4731569,29.1817158 37.3867642,28.5479867 37.3867642,27.9142576 C37.3867642,27.4917716 37.2962315,27.4917716 36.7530351,28.0047904 C36.119306,28.5781643 36.119306,28.5479867 35.5459321,27.8539025 C35.2441563,27.461594 35.0329133,27.0692855 35.0932685,26.9485752 C35.1536236,26.8580425 34.8216703,26.7675098 34.3388291,26.7373322 C33.8559878,26.7071546 33.4636794,26.7976873 33.4636794,26.8882201 C33.4636794,27.0089304 34.0370533,27.672837 34.7613151,28.3669213 C35.7571751,29.3627813 36.1494836,29.5438467 36.4210818,29.2722485 C36.69268,29.0006504 36.7832127,29.1817158 36.7832127,30.1172207 C36.7832127,31.3243237 36.7832127,31.3243237 35.5459321,31.4148564 C34.8216703,31.445034 34.0068757,31.2941461 33.5843897,30.9923704 C32.70924,30.4189964 32.135866,30.4189964 31.6530248,30.9923704 C31.351249,31.3545013 31.3814266,31.4752116 31.7737351,31.6260995 C32.2565763,31.8071649 32.4678194,32.3805389 32.0453333,32.3201837 C31.8944454,32.2900061 31.4417818,32.1994734 30.9891181,32.1391183 Z M48.1903364,20.3396861 C48.4619345,20.1586207 48.3714018,19.9775552 47.8282054,19.7361346 C47.2548315,19.494714 47.0134109,19.494714 46.7719903,19.7964897 C46.1986164,20.490574 47.2850091,20.8828825 48.1903364,20.3396861 Z M77.5229401,8.9929176 C77.5229401,8.90238487 77.4022298,8.75149699 77.2211643,8.66096426 C77.0702764,8.57043153 76.9193885,8.63078669 76.9193885,8.78167456 C76.9193885,8.96274002 77.0702764,9.1136279 77.2211643,9.1136279 C77.4022298,9.1136279 77.5229401,9.05327275 77.5229401,8.9929176 Z M67.8661158,7.00119759 C67.8661158,6.85030971 67.6246952,6.69942183 67.353097,6.69942183 C66.9004334,6.69942183 66.8702558,6.75977698 67.2625643,7.00119759 C67.8359382,7.3633285 67.8661158,7.3633285 67.8661158,7.00119759 Z" id="Shape"></path>
                <path d="M27.4583418,31.4148564 C26.8849678,31.1734358 26.7944351,30.9923704 26.9755006,30.2982861 C27.2169212,29.2722485 27.1263884,29.3326037 28.4843793,29.5438467 L29.6311272,29.7249122 L28.937043,30.2982861 C28.3938466,30.7509498 28.3334915,30.9320152 28.6352672,31.2941461 C29.0879309,31.8373425 28.6352672,31.8976976 27.4583418,31.4148564 Z" id="Path"></path>
                <path d="M58.0584037,30.8414825 C58.1489364,30.6905946 58.2998243,30.5397067 58.390357,30.5397067 C58.4507121,30.5397067 58.5110673,30.6905946 58.5110673,30.8414825 C58.5110673,31.0225479 58.3601794,31.1432583 58.179114,31.1432583 C58.0282261,31.1432583 57.9678709,31.0225479 58.0584037,30.8414825 Z" id="Path"></path>
                <path d="M29.9027254,28.0953231 C29.9630806,27.8840801 30.2045012,27.6426595 30.4157442,27.5823043 C30.6571648,27.4917716 30.7778751,27.6124819 30.6873424,27.8539025 C30.6269872,28.0651455 30.3855666,28.3065661 30.1743236,28.3669213 C29.932903,28.457454 29.8121927,28.3367437 29.9027254,28.0953231 Z" id="Path"></path>
                <path d="M41.6418024,27.3408837 C41.6418024,27.0089304 41.7323351,26.9183976 41.8228679,27.1598182 C41.9134006,27.3710613 41.883223,27.6426595 41.7926903,27.7331922 C41.7021576,27.8539025 41.6116248,27.672837 41.6418024,27.3408837 Z" id="Path"></path>
                <path d="M27.0358557,26.8882201 C26.7642575,26.7071546 26.5831921,26.4355564 26.7039024,26.2846685 C26.8246127,26.1036031 27.0358557,26.1036031 27.2772763,26.3148461 C27.5790521,26.5562667 27.8506503,26.5562667 28.3033139,26.3450237 C29.2086412,25.8320049 29.3897066,25.9527152 28.7861551,26.6166219 C28.1826036,27.2805285 27.8204727,27.3408837 27.0358557,26.8882201 Z" id="Path"></path>
                <path d="M30.144146,26.5864443 C30.144146,26.1036031 29.359529,25.4095188 28.8163327,25.4095188 C28.1826036,25.4095188 28.1826036,24.6249019 28.8163327,24.3834813 C29.4500618,24.1420607 30.144146,24.7154346 30.144146,25.4396964 C30.144146,25.8621825 30.355389,26.0130704 30.9891181,26.0130704 C31.7737351,26.0432479 31.7737351,26.0432479 31.2305387,26.465734 C30.5364545,27.0089304 30.144146,27.0391079 30.144146,26.5864443 Z" id="Path"></path>
                <path d="M48.5524673,26.0130704 C48.5524673,25.8621825 48.7033551,25.7112946 48.8844206,25.7112946 C49.0353085,25.7112946 49.0956636,25.8621825 49.0051309,26.0130704 C48.9145982,26.1941358 48.7637103,26.3148461 48.6731776,26.3148461 C48.6128224,26.3148461 48.5524673,26.1941358 48.5524673,26.0130704 Z" id="Path"></path>
                <path d="M51.2684491,25.5604067 C51.2684491,25.0473879 52.6566176,24.2929485 52.9885709,24.6249019 C53.3507018,24.9568552 52.62644,25.8621825 51.9021782,25.9527152 C51.4796921,26.0130704 51.2684491,25.8923601 51.2684491,25.5604067 Z" id="Path"></path>
                <path d="M54.9199358,21.5769667 C54.5578049,20.2491534 54.61816,20.1284431 55.4631321,20.5811067 C56.1270388,20.91306 56.2477491,21.3657237 55.9157958,22.2106958 C55.61402,22.9953128 55.2518891,22.7538922 54.9199358,21.5769667 Z" id="Path"></path>
                <path d="M123.302323,22.482294 C122.970369,22.1805182 123.060902,21.1846582 123.392855,21.1846582 C123.573921,21.1846582 123.694631,21.5166116 123.694631,21.9390976 C123.694631,22.7237146 123.634276,22.8142473 123.302323,22.482294 Z" id="Path"></path>
                <path d="M58.3300018,21.90892 C58.4205346,21.6373219 58.5110673,21.3959013 58.5110673,21.3355461 C58.5110673,21.0035928 60.7140303,19.9473776 61.0761612,20.0982655 C62.2530867,20.5509291 61.1063388,21.90892 59.3258618,22.1805182 C58.3601794,22.3314061 58.179114,22.271051 58.3300018,21.90892 Z" id="Path"></path>
                <path d="M106.251992,19.9172 C105.920039,19.5248916 105.40702,19.0420503 105.1656,18.8308073 C104.894001,18.6195643 104.682758,18.1065455 104.682758,17.6538819 C104.682758,17.0201528 104.743113,16.9597976 105.135422,17.2615734 C106.010572,17.9858352 107.700516,20.5811067 107.308207,20.5811067 C107.096964,20.5811067 106.614123,20.279331 106.251992,19.9172 Z" id="Path"></path>
                <path d="M125.354398,20.279331 C125.233687,20.0982655 125.263865,19.7964897 125.44493,19.6154243 C125.625996,19.4343588 125.807061,19.4343588 125.957949,19.6757794 C126.07866,19.8568449 126.048482,20.1586207 125.867417,20.3396861 C125.686351,20.5207516 125.505286,20.5207516 125.354398,20.279331 Z" id="Path"></path>
                <path d="M78.7300431,17.8651249 L78.7300431,16.9597976 L79.5146601,17.4728164 C80.2690995,17.9556576 80.2690995,17.9858352 79.7560807,18.3781437 C78.9412861,18.9816952 78.7300431,18.8609849 78.7300431,17.8651249 Z" id="Path"></path>
                <path d="M122.698771,16.9899752 C121.793444,15.8734049 121.672733,15.4509188 122.33664,15.4509188 C122.819481,15.4509188 123.785164,17.1106855 123.634276,17.6237043 C123.573921,17.8047697 123.151435,17.502994 122.698771,16.9899752 Z" id="Path"></path>
                <path d="M59.5672824,17.2615734 C59.4767497,17.1106855 59.5069273,16.9597976 59.6879927,16.9597976 C59.8388806,16.9597976 60.0803012,17.1106855 60.170834,17.2615734 C60.2613667,17.4426388 60.2311891,17.5633491 60.0501237,17.5633491 C59.8992358,17.5633491 59.6578152,17.4426388 59.5672824,17.2615734 Z" id="Path"></path>
                <path d="M88.5679328,17.0201528 C88.4774001,16.8390873 88.5377552,16.5976667 88.7188207,16.507134 C89.1714843,16.2053582 89.4732601,16.5976667 89.0809516,16.9899752 C88.8697086,17.2012182 88.6886431,17.2012182 88.5679328,17.0201528 Z" id="Path"></path>
                <path d="M64.5465825,16.5674891 C64.5465825,16.3260685 64.7276479,15.9639376 64.9690685,15.7828722 C65.3311994,15.4810964 65.361377,15.5414515 65.2406667,16.0544703 C65.0294237,16.8089097 64.5465825,17.1710406 64.5465825,16.5674891 Z" id="Path"></path>
                <path d="M118.051424,15.5414515 C117.508228,15.3603861 117.568583,14.5455915 118.081602,14.5455915 C118.654976,14.5455915 119.017107,15.1189655 118.685153,15.4509188 C118.534266,15.5716291 118.23249,15.6018067 118.051424,15.5414515 Z" id="Path"></path>
                <path d="M76.6779679,14.8775449 C76.7383231,14.6663019 76.889211,14.515414 77.0099213,14.515414 C77.3720522,14.5455915 77.2815195,14.9680776 76.9193885,15.1189655 C76.7081455,15.1793206 76.5874352,15.0586103 76.6779679,14.8775449 Z" id="Path"></path>
                <path d="M104.924179,14.3947037 C104.743113,13.4591988 104.954356,12.1313855 105.316487,12.1313855 C105.467375,12.1313855 105.588086,12.8254697 105.588086,13.6402643 C105.588086,15.2094982 105.1656,15.6923394 104.924179,14.3947037 Z" id="Path"></path>
                <path d="M85.3691098,13.0367128 C84.9768013,12.7952921 84.9768013,12.7047594 85.4294649,12.2520958 C85.851951,11.8296097 86.0330164,11.7994321 86.3951474,12.1313855 C87.4513625,12.9763576 86.5460352,13.7911522 85.3691098,13.0367128 Z" id="Path"></path>
                <path d="M113.796386,12.4029837 C113.856741,12.2219182 114.037807,12.1012079 114.188695,12.1012079 C114.339583,12.1012079 114.520648,12.2219182 114.581003,12.4029837 C114.641358,12.5840491 114.460293,12.734937 114.188695,12.734937 C113.917097,12.734937 113.736031,12.5840491 113.796386,12.4029837 Z" id="Path"></path>
                <path d="M93.9697189,11.1657031 C93.4567001,10.7733946 92.611728,10.4716188 91.9176437,10.4414412 C90.620008,10.3810861 90.3785874,10.2000206 90.0768116,9.20416063 C89.9259237,8.69114184 90.046634,8.41954365 90.6803631,8.02723517 C91.4046249,7.54439396 91.5253352,7.54439396 91.827111,7.93670244 C92.0081765,8.20830062 92.4608401,8.57043153 92.8531486,8.78167456 C93.3963449,9.08345032 93.5170552,9.05327275 93.5170552,8.66096426 C93.5170552,8.3591885 93.818831,8.20830062 94.4827377,8.20830062 C95.3578874,8.20830062 95.3880649,8.2384782 94.9354013,8.75149699 C94.3016722,9.44558123 94.3016722,10.0189552 94.8750462,10.8035721 C95.7803734,11.9804976 95.2673546,12.1917406 93.9697189,11.1657031 Z" id="Path"></path>
                <path d="M106.040749,11.1657031 C106.16146,10.8941049 105.799329,10.743217 104.954356,10.6828618 C104.260272,10.6526843 103.566188,10.531974 103.4153,10.4414412 C102.962636,10.1396655 103.17388,9.14380547 103.867964,8.32901093 L104.592226,7.51421638 L105.648441,8.14794547 C106.614123,8.75149699 108.032469,10.743217 107.700516,11.0148152 C107.609983,11.0751703 107.187497,11.2260582 106.734833,11.3467685 C106.131282,11.4674788 105.950216,11.4373012 106.040749,11.1657031 Z" id="Path"></path>
                <path d="M88.3265122,10.2905534 C87.8738486,10.0491327 87.843671,9.89824487 88.1756243,9.41540366 C88.7188207,8.51007638 89.2921946,8.69114184 89.2921946,9.71717942 C89.2921946,10.6828618 89.1413068,10.7733946 88.3265122,10.2905534 Z" id="Path"></path>
                <path d="M97.2892522,9.1136279 C97.8928037,8.44972123 98.2247571,8.51007638 97.9531589,9.26451578 C97.8324486,9.50593638 97.5306728,9.71717942 97.2590746,9.71717942 C96.7762334,9.71717942 96.7762334,9.65682426 97.2892522,9.1136279 Z" id="Path"></path>
                <path d="M96.5348128,7.60474911 C96.5348128,7.45386123 96.6857007,7.30297335 96.8667662,7.30297335 C97.017654,7.30297335 97.0780092,7.45386123 96.9874765,7.60474911 C96.8969437,7.78581456 96.7460559,7.90652487 96.6555231,7.90652487 C96.595168,7.90652487 96.5348128,7.78581456 96.5348128,7.60474911 Z" id="Path"></path>
                <path d="M52.7773279,7.18226305 C52.7773279,6.91066486 52.9885709,6.69942183 53.2601691,6.69942183 C53.5317673,6.69942183 53.6826552,6.85030971 53.6223,7.06155274 C53.4412346,7.60474911 52.7773279,7.69528184 52.7773279,7.18226305 Z" id="Path"></path>
                <path d="M110.627741,7.06155274 C109.963834,6.33729092 109.994012,6.09587032 110.718273,6.09587032 C111.321825,6.09587032 112.046087,7.06155274 111.714133,7.42368365 C111.412358,7.72545941 111.14076,7.63492668 110.627741,7.06155274 Z" id="Path"></path>
                <path d="M90.8010734,6.12604789 C90.8010734,5.94498244 90.9519613,5.73373941 91.1028492,5.64320668 C91.2839146,5.55267395 91.4046249,5.67338425 91.4046249,5.91480486 C91.4046249,6.18640304 91.2839146,6.39764607 91.1028492,6.39764607 C90.9519613,6.39764607 90.8010734,6.27693577 90.8010734,6.12604789 Z" id="Path"></path>
                <path d="M98.5567104,6.21658062 C98.3152898,5.97516001 98.586888,5.4923188 98.9791965,5.4923188 C99.1300843,5.4923188 99.2507947,5.70356183 99.2507947,5.94498244 C99.2507947,6.39764607 98.8886637,6.54853395 98.5567104,6.21658062 Z" id="Path"></path>
                <path d="M106.946076,5.79409456 C106.433058,5.46214122 105.256132,5.13018789 104.29045,5.00947759 C102.691038,4.82841213 102.570328,4.85858971 102.570328,5.43196365 C102.570328,6.00533759 102.479795,6.03551516 101.785711,5.76391698 C101.333047,5.6130291 100.578608,5.13018789 100.095767,4.7378794 C99.6129256,4.31539334 98.9791965,3.98344001 98.7377759,3.98344001 C98.3152898,3.98344001 98.3152898,3.92308486 98.7377759,3.44024364 C99.0395516,3.13846789 99.2507947,2.65562667 99.2507947,2.41420607 C99.2507947,1.99172 99.4318601,1.96154243 100.850206,2.29349576 C101.695178,2.50473879 103.747253,3.25917819 105.346665,3.92308486 C106.946076,4.6171691 108.424778,5.19054304 108.575666,5.19054304 C109.028329,5.19054304 108.998152,5.58285153 108.545488,6.03551516 C108.092824,6.4881788 108.062647,6.4881788 106.946076,5.79409456 Z" id="Path"></path>
                <path d="M84.7655583,3.19882304 C84.7655583,3.07811273 85.0069789,2.80651455 85.3087546,2.59527152 C85.7915958,2.23314061 85.7614183,2.20296304 85.1578667,2.17278546 C84.0111189,2.17278546 84.3128946,1.26745818 85.4596425,1.23728061 C85.9726613,1.20710303 86.5762128,1.23728061 86.7271007,1.26745818 C86.9081661,1.32781334 87.4211849,1.41834606 87.9040261,1.50887879 C88.7188207,1.62958909 88.7489983,1.59941152 88.5679328,0.814794547 L88.3566898,0 L89.8052134,0.181065455 C90.5898304,0.301775758 91.827111,0.452663637 92.5513728,0.543196365 C93.8791862,0.72426182 94.7241583,1.50887879 94.7241583,2.56509395 C94.7241583,2.98758001 94.603448,3.07811273 94.2111395,2.89704728 C93.0643916,2.41420607 89.3525498,2.41420607 87.9040261,2.89704728 C86.4555025,3.37988849 84.7655583,3.53077637 84.7655583,3.19882304 Z" id="Path"></path>
                <path d="M71.125294,2.44438364 C70.340677,1.99172 70.4613873,1.72012182 71.4874249,1.65976667 C72.2116867,1.59941152 72.3927522,1.72012182 72.3927522,2.17278546 C72.3927522,2.83669213 71.9400885,2.92722485 71.125294,2.44438364 Z" id="Path"></path>
                <path d="M77.7341831,2.56509395 C77.6134728,2.47456122 77.8247158,2.05207516 78.1868467,1.65976667 C78.6696879,1.14674788 78.9111085,1.05621515 79.2430619,1.29763576 C79.7560807,1.7502994 79.7560807,2.50473879 79.2128843,2.29349576 C78.9714637,2.20296304 78.6998655,2.26331819 78.5791552,2.44438364 C78.3679122,2.83669213 78.0057813,2.8668697 77.7341831,2.56509395 Z" id="Path"></path>
                <path d="M76.315837,1.59941152 C76.315837,1.44852364 76.4667249,1.20710303 76.6176128,1.11657031 C76.7986782,1.02603758 76.9193885,1.05621515 76.9193885,1.23728061 C76.9193885,1.38816849 76.7986782,1.62958909 76.6176128,1.72012182 C76.4667249,1.81065455 76.315837,1.78047697 76.315837,1.59941152 Z" id="Path"></path>
            </g>
            <text id="lock-&amp;-shutter-photo" font-family="Stalemate-Regular, Stalemate" font-size="36" font-weight="normal" line-spacing="23" letter-spacing="0.6">
                <tspan x="73.9605469" y="126">lock &amp; shutter</tspan>
                <tspan x="0" y="149">                          photography </tspan>
            </text>
        </g>
    </g>
</svg>