<?xml version="1.0" encoding="UTF-8"?>
<svg width="50px" height="50px" viewBox="0 0 50 50" version="1.1" xmlns="http://www.w3.org/2000/svg" xmlns:xlink="http://www.w3.org/1999/xlink">
    <title>lock-shutter-photography-favicon</title>
    <g id="Page-1" stroke="none" stroke-width="1" fill="none" fill-rule="evenodd">
        <g id="lock-shutter-photography-favicon" transform="translate(0.000000, -0.000000)" fill="#000000" fill-rule="nonzero">
            <g id="Group" transform="translate(25.000000, 24.509061) scale(-1, 1) rotate(-180.000000) translate(-25.000000, -24.509061) ">
                <path d="M13.159201,48.9649884 C13.0894645,48.9450637 12.9898409,48.8354778 12.9400291,48.7358542 C12.8503679,48.5764565 12.880255,48.5664941 13.2687869,48.6661177 C13.7768672,48.785666 13.8266789,48.8155531 13.6373941,48.9351014 C13.4779964,49.0347249 13.3584481,49.0446873 13.159201,48.9649884 Z" id="Path"></path>
                <path d="M22.2050218,48.8454401 C22.2050218,48.6860424 22.5038926,48.4967576 22.6134785,48.6063436 C22.6732526,48.6661177 22.6234409,48.7358542 22.4540808,48.8155531 C22.3146078,48.8753272 22.2050218,48.8952519 22.2050218,48.8454401 Z" id="Path"></path>
                <path d="M10.1406066,47.171764 C8.92519892,45.9264693 8.65621526,45.5478997 9.00489778,45.5478997 C9.29380616,45.5478997 9.7321499,45.8368081 9.8018864,46.0659423 C9.84173583,46.195453 10.180456,46.5740226 10.5490632,46.9127427 C10.9375952,47.2713876 11.2464283,47.6399949 11.266353,47.7894302 C11.3560142,48.2476987 11.0172941,48.0683762 10.1406066,47.171764 Z" id="Path"></path>
                <path d="M21.9161134,47.0522157 C21.6770169,46.9027804 21.9061511,46.7433827 22.3544572,46.7433827 C22.8724998,46.7433827 23.0219352,46.9027804 22.6533279,47.0422534 C22.3345325,47.1618017 22.0954359,47.171764 21.9161134,47.0522157 Z" id="Path"></path>
                <path d="M24.6956113,46.8430062 C24.6956113,46.5839849 25.0741809,46.3747754 25.1538797,46.5939473 C25.2236162,46.7732697 25.0343314,47.0422534 24.8350843,47.0422534 C24.7553854,47.0422534 24.6956113,46.9525922 24.6956113,46.8430062 Z" id="Path"></path>
                <path d="M13.3185987,46.7334203 C12.8404055,46.4843613 12.8005561,46.195453 13.2488622,46.2851142 C13.4182223,46.3150013 13.6274318,46.3448883 13.6971683,46.3448883 C13.8466037,46.3448883 13.8964154,46.7931944 13.7669048,46.8728933 C13.717093,46.9027804 13.5178459,46.8330439 13.3185987,46.7334203 Z" id="Path"></path>
                <path d="M23.0817093,46.7035332 C22.6433656,46.3050389 22.7529515,46.05598 23.2012576,46.4245872 C23.3208059,46.5242108 23.4104671,46.6836085 23.3905424,46.7832321 C23.350693,46.9426298 23.3208059,46.9326674 23.0817093,46.7035332 Z" id="Path"></path>
                <path d="M25.5424117,46.7433827 C25.5722988,46.6935709 25.6420353,46.6437591 25.7018094,46.6437591 C25.7516212,46.6437591 25.7914706,46.6935709 25.7914706,46.7433827 C25.7914706,46.8031568 25.7217341,46.8430062 25.6320729,46.8430062 C25.552374,46.8430062 25.5125246,46.8031568 25.5424117,46.7433827 Z" id="Path"></path>
                <path d="M28.2322483,46.6437591 C28.0529258,46.5740226 27.6046197,46.1556035 27.694281,46.1356788 C28.391646,46.0460176 28.5809308,46.05598 28.670592,46.2353024 C28.810065,46.4843613 28.5211567,46.753345 28.2322483,46.6437591 Z" id="Path"></path>
                <path d="M19.9933784,46.3448883 C19.8040936,46.0061682 19.8040936,46.0061682 20.1627385,46.1655659 C20.3022115,46.22534 20.4018351,46.3448883 20.3918727,46.4245872 C20.3420609,46.6935709 20.1727008,46.6537214 19.9933784,46.3448883 Z" id="Path"></path>
                <path d="M13.996039,46.2851142 C13.966152,46.195453 13.9362649,46.0161305 13.9362649,45.8866199 C13.9362649,45.667448 13.9163402,45.6574857 13.7270554,45.7571092 C13.5278082,45.8567328 13.5178459,45.8467705 13.5875824,45.527975 C13.6573189,45.1892548 13.8366413,44.9103088 13.8366413,45.1294807 C13.8366413,45.2191419 13.9163402,45.1992172 14.0757379,45.0796689 C14.3048721,44.9202712 14.3048721,44.8903841 14.1653991,44.7807982 C14.0757379,44.7110617 13.8067542,44.6512875 13.5676576,44.6512875 C13.1392763,44.6512875 13.1392763,44.6512875 13.1392763,44.302605 C13.1392763,43.9738472 13.1293139,43.9539225 12.9300667,44.0635084 C12.8105184,44.1232826 12.6909702,44.2527932 12.6710454,44.3524168 C12.6013089,44.6114381 12.4319489,44.6512875 12.0932287,44.5018522 C11.8939815,44.4121909 11.8541321,44.3623791 11.9736804,44.3623791 C12.2227393,44.3524168 12.8005561,43.7646377 12.880255,43.4358799 C12.9699162,43.0373856 13.1392763,43.0971597 13.0695398,43.495654 L13.019728,43.8343742 L13.4481093,43.744713 C13.9263025,43.635127 14.0558132,43.5554282 13.856566,43.4856917 C13.7967919,43.4558046 13.7569424,43.3960304 13.7967919,43.3462187 C13.8266789,43.2964069 13.9761143,43.3262939 14.1454744,43.4059928 C14.4841946,43.5853152 14.4941569,43.5653905 14.2351356,43.1370091 C14.0159637,42.7684019 13.966152,42.54923 14.1554367,42.7385148 C14.2251733,42.8082513 14.3646463,42.8580631 14.4642698,42.8580631 C14.6137052,42.8580631 14.6435923,42.9078749 14.5937805,43.1071221 C14.5539311,43.2764821 14.5937805,43.4159552 14.7332535,43.5554282 C14.9723501,43.7945248 14.9823124,43.8244118 14.7631406,43.8742236 C14.6535546,43.9041107 14.7930276,43.9838095 15.081936,44.0635084 C15.5700916,44.2129438 15.5800539,44.2229061 15.5501668,44.5715887 C15.5302421,44.9103088 15.5501668,44.9501583 16.0682094,45.249029 C16.7456498,45.6275986 16.7755368,45.6774104 16.5264779,45.8965822 C16.3571178,46.0460176 16.2873813,46.05598 16.0682094,45.9663187 C15.7294893,45.806921 15.2811832,45.8168834 15.1417102,45.9862435 C15.0620113,46.085867 14.9125759,46.1157541 14.6734794,46.0759047 C14.3746086,46.0260929 14.3347592,46.0460176 14.3347592,46.2353024 C14.3347592,46.474399 14.0857002,46.5142484 13.996039,46.2851142 Z M15.0321242,44.3524168 C15.0321242,44.302605 14.9922748,44.2527932 14.9325007,44.2527932 C14.8826889,44.2527932 14.8328771,44.302605 14.8328771,44.3524168 C14.8328771,44.4121909 14.8826889,44.4520404 14.9325007,44.4520404 C14.9922748,44.4520404 15.0321242,44.4121909 15.0321242,44.3524168 Z" id="Shape"></path>
                <path d="M27.0865771,46.2751518 C27.0865771,45.9563564 27.1862007,45.7471469 27.3455984,45.7471469 C27.5348832,45.7471469 27.5249209,45.8368081 27.2858243,46.195453 C27.1065018,46.4644366 27.0865771,46.474399 27.0865771,46.2751518 Z" id="Path"></path>
                <path d="M29.1786723,46.3448883 C29.1786723,46.2950766 29.2484088,46.2452648 29.33807,46.2452648 C29.4177688,46.2452648 29.4576183,46.2950766 29.4277312,46.3448883 C29.3978441,46.4046625 29.3281076,46.4445119 29.2683335,46.4445119 C29.2185217,46.4445119 29.1786723,46.4046625 29.1786723,46.3448883 Z" id="Path"></path>
                <path d="M24.327004,45.7969587 L24.048058,45.5578621 L24.4266276,45.5478997 C24.7553854,45.5478997 24.7952348,45.5777868 24.7952348,45.7969587 C24.7952348,46.1057918 24.6856489,46.1157541 24.327004,45.7969587 Z" id="Path"></path>
                <path d="M26.2397767,45.5977115 C25.9110189,45.3287278 26.0206049,45.2888784 26.5984216,45.4682009 C26.9072547,45.5578621 26.9670288,45.6076739 26.8773676,45.7172598 C26.7179699,45.9065446 26.5784969,45.8766575 26.2397767,45.5977115 Z" id="Path"></path>
                <path d="M23.2012576,45.5578621 C23.1414835,45.4383138 22.8027633,45.2191419 22.4441184,45.0497818 C21.876264,44.8007229 21.7965652,44.7309864 21.8563393,44.5516639 C21.8961887,44.4321156 21.876264,44.2926426 21.8264522,44.2229061 C21.7766404,44.1531696 21.6570921,43.8941483 21.5574686,43.635127 C21.3980708,43.1967833 21.3681838,43.1768586 21.1490119,43.2764821 C20.8700659,43.4059928 20.8202541,43.8542989 21.0593507,44.0535461 C21.1988237,44.1730943 21.1888613,44.2129438 20.9995765,44.4121909 L20.790367,44.6313628 L20.9995765,44.7010993 C21.1191248,44.7309864 21.208786,44.8106852 21.208786,44.860497 C21.208786,44.9900077 20.9696895,44.970083 20.8401788,44.8405723 C20.7505176,44.7509111 20.650894,44.7807982 20.4516469,44.9401959 C20.093002,45.2191419 19.9136795,45.2091796 19.9136795,44.9003465 C19.9136795,44.6214004 19.9435666,44.6114381 20.2225126,44.7509111 C20.371948,44.83061 20.4117974,44.8206476 20.4117974,44.721024 C20.4117974,44.5018522 19.8738301,44.3125674 19.6347335,44.442078 C19.5151852,44.5018522 19.2362392,44.5217769 18.9772179,44.4918898 C18.5787236,44.4321156 18.5388742,44.4022286 18.618573,44.2428309 C18.7480837,44.0136966 18.6086107,43.9240354 18.0307939,43.8941483 C17.114257,43.8343742 16.8153863,43.8542989 16.5962144,43.9738472 C16.446779,44.0535461 16.3969672,44.023659 16.3571178,43.8642613 C16.2973437,43.6251647 16.2873813,43.6152023 16.0084353,43.7646377 C15.8291129,43.8642613 15.7693387,43.8343742 15.5601292,43.5653905 C15.4007315,43.3661434 15.2313714,43.2565574 15.0620113,43.2565574 C14.8129524,43.2565574 14.8129524,43.2565574 14.9823124,42.9975361 C15.1217855,42.7883266 15.1317478,42.7185901 15.0221619,42.6488536 C14.9125759,42.5890795 14.9225383,42.4994182 15.0620113,42.2005475 C15.1616349,42.0013004 15.221409,41.8120156 15.191522,41.7821285 C15.1018607,41.7024296 14.6535546,42.0411498 14.4642698,42.3200958 C14.3247968,42.5392677 14.2849474,42.54923 14.2152109,42.4197194 C14.1653991,42.3300582 14.1653991,42.1905852 14.2251733,42.0710369 C14.3148345,41.9116391 14.2849474,41.851865 14.0060014,41.6924673 C13.8366413,41.5828813 13.5377706,41.4434083 13.3484858,41.3836342 C13.0595774,41.2840106 12.9898409,41.2840106 12.880255,41.4434083 C12.7607067,41.602806 12.7308196,41.5928437 12.4817606,41.2840106 C12.2625888,41.0050646 12.1729276,40.9652151 11.9437933,41.0150269 C11.6249979,41.0847634 11.4456754,40.8755539 11.4456754,40.4372102 C11.4456754,40.2479254 11.5154119,40.1781889 11.7744332,40.09849 L12.0932287,40.0088288 L11.824245,39.8295064 C11.5054496,39.6202968 10.0907948,39.2417273 9.95132177,39.3214261 C9.89154762,39.3612755 9.85169819,39.4708615 9.85169819,39.5904098 C9.85169819,39.7398451 9.90150998,39.7796946 10.0509453,39.7398451 C10.2103431,39.6999957 10.2501925,39.7398451 10.2501925,39.959017 C10.2501925,40.3176619 10.5092138,40.6763068 10.6387245,40.4770596 C10.7682351,40.2877748 10.9475575,40.4372102 10.9475575,40.7360809 C10.9475575,40.9951022 10.877821,41.0050646 10.4295149,40.8157798 C10.2800796,40.7560056 10.2501925,40.7958551 10.2501925,41.0847634 C10.2501925,41.5330695 10.3000043,41.572919 10.6984986,41.4035589 C11.1567671,41.2142741 11.2763154,41.2242364 11.1966165,41.4533707 C11.12688,41.6825049 11.6548849,42.1606981 11.9836428,42.1606981 C12.3024382,42.1606981 12.4817606,42.3599452 12.2825135,42.4994182 C12.1629652,42.5890795 12.1530028,42.6986654 12.2227393,43.0174608 C12.3124006,43.4159552 12.3024382,43.4259175 11.933831,43.635127 C11.4656002,43.9041107 11.12688,43.9041107 10.5590256,43.6550517 C10.319929,43.5454658 10.0509453,43.4558046 9.96128413,43.4458422 C9.85169819,43.4458422 9.84173583,43.4259175 9.93139705,43.3860681 C10.0310206,43.3462187 10.0210583,43.2964069 9.89154762,43.1469715 C9.66241339,42.8879502 9.57275217,42.9078749 9.63252632,43.2067456 C9.69230047,43.5155787 9.50301567,43.5355034 9.34361795,43.2366327 C9.14437079,42.8481008 8.84550006,42.5691547 8.54662932,42.5093806 C8.32745745,42.4595688 8.25772095,42.3898323 8.25772095,42.2105099 C8.25772095,41.7223543 8.17802209,41.6625802 7.47069468,41.6625802 C7.05227566,41.6526178 6.74344257,41.602806 6.62389427,41.5131448 C6.37483533,41.32386 6.26524939,41.32386 6.26524939,41.5131448 C6.26524939,41.7622038 6.09588931,41.6825049 5.87671744,41.3138977 C5.74720679,41.0947258 5.59777142,40.9652151 5.46826077,40.9652151 C5.35867484,40.9652151 5.26901362,40.905441 5.26901362,40.8456669 C5.26901362,40.6364573 5.78705622,40.6663444 6.08592696,40.8855163 C6.24532468,40.9951022 6.66374371,41.1246129 7.03235094,41.1744247 C7.59024298,41.2541235 7.70979127,41.2441612 7.77952778,41.1146505 C7.82933956,41.0349516 7.9389255,40.9652151 8.03854908,40.9652151 C8.14813501,40.9652151 8.05847379,40.8257421 7.75960306,40.516909 C7.52050647,40.2778125 7.29137225,40.09849 7.25152281,40.1283771 C7.11204981,40.208076 7.0423133,39.959017 7.16186159,39.819544 C7.31129696,39.6402216 7.22163574,39.3712379 7.02238859,39.3712379 C6.94268972,39.3712379 6.86299086,39.4509368 6.83310379,39.5505603 C6.79325436,39.6999957 6.783292,39.6999957 6.71355549,39.5306356 C6.65378135,39.401125 6.67370606,39.3214261 6.74344257,39.291539 C6.92276501,39.2317649 6.783292,39.0723672 6.55415777,39.0723672 C6.39476005,39.0723672 6.36487297,39.012593 6.38479769,38.733647 C6.39476005,38.4746257 6.32502354,38.3052656 6.08592696,38.036282 C5.90660452,37.8370348 5.76713151,37.6278253 5.76713151,37.5780135 C5.76713151,37.5282017 5.65754557,37.4584652 5.51807256,37.4186158 C5.26901362,37.3588416 5.09965354,37.0101591 5.15942768,36.6614766 C5.16939004,36.561853 5.12954061,36.4821541 5.0598041,36.4821541 C4.9900676,36.4821541 4.97014288,36.3825306 4.9900676,36.2330952 C5.02991703,36.0637351 4.9900676,35.9441868 4.88048167,35.8744503 C4.75097101,35.7947515 4.76093337,35.7847891 4.96018053,35.8047138 C5.12954061,35.8246385 5.22916419,35.9242621 5.30886305,36.1633587 C5.4383737,36.5518907 5.60773378,36.6814013 5.99626574,36.6814013 C6.19551289,36.6814013 6.26524939,36.7312131 6.26524939,36.8806485 C6.26524939,36.9902344 6.32502354,37.0798956 6.39476005,37.0798956 C6.47445891,37.0798956 6.71355549,37.2094063 6.93272737,37.368804 C7.36110875,37.6776371 7.46073233,37.6776371 7.46073233,37.3389169 C7.45076997,37.0599709 7.11204981,36.6116648 7.02238859,36.7710625 C6.98253915,36.8308367 6.83310379,36.8806485 6.68366842,36.8806485 L6.41468476,36.8806485 L6.63385663,36.701326 L6.86299086,36.5319659 L6.5940072,36.5120412 C6.35491061,36.5020789 6.06600224,36.2629823 6.06600224,36.0736975 C6.06600224,36.0438104 6.25528704,35.9840363 6.49438362,35.9641115 C6.73348021,35.9342245 7.05227566,35.8346009 7.19174867,35.7349773 C7.45076997,35.5656172 7.46073233,35.5456925 7.3013346,35.3763324 C7.19174867,35.2567841 7.16186159,35.1073488 7.20171103,34.9479511 C7.26148517,34.7088545 7.24156046,34.7088545 6.91280265,34.7586663 C6.68366842,34.7985157 6.56412013,34.778591 6.56412013,34.6988921 C6.56412013,34.639118 6.63385663,34.5893062 6.71355549,34.5893062 C6.84306615,34.5893062 6.83310379,34.529532 6.66374371,34.1908119 C6.55415777,33.9816023 6.37483533,33.7524681 6.26524939,33.692694 C6.15566346,33.6329198 6.06600224,33.5034092 6.06600224,33.3938232 C6.06600224,33.2842373 5.94645395,33.1348019 5.79701858,33.0551031 C5.59777142,32.9455171 5.56788435,32.9056677 5.697395,32.8957054 C5.91656687,32.8957054 5.91656687,32.7661947 5.68743264,32.5569852 C5.5081102,32.4075498 5.48818549,32.4075498 5.30886305,32.606797 C5.11957825,32.8160065 5.11957825,32.8160065 5.39852427,33.0551031 C5.697395,33.3141244 5.67747029,33.4934468 5.35867484,33.4934468 C5.22916419,33.4934468 5.09965354,33.3539738 4.95021817,33.0451407 C4.83066988,32.7960818 4.70115923,32.5968346 4.66130979,32.5968346 C4.62146036,32.5968346 4.49194971,32.4374369 4.37240142,32.2581145 C4.25285313,32.0489049 4.10341776,31.9293566 4.03368125,31.9592437 C3.95398239,31.9891308 3.86432117,31.9592437 3.82447174,31.8994696 C3.77465995,31.8197707 3.71488581,31.8197707 3.61526223,31.9094319 C3.53556337,31.9692061 3.39609036,31.9990932 3.28650442,31.9692061 C3.13706906,31.9293566 3.07729491,32.0090555 2.97767133,32.357738 C2.90793483,32.5968346 2.81827361,32.7960818 2.77842418,32.7960818 C2.62898881,32.7960818 2.37992987,32.4175122 2.37992987,32.1784156 C2.37992987,31.8695825 3.06733255,31.2021045 3.39609036,31.2021045 C3.59533751,31.2021045 3.59533751,31.1921422 3.44590215,31.0227821 C3.34627857,30.9231585 3.27654206,30.7637608 3.27654206,30.6740996 C3.27654206,30.3951536 2.82823596,30.4648901 2.62898881,30.7637608 L2.45962873,31.0227821 L2.28030629,30.7239114 C2.18068271,30.5645136 2.05117206,30.3951536 1.99139791,30.3652665 C1.93162377,30.325417 1.88181198,30.1759817 1.88181198,30.0265463 C1.87184962,29.8771109 1.81207547,29.6479767 1.73237661,29.5085037 C1.65267775,29.3690307 1.5929036,29.0601976 1.5929036,28.8111387 C1.5929036,28.4624561 1.61282832,28.402682 1.69252718,28.542155 C1.77222604,28.681628 1.83200019,28.6915904 1.99139791,28.6019292 C2.25041921,28.4624561 2.49947816,28.5620797 2.45962873,28.7812516 C2.43970401,28.9207246 2.50944052,28.9705364 2.80831125,28.9904611 C3.01752076,29.0103858 3.17691849,28.9804987 3.17691849,28.9207246 C3.17691849,28.8609505 3.07729491,28.8011763 2.95774662,28.8011763 C2.76846182,28.791214 2.78838653,28.7712892 3.02748312,28.7115151 C3.1968432,28.6716657 3.50567629,28.6218539 3.72484816,28.6118915 C4.05360597,28.5820044 4.07353069,28.5720421 3.84439646,28.542155 C3.68499873,28.5122679 3.54552572,28.4226067 3.51563865,28.3329455 C3.48575158,28.2432843 3.41601507,28.0838866 3.36620328,27.9743006 C3.28650442,27.8348276 3.30642914,27.7451664 3.46582686,27.5758063 C3.58537516,27.456258 3.67503637,27.2470485 3.67503637,27.1275002 C3.67503637,26.928253 3.65511166,26.9083283 3.51563865,27.0278766 C3.43593979,27.0976131 3.386128,27.2370861 3.41601507,27.3466721 C3.4558645,27.5259945 3.41601507,27.5359569 2.96770897,27.4961074 C2.49947816,27.4462957 2.45962873,27.4662204 2.36996751,27.705317 C2.24045686,28.0241124 2.11094621,28.1137736 1.72241425,28.1137736 C1.37373173,28.1137736 1.24422108,27.9942253 1.1445975,27.5758063 L1.074861,27.2868979 L1.42354352,27.5558816 L1.77222604,27.8149029 L1.94158612,27.4961074 C2.03124734,27.316785 2.15079564,27.1374626 2.20060743,27.1075755 C2.26038157,27.0677261 2.300231,26.8884036 2.31019336,26.6891565 C2.32015572,26.4400975 2.36996751,26.3205492 2.49947816,26.2906622 C2.71865003,26.230888 2.72861239,25.9917914 2.52936523,25.8224313 C2.33011808,25.6530713 2.34008043,25.5534477 2.61902645,25.0154804 C2.73857474,24.7564591 2.87804775,24.447626 2.90793483,24.3280777 C2.94778426,24.1786423 3.01752076,24.1188682 3.10718198,24.1587176 C3.3163915,24.2384165 3.25661735,23.9793951 3.0075584,23.7104115 C2.89797247,23.5809008 2.76846182,23.3816537 2.72861239,23.2621054 C2.6788006,23.0728206 2.70868767,23.0329712 2.8680854,23.0329712 C3.15699377,23.0329712 3.13706906,22.694251 2.83819832,22.554778 C2.63895117,22.4651168 2.58913938,22.4850415 2.47955344,22.6842886 C2.40981694,22.8137993 2.37992987,22.9931217 2.40981694,23.0728206 C2.45962873,23.1923689 2.40981694,23.2122936 2.19064507,23.1724442 C2.03124734,23.1325947 1.87184962,23.1624818 1.84196255,23.222256 C1.60286596,23.6008256 1.28407051,23.0030841 1.50324238,22.6045898 C1.60286596,22.415305 1.63275303,22.4053426 1.66264011,22.5647403 C1.71245189,22.7839122 1.81207547,22.7839122 2.02128499,22.5448156 C2.12090856,22.4352297 2.32015572,22.305719 2.47955344,22.2359825 C2.70868767,22.136359 2.80831125,22.1463213 3.01752076,22.2857943 C3.26657971,22.4551544 3.29646678,22.4551544 3.47578922,22.2857943 C3.67503637,22.1064719 3.67503637,22.1064719 3.46582686,21.8773377 L3.24665499,21.6482034 L3.54552572,21.3094833 C4.06356833,20.7117418 4.06356833,20.0940756 3.53556337,19.2671999 C3.37616564,19.0081786 3.1968432,18.8487809 3.07729491,18.8487809 C2.83819832,18.8487809 2.32015572,18.3805501 2.2304945,18.0816794 C2.14083328,17.7529215 2.4895158,17.4540508 2.97767133,17.4540508 C3.3163915,17.4540508 3.39609036,17.4142014 3.47578922,17.1950295 C3.61526223,16.846347 3.62522459,16.8563093 3.18688084,16.8563093 C2.83819832,16.8563093 2.78838653,16.8264223 2.68876296,16.5474763 C2.54928995,16.1290572 2.53932759,16.1489819 2.82823596,16.2187184 C2.97767133,16.2585679 3.14703141,16.2286808 3.22673028,16.1589443 C3.34627857,16.0593207 3.40605272,16.0593207 3.52560101,16.1589443 C3.61526223,16.2286808 3.69496109,16.2685302 3.71488581,16.2486055 C3.8344341,16.1091325 4.05360597,15.5811276 4.00379418,15.5313158 C3.97390711,15.5014287 4.04364361,15.3519933 4.16319191,15.202558 L4.38236378,14.9236119 L4.11338012,14.7144024 C3.86432117,14.5151553 3.85435881,14.4952306 4.00379418,14.1365857 C4.15322955,13.7779408 4.16319191,13.7779408 4.48198735,13.8875267 C4.75097101,13.9771879 4.82070752,13.9771879 4.86055695,13.8576397 C4.88048167,13.7779408 5.0598041,13.5786936 5.2490889,13.3993712 L5.58780907,13.0905381 L5.32878776,12.921178 C5.0598041,12.7418556 4.9900676,12.5326461 5.16939004,12.4230601 C5.32878776,12.3234366 5.66750793,12.4728719 5.66750793,12.6322697 C5.66750793,12.8713662 5.84683037,12.7916674 6.12577639,12.4230601 C6.39476005,12.0743776 6.5940072,12.0046411 6.86299086,12.1740012 C6.98253915,12.2437377 6.9725768,12.3035118 6.77332964,12.5127214 C6.5940072,12.7020062 6.55415777,12.8315168 6.5940072,13.0905381 C6.62389427,13.2698605 6.5940072,13.6085807 6.53423305,13.8377149 C6.44457183,14.1863975 6.45453419,14.3258705 6.58404484,14.6048165 C6.73348021,14.9136496 6.73348021,14.9634614 6.5940072,15.0730473 C6.51430834,15.1527462 6.24532468,15.2125203 6.00622809,15.2125203 C5.56788435,15.2125203 5.56788435,15.2125203 5.56788435,15.5811276 C5.56788435,15.7803747 5.61769614,15.9796219 5.66750793,16.0095089 C5.72728208,16.039396 5.76713151,16.1987937 5.76713151,16.3681538 C5.76713151,16.6072504 5.80698094,16.6570622 6.01619045,16.6570622 C6.18555053,16.6570622 6.3349859,16.5574386 6.48442127,16.3083797 C6.74344257,15.9098854 6.81317907,15.8899606 6.96261444,16.1489819 C7.18178631,16.567401 6.77332964,16.8563093 5.96637866,16.8563093 C5.51807256,16.8563093 5.45829842,16.8861964 5.31882541,17.1551801 C5.22916419,17.3245402 5.12954061,17.4540508 5.08969118,17.4540508 C5.03987939,17.4540508 4.9203311,17.513825 4.81074516,17.5935238 C4.63142272,17.7329968 4.63142272,17.7429592 4.90040638,18.0318676 C5.08969118,18.2311147 5.2490889,18.3108136 5.37859955,18.2809265 C5.51807256,18.2410771 5.56788435,18.2809265 5.56788435,18.4303619 C5.56788435,18.8089315 5.34871248,19.1476516 5.10961589,19.1476516 C4.83066988,19.1476516 4.39232613,19.7055437 4.55172386,19.8649414 C4.62146036,19.9346779 4.59157329,20.0243391 4.46206264,20.1538498 C4.15322955,20.4626829 4.25285313,21.5983916 4.61149801,21.7378647 C4.7310463,21.7876764 4.78085809,21.8275259 4.72108394,21.8275259 C4.67127215,21.8374882 4.7310463,21.9072247 4.85059459,21.996886 C5.1793524,22.2260202 5.11957825,22.4651168 4.68123451,22.7141757 C4.38236378,22.8835358 4.30266491,22.9931217 4.29270256,23.2023312 C4.29270256,23.361729 4.26281548,23.6107879 4.22296605,23.7701856 C4.14326719,24.059094 4.15322955,24.059094 4.48198735,23.9893575 C4.66130979,23.9594704 4.83066988,23.8897339 4.87051931,23.8399221 C4.90040638,23.8000727 5.00999232,23.7303362 5.11957825,23.6904868 C5.30886305,23.640675 5.31882541,23.6805244 5.33875012,24.2284541 C5.34871248,24.6070237 5.29890069,24.8560826 5.21920183,24.9258191 C5.10961589,25.0154804 5.13950297,25.1350287 5.39852427,25.533523 C5.8169433,26.2109633 5.86675508,26.9481778 5.51807256,27.316785 C5.30886305,27.5359569 5.28893833,27.6156557 5.3686372,27.9543759 C5.41844898,28.1735478 5.56788435,28.4624561 5.71731972,28.6019292 C5.9564163,28.8410257 5.98630338,28.8509881 6.0759646,28.6915904 C6.21543761,28.4425314 6.4047224,28.4624561 6.26524939,28.7015527 C6.18555053,28.8709128 6.21543761,28.9406493 6.51430834,29.1598212 C6.80321671,29.3889554 6.84306615,29.4686543 6.79325436,29.7177132 C6.72351785,30.0763581 6.93272737,30.185944 7.37107111,30.0066216 C7.69982891,29.8671486 7.84926428,29.9269227 7.6799042,30.1361323 C7.59024298,30.2457182 7.62013005,30.325417 7.80941485,30.5047395 C7.94888786,30.6342501 8.05847379,30.8135726 8.05847379,30.9131962 C8.05847379,31.2618787 8.17802209,31.4013517 8.46693046,31.4013517 C8.79568827,31.4013517 8.81561298,31.5009753 8.61636583,32.078792 C8.48685518,32.4374369 8.48685518,32.497211 8.61636583,32.606797 C8.74587648,32.7163829 8.72595176,32.7562323 8.43704339,32.9056677 C7.99869965,33.1447643 7.95885022,33.1348019 7.95885022,32.8259688 C7.95885022,32.6665711 7.869189,32.4175122 7.75960306,32.2481521 C7.58028062,31.9791684 7.58028062,31.939319 7.72971599,31.7799213 C7.87915135,31.6105612 7.87915135,31.6005988 7.68986656,31.6005988 C7.57031826,31.6005988 7.4208829,31.4710882 7.3013346,31.2519163 C7.13197452,30.9331209 7.10208745,30.9131962 6.99250151,31.0725939 C6.72351785,31.4312388 6.89287793,31.8895072 7.3013346,31.9094319 C7.50058176,31.9094319 7.50058176,31.9193943 7.29137225,31.9990932 C7.11204981,32.078792 7.06223802,32.1684532 7.06223802,32.4772863 C7.06223802,32.8160065 7.13197452,32.9355548 7.5603559,33.3639362 C7.94888786,33.7524681 8.03854908,33.9019035 7.98873729,34.0812259 C7.94888786,34.2605484 7.98873729,34.3601719 8.16805973,34.499645 C8.47689282,34.7387415 8.5765164,34.7387415 8.89531185,34.4797202 C9.10452136,34.3103602 9.13440843,34.2406237 9.05470957,34.0812259 C8.99493542,33.9816023 8.89531185,33.8919411 8.82557534,33.8919411 C8.74587648,33.8919411 8.69606469,33.7524681 8.68610233,33.5432586 C8.67613997,33.3539738 8.70602705,33.1945761 8.74587648,33.1945761 C8.78572591,33.1945761 8.96504835,33.3440115 9.14437079,33.5332962 C9.32369323,33.722581 9.57275217,33.9019035 9.70226283,33.9317906 C9.88158526,33.9816023 9.9214347,34.0513389 9.9214347,34.4199461 C9.9214347,34.7985157 9.97124648,34.9081016 10.319929,35.2567841 C10.6885362,35.6253914 10.738348,35.6552785 10.8877834,35.5058431 C11.0272564,35.3564077 11.0571435,35.3663701 11.2464283,35.5656172 C11.3659766,35.6851655 11.5154119,35.7847891 11.5951108,35.7847891 C11.684772,35.7847891 11.7445462,35.8844127 11.7445462,36.033848 C11.7445462,36.1832834 11.8142827,36.42238 11.8939815,36.5817777 C12.0832663,36.950385 11.963718,36.9703097 11.6449226,36.6315895 L11.405826,36.3725682 L11.3261271,36.5917401 C11.2165412,36.8906108 11.4855249,37.3090298 11.7345838,37.229331 C11.8342074,37.1994439 11.9736804,37.2392933 12.0434169,37.3389169 C12.1629652,37.4783899 12.1928523,37.4684276 12.3422876,37.2691804 L12.5116477,37.0500085 L12.7308196,37.2691804 C13.0396527,37.5780135 12.9998032,37.7772607 12.6411584,37.7772607 C12.4817606,37.7772607 12.3422876,37.7971854 12.3422876,37.8171101 C12.3422876,37.8469972 12.4518736,38.0761314 12.5913466,38.3351527 C12.7308196,38.594174 12.8404055,38.8631577 12.8404055,38.9229318 C12.8404055,38.9926683 12.910142,39.0723672 12.9898409,39.1122166 C13.2488622,39.2118402 13.1492386,39.431012 12.7507443,39.6501839 C12.5415348,39.7697322 12.3124006,39.9390923 12.2327017,40.0287535 C12.1629652,40.1184147 12.0035675,40.2280007 11.8740568,40.2778125 C11.5751861,40.3873984 11.5851484,40.5467961 11.8939815,40.6862691 C12.212777,40.8357045 12.5913466,40.5866456 12.6710454,40.1781889 C12.7607067,39.7597699 13.0994268,39.6900334 13.7868295,39.9490547 C14.3148345,40.1582642 14.5539311,40.0885277 14.1255497,39.8693558 C13.9860767,39.7896569 13.9462272,39.6999957 13.9860767,39.5904098 C14.0259261,39.5007486 14.0657755,39.3712379 14.0657755,39.3015014 C14.0657755,39.2317649 14.105625,39.2018778 14.1454744,39.2317649 C14.1853238,39.2516896 14.2650227,39.2018778 14.3247968,39.1022542 C14.414458,38.9328942 14.4244204,38.9328942 14.6137052,39.1022542 C14.7232911,39.2018778 14.8727265,39.2716143 14.9524254,39.2516896 C15.0321242,39.2317649 15.2413337,39.3911626 15.4206562,39.6003721 C15.6796775,39.8892805 15.7294893,39.9988664 15.6398281,40.1084524 C15.470468,40.3176619 15.6597528,40.3973608 15.9785482,40.2479254 C16.2076824,40.1483018 16.2574942,40.1483018 16.3471555,40.3076995 C16.416892,40.4372102 16.4766661,40.4571349 16.586252,40.3575113 C16.7456498,40.2280007 17.0744076,40.3176619 16.974784,40.4571349 C16.9448969,40.516909 17.0046711,40.6065703 17.114257,40.6663444 C17.2437677,40.7261186 17.2935794,40.8257421 17.25373,40.9253657 C17.2039182,41.0648387 17.2238429,41.0748011 17.4131277,40.9652151 C17.5426384,40.905441 17.7119985,40.8755539 17.7916973,40.905441 C17.8813586,40.9452904 18.0307939,40.905441 18.1204551,40.8157798 C18.2698905,40.6763068 18.3296647,40.6763068 18.6384977,40.8058174 C19.1067286,41.0050646 19.2661263,41.2043117 19.0768415,41.3537471 C18.9871803,41.4234836 18.8377449,41.4533707 18.7082342,41.4135212 C18.5587989,41.3637095 18.5089871,41.3836342 18.5388742,41.4732954 C18.5687612,41.5529943 18.8178202,41.6526178 19.1266533,41.6924673 C20.0332278,41.8319403 20.093002,41.851865 20.4416845,42.1905852 C20.7106682,42.4396441 20.8302165,42.4894559 20.9497647,42.409757 C21.069313,42.3400205 21.1390495,42.3699076 21.2585978,42.5392677 C21.457845,42.8082513 21.6072804,42.828176 21.6072804,42.5691547 C21.6072804,42.4396441 21.6969416,42.3599452 21.9360382,42.3200958 C22.4540808,42.2204722 22.7330268,41.9813756 22.683215,41.6625802 C22.6533279,41.4434083 22.683215,41.3736718 22.8426127,41.3338224 C22.962161,41.3138977 23.1315211,41.2541235 23.2311447,41.2142741 C23.3905424,41.1445376 23.4104671,41.1943494 23.38058,41.6725425 L23.350693,42.2105099 L24.4166652,42.2105099 C24.994482,42.2105099 25.5125246,42.2403969 25.552374,42.2902087 C25.6818847,42.4197194 26.4390239,42.3599452 26.6681581,42.2005475 C26.8474805,42.0809992 26.8674053,42.0112627 26.7877064,41.851865 C26.7080075,41.7024296 26.7179699,41.6625802 26.8175935,41.6625802 C26.8972923,41.6625802 26.9869536,41.7522414 27.0168406,41.8717897 C27.0666524,42.0511121 27.1164642,42.0710369 27.5249209,42.0112627 C28.0130764,41.9315638 28.3318719,42.0809992 28.2422106,42.3200958 C28.2123236,42.3898323 28.3418342,42.5392677 28.5211567,42.6488536 C28.7004791,42.7584395 28.8997262,42.9676491 28.9595004,43.1071221 C29.059124,43.3262939 29.0391993,43.3960304 28.7602532,43.7148259 C28.4514201,44.0635084 28.4215331,44.0734708 27.9134528,44.0136966 C27.3555608,43.9539225 25.9508683,44.2029814 26.0405296,44.3424544 C26.0604543,44.3922662 25.9807554,44.4022286 25.8612071,44.3823039 C25.7117718,44.3524168 25.5025622,44.442078 25.2535033,44.6413252 C24.8848961,44.9302335 23.9384721,45.3486526 23.6396013,45.3486526 C23.5599025,45.3486526 23.5001283,45.4183891 23.5200531,45.5080503 C23.5599025,45.7571092 23.3307683,45.7869963 23.2012576,45.5578621 Z M16.1479083,41.4434083 C16.4069296,41.2640859 16.6261015,41.0847634 16.6261015,41.0548764 C16.6261015,40.905441 16.277419,40.8655916 16.1777954,40.9951022 C16.0881342,41.1246129 16.0383224,41.0947258 15.9088117,40.8556292 C15.7095646,40.5069467 15.2811832,40.4571349 15.1815596,40.765968 C15.1317478,40.9353281 15.4903927,41.7622038 15.6199033,41.7622038 C15.6497904,41.7622038 15.8789246,41.6127684 16.1479083,41.4434083 Z M9.75207461,40.0686029 C9.75207461,40.0187912 9.67237575,39.9689794 9.58271453,39.9689794 C9.43327917,39.9689794 9.42331681,39.9889041 9.55282746,40.0686029 C9.74211226,40.1881512 9.75207461,40.1881512 9.75207461,40.0686029 Z M9.32369323,39.4110873 C9.39342973,39.2317649 9.21410729,39.0225554 9.07463429,39.1122166 C8.95508599,39.1819531 9.03478485,39.5704851 9.16429551,39.5704851 C9.22406965,39.5704851 9.2838438,39.5007486 9.32369323,39.4110873 Z M8.25772095,38.3949268 C8.25772095,38.2953033 8.14813501,38.1060185 8.008662,37.9765078 C7.78949013,37.7772607 7.75960306,37.7672983 7.69982891,37.9167337 C7.62013005,38.1159808 7.90903843,38.5742493 8.10828558,38.5742493 C8.18798444,38.5742493 8.25772095,38.4945504 8.25772095,38.3949268 Z M6.22539996,37.3986911 C6.1457011,37.2392933 6.00622809,37.0599709 5.92652923,36.9902344 C5.66750793,36.7710625 5.72728208,37.1795192 5.99626574,37.4485029 C6.30509883,37.7473736 6.39476005,37.7274489 6.22539996,37.3986911 Z M10.0110959,35.8047138 C9.79192405,35.754902 9.71222518,35.8346009 9.8018864,35.9840363 C9.85169819,36.0637351 9.91147234,36.0537728 10.0210583,35.9641115 C10.1704936,35.8445633 10.1605313,35.8346009 10.0110959,35.8047138 Z M9.5428651,35.1471982 C9.69230047,34.9678758 9.60263925,34.918064 9.04474721,34.8284028 C8.63629054,34.7586663 8.61636583,34.7686286 8.75583884,34.9280263 C8.88534949,35.0874241 9.18422022,35.2667465 9.36354266,35.2767089 C9.40339209,35.2866712 9.48309095,35.2268971 9.5428651,35.1471982 Z M4.52183679,29.7077509 C4.70115923,29.5184661 4.69119687,29.5085037 4.49194971,29.5085037 C4.34251435,29.5085037 4.27277784,29.5682779 4.27277784,29.7077509 C4.27277784,29.8173368 4.29270256,29.906998 4.30266491,29.906998 C4.32258963,29.906998 4.42221321,29.8173368 4.52183679,29.7077509 Z M3.72484816,29.5085037 C3.63518694,29.349106 3.52560101,29.209633 3.47578922,29.209633 C3.3163915,29.209633 3.24665499,29.4288048 3.37616564,29.5085037 C3.44590215,29.5483531 3.46582686,29.6380144 3.43593979,29.6977885 C3.386128,29.767525 3.4558645,29.8073744 3.62522459,29.8073744 C3.87428353,29.8073744 3.87428353,29.8073744 3.72484816,29.5085037 Z M3.65511166,24.0092822 C3.8344341,23.8299598 3.80454703,23.6506373 3.56545044,23.5211267 C3.28650442,23.3716913 3.15699377,23.5609761 3.3163915,23.8897339 C3.44590215,24.1587176 3.48575158,24.1786423 3.65511166,24.0092822 Z M4.37240142,14.2660963 C4.37240142,14.2162845 4.3524767,14.1664727 4.33255199,14.1664727 C4.30266491,14.1664727 4.25285313,14.2162845 4.22296605,14.2660963 C4.19307898,14.3258705 4.21300369,14.3657199 4.26281548,14.3657199 C4.32258963,14.3657199 4.37240142,14.3258705 4.37240142,14.2660963 Z" id="Shape"></path>
                <path d="M10.6686115,45.3586149 C10.4394773,45.2689537 10.1704936,45.109556 10.0708701,45.0198948 C9.9214347,44.860497 9.9214347,44.83061 10.0509453,44.7409487 C10.2103431,44.6413252 10.319929,44.6512875 11.1866541,44.8903841 C11.8541321,45.0697065 12.0434169,45.1892548 11.8840192,45.3486526 C11.6947344,45.5379374 11.1069553,45.5379374 10.6686115,45.3586149 Z" id="Path"></path>
                <path d="M21.8065275,45.3486526 C21.8065275,45.2988408 21.8563393,45.249029 21.9161134,45.249029 C21.9659252,45.249029 21.98585,45.2988408 21.9559629,45.3486526 C21.9260758,45.4084267 21.876264,45.4482761 21.8463769,45.4482761 C21.8264522,45.4482761 21.8065275,45.4084267 21.8065275,45.3486526 Z" id="Path"></path>
                <path d="M31.509864,44.9900077 C31.5397511,44.9003465 31.5696381,44.8106852 31.5696381,44.7907605 C31.5696381,44.6612499 31.7589229,44.7807982 31.7987724,44.9501583 C31.8386218,45.0995936 31.7987724,45.1494054 31.649337,45.1494054 C31.509864,45.1494054 31.4700145,45.0995936 31.509864,44.9900077 Z" id="Path"></path>
                <path d="M32.2869279,44.9302335 C32.316815,44.860497 32.4363633,44.7807982 32.5658739,44.7708358 C32.7750834,44.7409487 32.7850458,44.7509111 32.6754598,44.8903841 C32.5160621,45.0796689 32.2371161,45.0995936 32.2869279,44.9302335 Z" id="Path"></path>
                <path d="M28.7502909,44.442078 C28.3418342,44.2229061 28.3418342,44.1133202 28.7502909,44.0037343 C28.9096886,43.9738472 29.1089358,43.8642613 29.2085593,43.7746 C29.3878818,43.6152023 29.4078065,43.6251647 29.6369407,43.884186 C29.9457738,44.2428309 29.9358115,44.3922662 29.6269784,44.5317392 C29.2882582,44.691137 29.198597,44.6811746 28.7502909,44.442078 Z" id="Path"></path>
                <path d="M30.8722731,44.4520404 C30.8722731,44.2428309 30.9519719,44.2129438 31.2109932,44.3125674 C31.3405039,44.3623791 31.3504663,44.4022286 31.260805,44.5118145 C31.091445,44.721024 30.8722731,44.6811746 30.8722731,44.4520404 Z" id="Path"></path>
                <path d="M32.3068526,44.2826803 C32.1474549,44.1133202 32.1474549,44.1033578 32.4463256,44.0136966 C32.7252716,43.9339978 32.7451963,43.9041107 32.6953846,43.6152023 C32.6555351,43.4458422 32.5658739,43.2465951 32.4961374,43.1668962 C32.2968902,42.9676491 32.4064762,42.9178373 32.7750834,43.0473479 C32.9544059,43.1071221 33.2433142,43.1569339 33.432599,43.1569339 C33.6218838,43.1569339 33.8609804,43.2067456 33.9705663,43.2665198 C34.1498888,43.356181 34.1299641,43.3860681 33.711545,43.6152023 C33.4624861,43.744713 33.1835401,43.8542989 33.1038412,43.8542989 C33.0241424,43.8542989 32.9045941,43.9937719 32.8547823,44.1531696 C32.735234,44.4918898 32.5559115,44.5317392 32.3068526,44.2826803 Z" id="Path"></path>
                <path d="M37.3677303,43.9439601 C37.1983703,43.8244118 37.0489349,43.6949012 37.0489349,43.6550517 C37.0489349,43.5056164 37.5669775,43.2366327 37.8957353,43.2266704 C38.0949825,43.216708 38.2045684,43.1668962 38.1746813,43.0871974 C38.0650954,42.8182137 38.8421593,41.8618273 39.1709171,41.8618273 C39.2406536,41.8618273 39.5793738,41.7223543 39.9180939,41.5629566 C40.2667765,41.3935965 40.615459,41.2640859 40.6851955,41.2640859 C40.7648943,41.2640859 40.8246685,41.4135212 40.8545556,41.6526178 C40.8844426,41.9813756 40.8346309,42.0909616 40.4859483,42.4794935 C40.2368894,42.7684019 39.9380187,42.9776114 39.6889597,43.0573103 C39.4697878,43.1270468 39.1011806,43.2864445 38.8720464,43.4159552 C38.6429121,43.5454658 38.4038156,43.6550517 38.3340791,43.6550517 C38.2643425,43.6550517 38.0949825,43.7646377 37.9455471,43.9041107 L37.6964882,44.1432073 L37.3677303,43.9439601 Z" id="Path"></path>
                <path d="M31.0515955,43.9838095 C30.8324237,43.9240354 30.8224613,43.7945248 31.0316708,43.7148259 C31.2906921,43.6152023 31.370391,43.6450894 31.370391,43.8542989 C31.370391,44.0535461 31.3504663,44.0635084 31.0515955,43.9838095 Z" id="Path"></path>
                <path d="M34.7575926,43.5753529 C34.7575926,43.4657669 34.6181196,43.3262939 34.3989477,43.2266704 C34.1299641,43.0971597 34.0602276,43.0074985 34.1100394,42.8779878 C34.1399264,42.7883266 34.1997006,42.5890795 34.2295877,42.4296817 C34.2694371,42.2105099 34.3092865,42.1806228 34.4188724,42.270284 C34.5782702,42.3997947 34.7874797,42.270284 35.2756352,41.7223543 C35.5246942,41.4533707 35.574506,41.433446 35.8933014,41.5330695 C36.2120968,41.6326931 36.2519463,41.6227308 36.4213064,41.3736718 C36.5109676,41.2341988 36.5807041,41.0548764 36.5707417,40.9751775 C36.5408547,40.8755539 36.6404782,40.8556292 37.0290102,40.9154034 L37.5271281,40.9851399 L37.7064505,40.5966079 C37.8558859,40.3076995 37.9754342,40.208076 38.2244931,40.1582642 C38.4237403,40.1184147 38.6727992,39.959017 38.8222346,39.7697322 L39.0912182,39.4608991 L39.3801266,39.7597699 L39.6789974,40.0686029 L39.4498631,40.7460433 L39.2306913,41.4135212 L37.9853965,42.2105099 C37.2979938,42.6488536 36.6404782,43.0971597 36.5209299,43.2067456 C36.2917957,43.4159552 35.3553341,43.7546753 34.9867268,43.7546753 C34.8273291,43.7546753 34.7575926,43.6949012 34.7575926,43.5753529 Z" id="Path"></path>
                <path d="M31.4999016,43.2864445 C31.5895628,43.1967833 31.6891864,43.1469715 31.7290359,43.1768586 C31.8286594,43.2764821 31.6692617,43.4558046 31.4899393,43.4558046 C31.3405039,43.4558046 31.3405039,43.4458422 31.4999016,43.2864445 Z" id="Path"></path>
                <path d="M29.4576183,43.2067456 C29.4277312,43.1768586 29.5373171,43.0174608 29.6967149,42.8580631 C29.9059244,42.6388913 30.035435,42.5791171 30.145021,42.6488536 C30.2745316,42.7185901 30.2346822,42.7783643 29.9557362,42.9975361 C29.5871289,43.2665198 29.5472795,43.2864445 29.4576183,43.2067456 Z" id="Path"></path>
                <path d="M12.5913466,42.7484772 C12.5016854,42.4894559 12.6909702,42.270284 12.8503679,42.4296817 C12.9699162,42.54923 12.880255,42.9576867 12.7407819,42.9576867 C12.6909702,42.9576867 12.6212337,42.8680255 12.5913466,42.7484772 Z" id="Path"></path>
                <path d="M32.7651211,41.2043117 L32.7651211,40.765968 L33.1935024,40.765968 C33.4226367,40.765968 33.711545,40.7360809 33.8410557,40.7061938 C34.3989477,40.5567585 33.711545,41.3537471 33.1237659,41.5330695 L32.7651211,41.6426555 L32.7651211,41.2043117 Z" id="Path"></path>
                <path d="M23.6993755,41.1744247 C23.6993755,41.0648387 24.0879074,40.9253657 24.1676063,40.9951022 C24.1974934,41.0249893 24.187531,41.0947258 24.1476816,41.1544999 C24.0679827,41.2840106 23.6993755,41.3039353 23.6993755,41.1744247 Z" id="Path"></path>
                <path d="M25.9907178,40.9652151 C25.9907178,40.9154034 26.0405296,40.8655916 26.0903414,40.8655916 C26.1501155,40.8655916 26.1899649,40.9154034 26.1899649,40.9652151 C26.1899649,41.0249893 26.1501155,41.0648387 26.0903414,41.0648387 C26.0405296,41.0648387 25.9907178,41.0249893 25.9907178,40.9652151 Z" id="Path"></path>
                <path d="M31.6792241,40.8257421 C31.2807298,40.4073231 31.5198263,40.1881512 31.9780948,40.5567585 C32.1873043,40.7261186 32.1972667,40.7560056 32.0478313,40.8954786 C31.9083583,41.044914 31.8784712,41.0349516 31.6792241,40.8257421 Z" id="Path"></path>
                <path d="M26.7179699,40.6364573 C26.7378946,40.5667208 26.8574429,40.4969843 26.9769912,40.487022 C27.2559372,40.4471725 27.1762384,40.6165326 26.88733,40.6962315 C26.747857,40.7261186 26.6880828,40.7061938 26.7179699,40.6364573 Z" id="Path"></path>
                <path d="M39.6491103,39.6701086 C39.5195996,39.4907862 39.3801266,39.3911626 39.3103901,39.431012 C39.2406536,39.4708615 39.2705407,39.4110873 39.3701643,39.3114638 C39.5494867,39.122179 39.5594491,39.122179 39.7487339,39.3612755 C39.9081316,39.5505603 40.0177175,39.9689794 39.9081316,39.9689794 C39.8882069,39.9689794 39.7786209,39.8295064 39.6491103,39.6701086 Z" id="Path"></path>
                <path d="M42.1297374,37.3887287 C42.1297374,37.3389169 42.0600009,37.2193686 41.9703396,37.1396698 C41.8308666,36.9902344 41.8507913,36.9404226 42.1895115,36.5319659 C42.4186457,36.2430576 42.5979682,36.1135469 42.6577423,36.1733211 C42.7175165,36.2330952 42.8569895,36.2231328 43.0462743,36.1633587 C43.4248439,36.0238857 43.5145051,36.1334716 43.2455214,36.4124176 C43.1259731,36.5419283 43.0263496,36.6913637 43.0263496,36.7511378 C43.0263496,36.9005732 42.4186457,37.4783899 42.259248,37.4783899 C42.1895115,37.4783899 42.1297374,37.4385405 42.1297374,37.3887287 Z" id="Path"></path>
                <path d="M44.1222089,35.894375 C43.9727735,35.6054667 43.9926983,35.585542 44.3712679,35.585542 C44.7797245,35.585542 44.819574,35.6951279 44.4708914,35.9242621 C44.2417572,36.0736975 44.2218325,36.0736975 44.1222089,35.894375 Z" id="Path"></path>
                <path d="M45.4671272,35.725015 C45.3675036,35.6453161 45.2081059,35.585542 45.1084823,35.585542 C45.0188211,35.585542 44.8693857,35.475956 44.7797245,35.336483 C44.6900633,35.19701 44.5306656,35.0874241 44.4210796,35.0874241 C44.2816066,35.0874241 44.2218325,35.0176876 44.2218325,34.8782145 C44.2218325,34.7686286 44.1720207,34.5893062 44.1222089,34.4797202 C44.0325477,34.3302849 44.0524724,34.2705107 44.1720207,34.2306613 C44.2716443,34.1908119 44.3015314,34.1011506 44.2716443,33.9816023 C44.2218325,33.8421293 44.2716443,33.7723928 44.4410044,33.7026563 C44.5904397,33.6428822 44.7199504,33.4834845 44.7896869,33.2443879 C44.8893105,32.9355548 44.8793481,32.885743 44.7597998,32.9355548 C44.680101,32.9654419 44.6203268,32.9255924 44.6203268,32.8359312 C44.6203268,32.7163829 44.680101,32.6864958 44.8693857,32.7363076 C45.1483318,32.8060441 45.4571649,32.5569852 45.6165626,32.1385662 C45.7062238,31.9193943 46.1644923,31.6105612 46.2541535,31.7101848 C46.2740782,31.7301095 46.2541535,31.9990932 46.214304,32.2979639 C46.1644923,32.6765335 46.1744546,32.8757806 46.2541535,32.9455171 C46.32389,33.0052913 46.3737018,33.4834845 46.3836641,34.2007742 L46.4035888,35.3663701 L46.0349816,35.615429 C45.7062238,35.8346009 45.6364873,35.8445633 45.4671272,35.725015 Z" id="Path"></path>
                <path d="M47.160728,35.0874241 C47.0611045,34.778591 47.6189965,31.4412011 47.7385448,31.6504106 C47.7883566,31.7400719 47.7983189,31.9592437 47.7684319,32.1286038 C47.7385448,32.3079262 47.7584695,32.606797 47.8082813,32.7960818 C47.9178672,33.164689 47.8580931,33.5731457 47.5293353,34.7188168 C47.3599752,35.3165583 47.2603516,35.4161819 47.160728,35.0874241 Z" id="Path"></path>
                <path d="M3.87428353,34.6988921 C3.73481052,34.4299084 3.74477288,34.390059 3.96394475,34.390059 C4.13330483,34.390059 4.27277784,34.5693815 4.27277784,34.7985157 C4.27277784,34.9678758 3.98386947,34.8881769 3.87428353,34.6988921 Z" id="Path"></path>
                <path d="M24.8388076,31.1329095 C23.6933445,30.7638159 22.8406109,30.0001738 22.3060614,28.8419833 C22.013332,28.1928876 21.9751499,27.9892497 22.0260594,27.1237887 C22.0642415,26.4237835 22.1787878,25.9783256 22.4078804,25.5201404 C22.7133372,24.9219541 23.5406161,24.0564931 24.1006203,23.7255816 C24.3297129,23.5983079 24.2915308,23.4073974 23.2351593,19.3855492 C22.6242456,17.0818957 22.1278783,15.0964263 22.1278783,14.9946074 C22.1278783,14.8800611 22.2169699,14.7527874 22.3315162,14.7146053 C22.4460625,14.6764232 24.1006203,14.6382411 26.0097254,14.6382411 C27.9188306,14.6382411 29.5733884,14.6764232 29.6879347,14.7146053 C29.802481,14.7527874 29.8915726,14.9055158 29.8915726,15.0455168 C29.8915726,15.1855179 29.4079326,17.1200778 28.8097463,19.3600945 C28.21156,21.5873838 27.7279201,23.4583068 27.7279201,23.5092163 C27.7279201,23.5728532 27.96974,23.7510363 28.2624695,23.9292194 C30.4006673,25.2401383 30.6170325,28.5619813 28.6697453,30.2674485 C27.6133738,31.2092737 26.1369991,31.5401853 24.8388076,31.1329095 Z" id="Path"></path>
                <path d="M2.08105913,34.4398708 C2.08105913,34.3601719 2.15079564,34.2904354 2.2304945,34.2904354 C2.32015572,34.2904354 2.35004279,34.3502096 2.32015572,34.4398708 C2.28030629,34.5195697 2.22053214,34.5893062 2.17072035,34.5893062 C2.12090856,34.5893062 2.08105913,34.5195697 2.08105913,34.4398708 Z" id="Path"></path>
                <path d="M5.86675508,34.4398708 C5.73724443,34.2804731 5.83686801,34.2406237 6.10585167,34.3502096 C6.19551289,34.3800967 6.23536232,34.4498332 6.20547525,34.499645 C6.12577639,34.6291556 6.00622809,34.6092309 5.86675508,34.4398708 Z" id="Path"></path>
                <path d="M9.98120884,33.4237103 C9.8018864,33.3639362 9.82181112,33.1945761 9.9911712,33.1945761 C10.1605313,33.1945761 10.2900419,33.3539738 10.180456,33.4237103 C10.1306442,33.443635 10.040983,33.443635 9.98120884,33.4237103 Z" id="Path"></path>
                <path d="M3.17691849,33.2045384 C2.99759605,33.0849902 3.06733255,33.0052913 3.386128,32.9754042 C3.54552572,32.9554795 3.62522459,32.9953289 3.62522459,33.0949525 C3.62522459,33.2742749 3.386128,33.3340491 3.17691849,33.2045384 Z" id="Path"></path>
                <path d="M9.18422022,32.8458936 C9.10452136,32.6267217 9.24399437,32.5171358 9.3535803,32.6964582 C9.48309095,32.8957054 9.4731286,32.9953289 9.3535803,32.9953289 C9.29380616,32.9953289 9.22406965,32.9255924 9.18422022,32.8458936 Z" id="Path"></path>
                <path d="M47.6588459,31.1921422 C47.6189965,31.1423304 47.6688083,31.0028574 47.7684319,30.8932714 C47.9278296,30.713949 47.9577167,30.713949 48.0374155,30.853422 C48.1768885,31.1224057 47.8082813,31.4511635 47.6588459,31.1921422 Z" id="Path"></path>
                <path d="M49.1830867,31.2365669 C49.2528232,31.1991023 49.3424844,31.2115905 49.3723715,31.2490552 C49.4122209,31.2865199 49.3524467,31.3239845 49.2428608,31.3114963 C49.1332749,31.3114963 49.1033878,31.2740316 49.1830867,31.2365669 Z" id="Path"></path>
                <path d="M46.3438147,30.9430832 C46.3139276,30.8633844 46.3338523,30.7438361 46.4035888,30.6740996 C46.4832877,30.5944007 46.5131748,30.6342501 46.5131748,30.8334973 C46.5131748,31.132368 46.4434383,31.1821798 46.3438147,30.9430832 Z" id="Path"></path>
                <path d="M46.6725725,29.906998 C46.742309,29.4387672 47.2105398,28.5122679 47.2105398,28.8410257 C47.2105398,29.1996706 47.0013303,29.8571862 46.8020832,30.1062452 L46.602836,30.3553041 L46.6725725,29.906998 Z" id="Path"></path>
                <path d="M47.5592223,29.07016 C47.3798999,28.9406493 47.3798999,28.930687 47.5891094,28.821101 C47.8780178,28.6617033 47.9079049,28.681628 47.9079049,28.960574 C47.9079049,29.2395201 47.828206,29.2694071 47.5592223,29.07016 Z" id="Path"></path>
                <path d="M6.94268972,28.2514177 C7.00246387,28.2206484 7.12201216,28.2206484 7.19174867,28.2514177 C7.25152281,28.2975715 7.20171103,28.3283407 7.06223802,28.3283407 C6.92276501,28.3283407 6.87295322,28.2975715 6.94268972,28.2514177 Z" id="Path"></path>
                <path d="M47.2105398,27.7252417 C47.2205022,27.5060698 47.5592223,26.758893 47.6986954,26.6791941 C47.8879802,26.5596458 47.9178672,26.8585165 47.7584695,27.2470485 C47.6189965,27.5758063 47.6189965,27.6256181 47.7584695,27.6754299 C48.0174908,27.7750535 47.9178672,27.874677 47.5592223,27.874677 C47.3101634,27.874677 47.2105398,27.8348276 47.2105398,27.7252417 Z" id="Path"></path>
                <path d="M6.92276501,27.5658439 C6.75340493,27.4363333 6.5940072,27.3466721 6.56412013,27.3665968 C6.53423305,27.3865215 6.49438362,27.2171614 6.47445891,26.9979896 C6.44457183,26.4998717 6.4047224,26.4201728 6.16562582,26.4201728 C5.98630338,26.4201728 5.98630338,26.4102104 6.1457011,26.1213021 C6.23536232,25.9619043 6.34494826,25.8224313 6.39476005,25.8224313 C6.43460948,25.8224313 6.46449655,25.7228078 6.46449655,25.5932971 C6.46449655,25.4338994 6.55415777,25.3342758 6.75340493,25.2545769 C6.9725768,25.1748781 7.08216273,25.0453674 7.17182395,24.726572 C7.36110875,24.0989434 7.06223802,23.7402986 6.62389427,24.0790187 C6.47445891,24.1886047 6.46449655,24.2483788 6.55415777,24.3579647 C6.64381899,24.477513 6.58404484,24.5771366 6.26524939,24.866045 C5.84683037,25.2446146 5.56788435,25.3243134 5.56788435,25.0652921 C5.56788435,24.7963085 5.77709386,24.5074001 5.92652923,24.5671743 C6.02615281,24.6070237 6.06600224,24.5472495 6.06600224,24.3679271 C6.06600224,24.1587176 6.03611517,24.1288305 5.8169433,24.1886047 C5.52803492,24.2583412 5.5081102,24.1686799 5.72728208,23.8498845 C5.8169433,23.7104115 5.98630338,23.6307126 6.15566346,23.6307126 C6.31506118,23.6307126 6.54419541,23.5510138 6.67370606,23.4414278 C6.90284029,23.2621054 6.91280265,23.2621054 7.50058176,23.5809008 C7.83930192,23.7602233 8.28760802,23.9594704 8.50677989,24.0292069 C9.19418258,24.2483788 9.45320388,24.4874754 9.45320388,24.9258191 C9.45320388,25.284464 9.25395673,25.6231842 9.05470957,25.6231842 C8.99493542,25.6231842 8.99493542,25.7128454 9.04474721,25.8523184 C9.18422022,26.2209256 8.94512363,26.6692317 8.37726924,27.1175378 C8.07839851,27.3466721 7.69982891,27.595731 7.53046883,27.6654675 C7.24156046,27.7850158 7.18178631,27.7750535 6.92276501,27.5658439 Z" id="Path"></path>
                <path d="M47.3400505,26.2707374 C47.3101634,26.1810762 47.3101634,26.091415 47.3400505,26.0515656 C47.4496364,25.951942 47.9079049,26.1213021 47.9079049,26.2707374 C47.9079049,26.4699846 47.4197493,26.4699846 47.3400505,26.2707374 Z" id="Path"></path>
                <path d="M49.8007528,26.0615279 C49.8007528,25.9818291 49.8505646,25.9419796 49.9003764,25.9718667 C49.9601506,26.0017538 50,26.0714903 50,26.1312644 C50,26.1810762 49.9601506,26.2209256 49.9003764,26.2209256 C49.8505646,26.2209256 49.8007528,26.1511891 49.8007528,26.0615279 Z" id="Path"></path>
                <path d="M1.68256482,24.6269484 C1.68256482,24.5771366 1.5929036,24.5273248 1.49328002,24.5273248 C1.20437165,24.5273248 1.15455986,24.3679271 1.3338823,24.0292069 C1.50324238,23.7004491 1.68256482,23.6307126 1.68256482,23.9096586 C1.68256482,24.0092822 1.75230133,24.1786423 1.83200019,24.2882282 C2.02128499,24.5372872 2.02128499,24.726572 1.83200019,24.726572 C1.75230133,24.726572 1.68256482,24.6867226 1.68256482,24.6269484 Z" id="Path"></path>
                <path d="M2.37992987,23.8498845 C2.37992987,23.7104115 2.4895158,23.640675 2.63895117,23.7004491 C2.71865003,23.7303362 2.7485371,23.7901104 2.71865003,23.8399221 C2.64891352,23.9495081 2.37992987,23.9594704 2.37992987,23.8498845 Z" id="Path"></path>
                <path d="M4.77089573,23.361729 C4.77089573,23.1923689 4.83066988,23.0030841 4.91036874,22.9433099 C5.02991703,22.8436864 5.03987939,22.8835358 4.97014288,23.1824065 C4.86055695,23.6605997 4.77089573,23.7402986 4.77089573,23.361729 Z" id="Path"></path>
                <path d="M0.785952622,23.4912396 C0.785952622,23.4713149 0.855689126,23.4015784 0.935387989,23.3318419 C1.02504921,23.2621054 1.08482336,23.252143 1.08482336,23.3119172 C1.08482336,23.361729 1.01508685,23.4314655 0.935387989,23.4713149 C0.855689126,23.501202 0.785952622,23.5111643 0.785952622,23.4912396 Z" id="Path"></path>
                <path d="M6.51430834,22.6444392 C6.41468476,22.4651168 6.68366842,22.415305 6.84306615,22.5747027 C6.99250151,22.7241381 6.99250151,22.7341004 6.79325436,22.7341004 C6.67370606,22.7341004 6.55415777,22.694251 6.51430834,22.6444392 Z" id="Path"></path>
                <path d="M5.89664216,22.1263966 C5.71731972,21.9470742 5.73724443,21.5485799 5.91656687,21.4788433 C6.17558817,21.3692574 6.23536232,21.4788433 6.12577639,21.8673753 C6.03611517,22.1762084 5.99626574,22.2260202 5.89664216,22.1263966 Z" id="Path"></path>
                <path d="M1.75230133,21.6681281 C1.63275303,21.4389939 1.5929036,21.0404996 1.69252718,21.0404996 C1.76226368,21.0404996 1.7821884,20.9508384 1.74233897,20.7814783 C1.68256482,20.5423817 1.69252718,20.5324194 2.00136027,20.5623064 C2.28030629,20.5921935 2.33011808,20.6220806 2.300231,20.8412525 C2.29026865,20.9707631 2.19064507,21.1700103 2.09102149,21.2895586 C1.99139791,21.3991445 1.93162377,21.5485799 1.95154848,21.6183164 C2.00136027,21.747827 1.82203783,21.7876764 1.75230133,21.6681281 Z" id="Path"></path>
                <path d="M0.16828644,21.4190692 C0.317721807,21.3393703 0.387458311,21.219822 0.387458311,21.0305372 C0.387458311,20.8213277 0.447232458,20.7416289 0.696291402,20.6519677 C1.18444693,20.4826076 1.21433401,20.6121182 0.825802053,21.1002738 C0.556818393,21.4190692 0.397420669,21.5386175 0.198173514,21.5286551 C-0.0608477883,21.5286551 -0.0608477883,21.5286551 0.16828644,21.4190692 Z" id="Path"></path>
                <path d="M0.8855762,21.3991445 C0.8855762,21.3094833 0.955312704,21.2397468 1.04497392,21.2397468 C1.13463514,21.2397468 1.18444693,21.2895586 1.16452222,21.3592951 C1.10474807,21.5386175 0.8855762,21.5685046 0.8855762,21.3991445 Z" id="Path"></path>
                <path d="M6.46449655,21.2895586 C6.46449655,21.189935 6.56412013,21.1401232 6.74344257,21.1401232 C7.00246387,21.1500855 7.00246387,21.1500855 6.82314143,21.2895586 C6.57408249,21.4788433 6.46449655,21.4788433 6.46449655,21.2895586 Z" id="Path"></path>
                <path d="M4.97014288,21.1500855 C4.97014288,21.0903114 5.01995467,21.0205749 5.06976646,20.9906878 C5.12954061,20.9608007 5.16939004,21.0006502 5.16939004,21.080349 C5.16939004,21.1700103 5.12954061,21.2397468 5.06976646,21.2397468 C5.01995467,21.2397468 4.97014288,21.1998973 4.97014288,21.1500855 Z" id="Path"></path>
                <path d="M5.82690565,20.4527205 C5.75716915,20.3331722 6.3349859,19.5461459 6.49438362,19.5461459 C6.87295322,19.5561083 6.8530285,19.7254684 6.42464712,20.1239627 C5.93649159,20.5722688 5.90660452,20.5921935 5.82690565,20.4527205 Z" id="Path"></path>
                <path d="M5.00999232,20.0044144 C4.9203311,19.6358072 5.10961589,19.4465224 5.26901362,19.7453931 C5.3686372,19.9247155 5.35867484,19.994452 5.23912654,20.1239627 C5.09965354,20.2634357 5.06976646,20.243511 5.00999232,20.0044144 Z" id="Path"></path>
                <path d="M2.28030629,19.4465224 C2.28030629,19.3967106 2.33011808,19.3468988 2.37992987,19.3468988 C2.43970401,19.3468988 2.47955344,19.3967106 2.47955344,19.4465224 C2.47955344,19.5062965 2.43970401,19.5461459 2.37992987,19.5461459 C2.33011808,19.5461459 2.28030629,19.5062965 2.28030629,19.4465224 Z" id="Path"></path>
                <path d="M6.16562582,18.0517923 C6.16562582,17.8525451 6.21543761,17.7529215 6.31506118,17.7529215 C6.4047224,17.7529215 6.65378135,17.6632603 6.86299086,17.5536744 C7.08216273,17.4440885 7.26148517,17.3843143 7.26148517,17.4241637 C7.26148517,17.5536744 6.42464712,18.350663 6.29513647,18.350663 C6.21543761,18.350663 6.16562582,18.2311147 6.16562582,18.0517923 Z" id="Path"></path>
                <path d="M6.31506118,17.4440885 C6.27521175,17.3843143 6.26524939,17.3245402 6.29513647,17.2946531 C6.31506118,17.264766 6.36487297,17.3145778 6.39476005,17.404239 C6.46449655,17.5735991 6.4047224,17.6034862 6.31506118,17.4440885 Z" id="Path"></path>
                <path d="M3.49571394,15.6608264 C3.41601507,15.5313158 3.41601507,15.4615793 3.47578922,15.4615793 C3.53556337,15.4615793 3.60529987,15.5313158 3.6451493,15.6110146 C3.73481052,15.8501112 3.63518694,15.8799983 3.49571394,15.6608264 Z" id="Path"></path>
                <path d="M6.82314143,15.0830097 C6.79325436,15.0232355 6.80321671,14.953499 6.86299086,14.9136496 C6.91280265,14.8837625 6.96261444,14.7741766 6.96261444,14.674553 C6.96261444,14.5848918 7.11204981,14.3557575 7.3013346,14.1764351 C7.5603559,13.9273762 7.72971599,13.8476773 8.008662,13.8476773 C8.44700575,13.8476773 8.58647876,13.9572632 8.53666697,14.2760587 C8.47689282,14.7343271 7.03235094,15.4117675 6.82314143,15.0830097 Z" id="Path"></path>
                <path d="M9.23403201,13.9020644 C9.30376851,13.8645997 9.39342973,13.877088 9.42331681,13.9145526 C9.46316624,13.9520173 9.40339209,13.989482 9.29380616,13.9769938 C9.18422022,13.9769938 9.15433315,13.9395291 9.23403201,13.9020644 Z" id="Path"></path>
                <path d="M11.8142827,13.5687313 C11.8740568,13.3495594 12.1231158,13.1104628 12.2028146,13.200124 C12.2725511,13.2598982 11.9537557,13.7679784 11.8441697,13.7679784 C11.794358,13.7679784 11.7843956,13.6783172 11.8142827,13.5687313 Z" id="Path"></path>
                <path d="M7.85922664,12.7617803 C7.79945249,12.6521944 7.76956542,12.5127214 7.78949013,12.4429849 C7.80941485,12.3732483 7.89907607,12.4728719 7.99869965,12.6521944 C8.08836087,12.8215544 8.11824794,12.9709898 8.06843615,12.9709898 C8.008662,12.9709898 7.91900078,12.8813286 7.85922664,12.7617803 Z" id="Path"></path>
                <path d="M5.51807256,11.8751305 C5.48818549,11.8253187 5.5081102,11.7755069 5.55792199,11.7755069 C5.61769614,11.7755069 5.66750793,11.8253187 5.66750793,11.8751305 C5.66750793,11.9349046 5.64758321,11.974754 5.6276585,11.974754 C5.59777142,11.974754 5.54795964,11.9349046 5.51807256,11.8751305 Z" id="Path"></path>
                <path d="M6.92276501,11.8452434 C6.77332964,11.7356575 6.76336728,11.695808 6.89287793,11.5961844 C7.00246387,11.4965609 7.05227566,11.5264479 7.14193688,11.7256951 C7.27144753,12.0046411 7.19174867,12.0444905 6.92276501,11.8452434 Z" id="Path"></path>
                <path d="M13.8864531,11.5762597 C13.856566,11.5264479 13.8964154,11.4766361 13.9761143,11.4766361 C14.0657755,11.4766361 14.135512,11.5264479 14.135512,11.5762597 C14.135512,11.6360339 14.0956626,11.6758833 14.0458508,11.6758833 C13.9860767,11.6758833 13.9163402,11.6360339 13.8864531,11.5762597 Z" id="Path"></path>
                <path d="M7.31129696,10.9785183 C7.34118403,10.9287065 7.46073233,10.8788947 7.5603559,10.8788947 C7.65997948,10.8788947 7.77952778,10.9287065 7.80941485,10.9785183 C7.84926428,11.0382924 7.73967834,11.0781418 7.5603559,11.0781418 C7.38103346,11.0781418 7.27144753,11.0382924 7.31129696,10.9785183 Z" id="Path"></path>
                <path d="M13.6872059,10.9785183 C13.6573189,10.9187441 13.6971683,10.8490076 13.7868295,10.8191205 C13.9761143,10.7394217 14.0857002,10.8191205 13.9860767,10.9685559 C13.9063778,11.1080289 13.7669048,11.1080289 13.6872059,10.9785183 Z" id="Path"></path>
                <path d="M10.2302678,10.609911 C10.0110959,10.580024 9.95132177,10.5102874 9.95132177,10.330965 C9.95132177,10.2014544 9.9911712,10.0619813 10.0509453,10.0320943 C10.1704936,9.95239541 10.6486868,9.00597142 10.6486868,8.83661134 C10.6486868,8.76687484 10.8280093,8.55766532 11.0471811,8.38830524 C11.266353,8.2089828 11.4456754,8.019698 11.4357131,7.9499615 C11.405826,7.67101548 11.4556378,7.58135426 11.6249979,7.63116605 C11.7345838,7.66105312 11.8541321,7.58135426 11.9936051,7.37214475 C12.1131534,7.18285995 12.4219865,6.94376336 12.7507443,6.78436564 C13.1093892,6.6050432 13.3982976,6.36594661 13.5875824,6.09696295 C13.8964154,5.65861921 15.081936,4.76200701 15.2413337,4.86163059 C15.2911455,4.89151766 15.4007315,4.87159295 15.4804303,4.80185644 C15.5501668,4.7420823 16.0582471,4.67234579 16.5962144,4.65242108 C17.6024125,4.61257165 18.0208316,4.5527975 18.3595517,4.37347506 C18.5388742,4.28381384 18.5388742,4.27385148 18.3097399,4.14434083 C17.9909445,3.96501839 17.9610574,3.97498075 17.7319232,4.21407734 C17.6223373,4.33362563 17.4928266,4.39339978 17.4330525,4.35355034 C17.2437677,4.24396441 17.3135042,3.83550774 17.5526007,3.67611002 C17.8813586,3.45693815 18.5986483,2.73964839 18.7181966,2.51051416 C18.867632,2.2415305 18.6783472,2.25149286 18.3994012,2.53043887 L18.1901916,2.73964839 L17.9510951,2.47066473 C17.5924502,2.04228334 17.642262,1.91277269 18.200154,1.91277269 C18.5587989,1.91277269 18.6982719,1.96258448 18.7879331,2.10205749 C18.867632,2.23156814 18.9772179,2.28137993 19.1166909,2.2415305 C19.2262769,2.21164342 19.3856746,2.2415305 19.4653734,2.311267 C19.5849217,2.41089058 19.6247712,2.39096586 19.7144324,2.16183164 C19.7642442,2.02235863 19.814056,1.84303619 19.8240183,1.78326204 C19.8240183,1.71352554 19.8738301,1.7932244 19.9336043,1.94265976 C20.0631149,2.30130464 20.3121738,2.26145521 20.5213834,1.83307383 L20.6907434,1.50431602 L20.9597271,1.82311147 C21.1689366,2.08213277 21.2386731,2.1219822 21.318372,2.00243391 C21.3881085,1.89284798 21.4080332,1.89284798 21.4080332,2.04228334 C21.4080332,2.13194456 21.3582214,2.21164342 21.2984473,2.21164342 C21.2187484,2.21164342 21.2187484,2.26145521 21.3084096,2.36107879 C21.5076568,2.60017538 21.8065275,2.55036359 21.8264522,2.26145521 C21.8264522,2.1219822 21.8364146,1.95262212 21.8463769,1.89284798 C21.8563393,1.81314911 21.7567157,1.77329968 21.6272051,1.78326204 C21.4379203,1.81314911 21.4179956,1.78326204 21.5076568,1.62386432 C21.5574686,1.51427838 21.6072804,1.24529472 21.6072804,1.03608521 L21.6072804,0.637590897 L22.1053982,0.567854393 C22.6134785,0.498117888 22.8525751,0.557892035 22.7429891,0.727252117 C22.7131021,0.787026264 22.6234409,0.777063906 22.5238173,0.697365044 C22.3843443,0.587779108 22.3743819,0.597741466 22.4540808,0.767101548 C22.5038926,0.876687484 22.5337796,1.085897 22.5238173,1.24529472 C22.5238173,1.39473009 22.5138549,1.57405253 22.5138549,1.64378903 C22.5038926,1.70356318 22.5337796,1.93269741 22.5636667,2.14190692 C22.6134785,2.45074001 22.6632903,2.51051416 22.8625374,2.51051416 C23.071747,2.51051416 23.0916717,2.47066473 23.0418599,2.26145521 C22.9721234,1.97254684 23.0219352,1.95262212 23.3407306,2.16183164 C23.5499401,2.30130464 23.5897896,2.30130464 23.8288861,2.11201985 C23.9683592,2.00243391 24.1277569,1.91277269 24.187531,1.91277269 C24.2473052,1.91277269 24.3867782,1.8629609 24.4963641,1.7932244 C24.6457995,1.69360082 24.715536,1.70356318 24.8848961,1.85299855 C25.0841432,2.03232098 25.0841432,2.03232098 25.1439174,1.7932244 C25.2036915,1.58401489 25.2535033,1.55412781 25.6818847,1.57405253 C25.9508683,1.57405253 26.2696638,1.66371375 26.3991744,1.75337497 C26.7179699,1.97254684 26.7578193,1.96258448 26.8275558,1.61390196 C26.8574429,1.45450423 26.9271794,1.31503123 26.9869536,1.31503123 C27.0367653,1.31503123 27.0566901,1.43457952 27.026803,1.59397724 C26.9769912,1.83307383 27.026803,1.93269741 27.2858243,2.14190692 C27.6544315,2.45074001 27.9533023,2.55036359 28.4115707,2.49058944 C28.7204038,2.46070237 28.7403285,2.47066473 28.7004791,2.71972367 C28.6606297,2.96878262 28.6407049,2.97874497 28.1525494,2.92893318 C27.863641,2.90900847 27.4850714,2.81934725 27.2957866,2.74961074 L26.9670288,2.61013774 L27.0068783,3.14810505 C27.0566901,3.74584652 26.8972923,3.81558303 26.638271,3.31746514 C26.5286851,3.10825562 26.4390239,3.04848148 26.1700402,3.05844384 C25.9907178,3.06840619 25.7516212,3.11821798 25.6420353,3.17799213 C25.5324493,3.23776627 25.2535033,3.31746514 25.0243691,3.35731457 C24.6457995,3.41708871 24.60595,3.40712636 24.576063,3.19791684 C24.5461759,2.99866969 24.5262512,2.98870733 24.3967405,3.11821798 C24.3170417,3.19791684 24.0779451,3.36727693 23.8687356,3.49678758 C23.5897896,3.66614766 23.5001283,3.78569595 23.5300154,3.9152066 C23.6097143,4.22403969 23.4104671,4.24396441 23.2909188,3.93513132 C23.241107,3.78569595 23.1315211,3.62629823 23.071747,3.5864488 C22.822688,3.42705107 22.3943066,3.50674993 22.1751348,3.74584652 C21.9659252,3.97498075 21.9161134,3.98494311 21.4678074,3.87535717 C21.0892378,3.78569595 20.7704423,3.80562067 19.8539054,3.95505603 C18.7480837,4.13437847 18.7181966,4.14434083 18.8875567,4.33362563 C19.0569168,4.51294807 19.0569168,4.53287278 18.7879331,4.75204466 C18.5787236,4.94132945 18.5189495,5.08080246 18.5189495,5.41952263 C18.5189495,5.72835572 18.4890624,5.80805458 18.4093635,5.72835572 C18.2698905,5.58888271 17.3234665,5.66858157 17.1740312,5.83794165 C17.1242194,5.8977158 17.0046711,5.94752759 16.9249722,5.94752759 C16.8054239,5.94752759 16.7755368,6.07703824 16.7854992,6.57515613 L16.7954616,7.21274702 L16.4965908,7.15297288 C16.2475319,7.10316109 16.1379459,7.14301052 15.9088117,7.36218239 C15.6796775,7.58135426 15.5900163,7.61124134 15.4505433,7.53154247 C15.3210326,7.44188125 15.2512961,7.47176833 15.1018607,7.66105312 C14.942463,7.85033792 14.8528018,7.880225 14.5738558,7.83041321 C14.3048721,7.78060142 14.1853238,7.82045085 13.9362649,8.02966036 C13.6573189,8.25879459 13.438147,8.34845581 12.6112713,8.52777825 C12.3821371,8.5875524 12.3323253,8.63736419 12.3622123,8.85653606 C12.3821371,9.07570793 12.4817606,9.17533151 12.8304432,9.35465394 C12.8404055,9.3646163 12.8304432,9.41442809 12.7905937,9.47420224 C12.7009325,9.63359996 12.3422876,9.42439045 12.3422876,9.21518094 C12.3422876,9.07570793 12.3124006,9.07570793 12.1330781,9.24506801 C11.9238686,9.43435281 11.9238686,9.42439045 11.7345838,9.19525622 C11.6349602,9.06574557 11.5652237,8.93623492 11.5851484,8.89638549 C11.6050732,8.86649841 11.4954872,8.83661134 11.3360895,8.82664898 C11.1766918,8.81668663 11.0471811,8.8465737 11.0471811,8.87646077 C11.0471811,8.9163102 11.2364659,9.13548207 11.4755625,9.3646163 C11.8043203,9.69337411 11.933831,9.75314826 12.0234922,9.66348704 C12.1131534,9.57382582 12.1430405,9.63359996 12.1430405,9.94243305 C12.1430405,10.3409274 12.1430405,10.3409274 11.7345838,10.3708144 C11.4954872,10.3807768 11.2265036,10.330965 11.0870306,10.2313414 C10.7981222,10.0420566 10.6088374,10.0420566 10.4494397,10.2313414 C10.3498161,10.3508897 10.3597784,10.3907392 10.4892891,10.4405509 C10.6486868,10.5003251 10.7184233,10.6896099 10.5789503,10.6696852 C10.5291385,10.6597228 10.3797032,10.6298357 10.2302678,10.609911 Z M15.9088117,6.71462914 C15.9984729,6.65485499 15.9685859,6.59508084 15.7892634,6.51538198 C15.5999786,6.43568312 15.5202798,6.43568312 15.4405809,6.5353067 C15.2512961,6.76444093 15.609941,6.89395158 15.9088117,6.71462914 Z M25.5922235,2.96878262 C25.5922235,2.93889554 25.552374,2.88908375 25.4925999,2.85919668 C25.4427881,2.82930961 25.3929763,2.84923432 25.3929763,2.89904611 C25.3929763,2.95882026 25.4427881,3.00863205 25.4925999,3.00863205 C25.552374,3.00863205 25.5922235,2.98870733 25.5922235,2.96878262 Z M22.404269,2.311267 C22.404269,2.26145521 22.3245701,2.21164342 22.2349089,2.21164342 C22.0854735,2.21164342 22.0755112,2.23156814 22.2050218,2.311267 C22.3943066,2.4308153 22.404269,2.4308153 22.404269,2.311267 Z" id="Shape"></path>
                <path d="M9.06467193,10.3708144 C8.87538713,10.2911156 8.84550006,10.2313414 8.9052742,10.0022072 C8.98497307,9.66348704 8.95508599,9.68341175 9.40339209,9.75314826 L9.78196169,9.8129224 L9.55282746,10.0022072 C9.37350502,10.1516426 9.3535803,10.2114167 9.45320388,10.330965 C9.60263925,10.5102874 9.45320388,10.5302122 9.06467193,10.3708144 Z" id="Path"></path>
                <path d="M19.1665027,10.1815296 C19.1963898,10.1317179 19.2462016,10.0819061 19.2760886,10.0819061 C19.2960134,10.0819061 19.3159381,10.1317179 19.3159381,10.1815296 C19.3159381,10.2413038 19.2661263,10.2811532 19.2063521,10.2811532 C19.1565403,10.2811532 19.1366156,10.2413038 19.1665027,10.1815296 Z" id="Path"></path>
                <path d="M9.87162291,9.27495508 C9.89154762,9.20521858 9.97124648,9.12551972 10.040983,9.105595 C10.1206819,9.07570793 10.1605313,9.11555736 10.1306442,9.19525622 C10.1107195,9.26499273 10.0310206,9.34469159 9.96128413,9.3646163 C9.88158526,9.39450338 9.84173583,9.35465394 9.87162291,9.27495508 Z" id="Path"></path>
                <path d="M13.7474755,9.02589614 C13.7474755,8.9163102 13.7849402,8.88642313 13.8224049,8.96612199 C13.8598696,9.0358585 13.8473814,9.12551972 13.8099167,9.15540679 C13.772452,9.19525622 13.7349873,9.13548207 13.7474755,9.02589614 Z" id="Path"></path>
                <path d="M8.92519892,8.87646077 C8.8355377,8.81668663 8.77576355,8.72702541 8.81561298,8.67721362 C8.85546241,8.61743947 8.92519892,8.61743947 9.00489778,8.68717597 C9.10452136,8.76687484 9.19418258,8.76687484 9.34361795,8.69713833 C9.64248868,8.52777825 9.70226283,8.56762768 9.50301567,8.78679955 C9.30376851,9.00597142 9.18422022,9.02589614 8.92519892,8.87646077 Z" id="Path"></path>
                <path d="M9.95132177,8.77683719 C9.95132177,8.61743947 9.69230047,8.38830524 9.51297803,8.38830524 C9.30376851,8.38830524 9.30376851,8.12928394 9.51297803,8.04958508 C9.72218754,7.96988622 9.95132177,8.15917101 9.95132177,8.3982676 C9.95132177,8.53774061 10.0210583,8.5875524 10.2302678,8.5875524 C10.4892891,8.59751475 10.4892891,8.59751475 10.3099666,8.73698776 C10.0808324,8.9163102 9.95132177,8.92627256 9.95132177,8.77683719 Z" id="Path"></path>
                <path d="M16.02836,8.5875524 C16.02836,8.53774061 16.0781718,8.48792882 16.1379459,8.48792882 C16.1877577,8.48792882 16.2076824,8.53774061 16.1777954,8.5875524 C16.1479083,8.64732654 16.0980965,8.68717597 16.0682094,8.68717597 C16.0482847,8.68717597 16.02836,8.64732654 16.02836,8.5875524 Z" id="Path"></path>
                <path d="M16.9249722,8.43811703 C16.9249722,8.26875695 17.3832407,8.019698 17.4928266,8.12928394 C17.6123749,8.23886987 17.3732783,8.53774061 17.1341817,8.56762768 C16.9947087,8.5875524 16.9249722,8.54770297 16.9249722,8.43811703 Z" id="Path"></path>
                <path d="M18.1304175,7.1230858 C18.0108692,6.68474206 18.0307939,6.64489263 18.3097399,6.794328 C18.5289118,6.90391393 18.5687612,7.0533493 18.4591753,7.33229532 C18.3595517,7.59131662 18.2400034,7.51161776 18.1304175,7.1230858 Z" id="Path"></path>
                <path d="M40.7051202,7.42195654 C40.5955343,7.32233296 40.6254213,6.99357515 40.7350073,6.99357515 C40.7947814,6.99357515 40.8346309,7.10316109 40.8346309,7.2426341 C40.8346309,7.5016554 40.8147061,7.53154247 40.7051202,7.42195654 Z" id="Path"></path>
                <path d="M19.2561639,7.23267174 C19.286051,7.14301052 19.3159381,7.06331166 19.3159381,7.04338694 C19.3159381,6.93380101 20.0431902,6.58511849 20.1627385,6.63493027 C20.5512704,6.78436564 20.1727008,7.23267174 19.5849217,7.32233296 C19.2661263,7.37214475 19.2063521,7.35222003 19.2561639,7.23267174 Z" id="Path"></path>
                <path d="M35.0763881,6.57515613 C34.9668021,6.44564548 34.797442,6.28624775 34.7177432,6.21651125 C34.628082,6.14677474 34.5583455,5.97741466 34.5583455,5.82797929 C34.5583455,5.61876978 34.5782702,5.59884507 34.7077808,5.69846864 C34.9966892,5.93756523 35.5545812,6.794328 35.4250706,6.794328 C35.3553341,6.794328 35.1959364,6.69470442 35.0763881,6.57515613 Z" id="Path"></path>
                <path d="M41.3825605,6.69470442 C41.3427111,6.63493027 41.3526735,6.5353067 41.4124476,6.47553255 C41.4722217,6.4157584 41.5319959,6.4157584 41.5818077,6.49545727 C41.6216571,6.55523141 41.6116948,6.65485499 41.5519206,6.71462914 C41.4921465,6.77440328 41.4323723,6.77440328 41.3825605,6.69470442 Z" id="Path"></path>
                <path d="M25.9907178,5.8977158 L25.9907178,5.59884507 L26.2497391,5.76820515 C26.498798,5.92760287 26.498798,5.93756523 26.3294379,6.06707588 C26.0604543,6.26632304 25.9907178,6.22647361 25.9907178,5.8977158 Z" id="Path"></path>
                <path d="M40.505873,5.60880742 C40.2070023,5.24020019 40.1671529,5.10072718 40.3863248,5.10072718 C40.5457225,5.10072718 40.8645179,5.64865685 40.8147061,5.81801694 C40.7947814,5.87779108 40.6553084,5.77816751 40.505873,5.60880742 Z" id="Path"></path>
                <path d="M19.6646206,5.69846864 C19.6347335,5.64865685 19.6446959,5.59884507 19.70447,5.59884507 C19.7542818,5.59884507 19.8339807,5.64865685 19.8638677,5.69846864 C19.8937548,5.75824279 19.8837925,5.79809222 19.8240183,5.79809222 C19.7742065,5.79809222 19.6945077,5.75824279 19.6646206,5.69846864 Z" id="Path"></path>
                <path d="M29.2384464,5.61876978 C29.2085593,5.55899564 29.2284841,5.47929677 29.2882582,5.4494097 C29.4376936,5.34978612 29.5373171,5.47929677 29.4078065,5.60880742 C29.33807,5.67854393 29.2782958,5.67854393 29.2384464,5.61876978 Z" id="Path"></path>
                <path d="M21.3084096,5.46933442 C21.3084096,5.38963555 21.3681838,5.27008726 21.4478826,5.21031311 C21.5674309,5.11068954 21.5773933,5.13061425 21.5375439,5.29997433 C21.4678074,5.54903328 21.3084096,5.66858157 21.3084096,5.46933442 Z" id="Path"></path>
                <path d="M38.9716699,5.13061425 C38.7923475,5.0708401 38.8122722,4.80185644 38.9816323,4.80185644 C39.1709171,4.80185644 39.2904654,4.99114124 39.1808795,5.10072718 C39.1310677,5.14057661 39.0314441,5.15053897 38.9716699,5.13061425 Z" id="Path"></path>
                <path d="M25.3132774,4.91144238 C25.3332022,4.84170588 25.383014,4.79189409 25.4228634,4.79189409 C25.5424117,4.80185644 25.5125246,4.94132945 25.3929763,4.99114124 C25.3232398,5.01106596 25.2833904,4.97121653 25.3132774,4.91144238 Z" id="Path"></path>
                <path d="M34.6380443,4.75204466 C34.5782702,4.44321156 34.6480067,4.00486782 34.767555,4.00486782 C34.8173668,4.00486782 34.8572162,4.23400205 34.8572162,4.50298571 C34.8572162,5.02102832 34.7177432,5.18042604 34.6380443,4.75204466 Z" id="Path"></path>
                <path d="M28.1824365,4.30373856 C28.0529258,4.22403969 28.0529258,4.19415262 28.2023612,4.04471725 C28.3418342,3.90524425 28.4016084,3.89528189 28.5211567,4.00486782 C28.8698392,4.28381384 28.5709684,4.5527975 28.1824365,4.30373856 Z" id="Path"></path>
                <path d="M37.5669775,4.09452904 C37.5869022,4.0347549 37.6466764,3.99490547 37.6964882,3.99490547 C37.7462999,3.99490547 37.8060741,4.0347549 37.8259988,4.09452904 C37.8459235,4.15430319 37.7861494,4.20411498 37.6964882,4.20411498 C37.6068269,4.20411498 37.5470528,4.15430319 37.5669775,4.09452904 Z" id="Path"></path>
                <path d="M31.0217085,3.68607237 C30.8523484,3.55656172 30.5734024,3.45693815 30.3442681,3.44697579 C29.9158867,3.42705107 29.8361879,3.36727693 29.7365643,3.03851912 C29.6867525,2.86915904 29.7266019,2.77949782 29.9358115,2.64998717 C30.174908,2.49058944 30.2147575,2.49058944 30.314381,2.62010009 C30.3741552,2.70976131 30.5235906,2.82930961 30.6531012,2.89904611 C30.8324237,2.99866969 30.8722731,2.98870733 30.8722731,2.85919668 C30.8722731,2.7595731 30.9718967,2.70976131 31.1910685,2.70976131 C31.4799769,2.70976131 31.4899393,2.71972367 31.3405039,2.88908375 C31.1312944,3.11821798 31.1312944,3.30750278 31.3205792,3.56652408 C31.6194499,3.95505603 31.4500898,4.02479254 31.0217085,3.68607237 Z" id="Path"></path>
                <path d="M35.0066516,3.68607237 C35.046501,3.59641115 34.9269527,3.54659937 34.6480067,3.52667465 C34.4188724,3.51671229 34.1897382,3.47686286 34.1399264,3.44697579 C33.9904911,3.34735221 34.0602276,3.0185944 34.2893618,2.74961074 L34.5284584,2.48062708 L34.8771409,2.6898366 C35.1959364,2.88908375 35.6641672,3.54659937 35.5545812,3.63626059 C35.5246942,3.6561853 35.3852212,3.70599709 35.2357858,3.74584652 C35.0365386,3.78569595 34.9767645,3.77573359 35.0066516,3.68607237 Z" id="Path"></path>
                <path d="M29.1587475,3.397164 C29.0093122,3.31746514 28.9993498,3.26765335 29.1089358,3.10825562 C29.2882582,2.80938489 29.477543,2.86915904 29.477543,3.2078792 C29.477543,3.52667465 29.4277312,3.55656172 29.1587475,3.397164 Z" id="Path"></path>
                <path d="M32.1175678,3.00863205 C32.316815,2.78946018 32.4264009,2.80938489 32.3367397,3.05844384 C32.2968902,3.1381427 32.1972667,3.2078792 32.1076054,3.2078792 C31.9482077,3.2078792 31.9482077,3.18795449 32.1175678,3.00863205 Z" id="Path"></path>
                <path d="M31.8685089,2.51051416 C31.8685089,2.46070237 31.9183206,2.41089058 31.9780948,2.41089058 C32.0279066,2.41089058 32.0478313,2.46070237 32.0179442,2.51051416 C31.9880572,2.5702883 31.9382454,2.61013774 31.9083583,2.61013774 C31.8884336,2.61013774 31.8685089,2.5702883 31.8685089,2.51051416 Z" id="Path"></path>
                <path d="M17.4230901,2.37104115 C17.4230901,2.28137993 17.4928266,2.21164342 17.5824878,2.21164342 C17.672149,2.21164342 17.7219608,2.26145521 17.7020361,2.33119172 C17.642262,2.51051416 17.4230901,2.54040123 17.4230901,2.37104115 Z" id="Path"></path>
                <path d="M36.5209299,2.33119172 C36.3017581,2.09209513 36.3117204,2.01239627 36.550817,2.01239627 C36.7500642,2.01239627 36.9891608,2.33119172 36.8795748,2.45074001 C36.7799512,2.55036359 36.69029,2.52047652 36.5209299,2.33119172 Z" id="Path"></path>
                <path d="M29.9756609,2.02235863 C29.9756609,1.96258448 30.0254727,1.89284798 30.0752845,1.8629609 C30.1350586,1.83307383 30.174908,1.87292326 30.174908,1.95262212 C30.174908,2.04228334 30.1350586,2.11201985 30.0752845,2.11201985 C30.0254727,2.11201985 29.9756609,2.07217042 29.9756609,2.02235863 Z" id="Path"></path>
                <path d="M32.5359868,2.0522457 C32.456288,1.97254684 32.5459492,1.81314911 32.6754598,1.81314911 C32.7252716,1.81314911 32.7651211,1.88288562 32.7651211,1.96258448 C32.7651211,2.11201985 32.6455728,2.16183164 32.5359868,2.0522457 Z" id="Path"></path>
                <path d="M35.3055223,1.91277269 C35.1361622,1.80318676 34.7476303,1.69360082 34.4288348,1.65375139 C33.9008298,1.59397724 33.8609804,1.6039396 33.8609804,1.7932244 C33.8609804,1.9825092 33.8310933,1.99247155 33.6019591,1.90281033 C33.4525237,1.85299855 33.2034648,1.69360082 33.0440671,1.56409017 C32.8846694,1.42461716 32.6754598,1.31503123 32.595761,1.31503123 C32.456288,1.31503123 32.456288,1.29510651 32.595761,1.13570879 C32.6953846,1.03608521 32.7651211,0.876687484 32.7651211,0.796988622 C32.7651211,0.657515613 32.8248952,0.647553255 33.293126,0.75713919 C33.572072,0.826875695 34.2495124,1.07593464 34.7775173,1.29510651 C35.3055223,1.52424074 35.7936778,1.71352554 35.8434896,1.71352554 C35.992925,1.71352554 35.9829626,1.84303619 35.8335273,1.99247155 C35.6840919,2.14190692 35.6741295,2.14190692 35.3055223,1.91277269 Z" id="Path"></path>
                <path d="M27.9831893,1.05600992 C27.9831893,1.01616049 28.0628882,0.926499273 28.1625118,0.856762768 C28.3219095,0.737214475 28.3119471,0.727252117 28.1127,0.717289759 C27.7341304,0.717289759 27.833754,0.418419026 28.2123236,0.408456669 C28.3816836,0.398494311 28.5809308,0.408456669 28.6307426,0.418419026 C28.6905167,0.438343742 28.8598768,0.468230815 29.0192745,0.498117888 C29.2882582,0.53796732 29.2982206,0.528004962 29.2384464,0.26898366 L29.1687099,0 L29.6469031,0.0597741466 C29.9059244,0.0996235777 30.314381,0.149435367 30.5534776,0.17932244 C30.9918214,0.239096586 31.2707674,0.498117888 31.2707674,0.84680041 C31.2707674,0.986273419 31.230918,1.01616049 31.1014073,0.956386346 C30.7228377,0.796988622 29.4974677,0.796988622 29.0192745,0.956386346 C28.5410814,1.11578407 27.9831893,1.16559586 27.9831893,1.05600992 Z" id="Path"></path>
                <path d="M23.4802036,0.806950979 C23.2211823,0.657515613 23.2610317,0.567854393 23.5997519,0.547929677 C23.8388485,0.528004962 23.8986226,0.567854393 23.8986226,0.717289759 C23.8986226,0.93646163 23.7491873,0.966348704 23.4802036,0.806950979 Z" id="Path"></path>
                <path d="M25.66196,0.84680041 C25.6221105,0.816913337 25.691847,0.677440328 25.8113953,0.547929677 C25.9707931,0.378569595 26.0504919,0.348682522 26.1600779,0.428381384 C26.3294379,0.577816751 26.3294379,0.826875695 26.1501155,0.75713919 C26.0704166,0.727252117 25.9807554,0.747176833 25.940906,0.806950979 C25.8711695,0.93646163 25.7516212,0.946423988 25.66196,0.84680041 Z" id="Path"></path>
                <path d="M25.1937292,0.528004962 C25.1937292,0.478193173 25.2435409,0.398494311 25.2933527,0.368607237 C25.3531269,0.338720164 25.3929763,0.348682522 25.3929763,0.408456669 C25.3929763,0.458268457 25.3531269,0.53796732 25.2933527,0.567854393 C25.2435409,0.597741466 25.1937292,0.587779108 25.1937292,0.528004962 Z" id="Path"></path>
            </g>
        </g>
    </g>
</svg>