<?xml version="1.0" encoding="UTF-8"?>
<svg width="35px" height="62px" viewBox="0 0 35 62" version="1.1" xmlns="http://www.w3.org/2000/svg" xmlns:xlink="http://www.w3.org/1999/xlink">
    <title>marker</title>
    <g id="Page-1" stroke="none" stroke-width="1" fill="none" fill-rule="evenodd">
        <g id="Group" transform="translate(0.580490, 0.861903)">
            <g id="Marker">
                <path d="M16.9450326,60.5474811 C16.4067577,59.5787468 15.6770443,58.2077849 15.1612592,57.2538626 C4.89767186,38.2718015 -0.857780194,22.3211582 0.104133731,13.3369512 C1.1529697,3.54089842 7.72172667,-0.85871955 19.8104046,0.13809725" id="Path" stroke="#11231C" fill="#DBE0D1" stroke-linecap="round" stroke-linejoin="bevel"></path>
                <path d="M17.9450326,0 C29.0212658,0.332222382 34.2766673,6.47231837 33.7112371,18.420288 C33.1458068,30.3682575 27.5485646,44.4106553 16.9195103,60.5474811" id="Path-2" stroke="#11231C" fill="#DBE0D1" stroke-linecap="round"></path>
                <ellipse id="Oval" fill="#FFFFFF" cx="16.9195103" cy="21.1380972" rx="9.5" ry="9"></ellipse>
            </g>
            <g id="lock-shutter-photography-favicon" transform="translate(6.419510, 9.138097)" fill="#000000" fill-rule="nonzero">
                <g id="Group" transform="translate(10.500000, 11.000000) scale(-1, 1) rotate(-180.000000) translate(-10.500000, -11.000000) ">
                    <path d="M5.48295947,21.8462458 C5.45390281,21.837362 5.41239329,21.7885008 5.39163853,21.7440815 C5.35427997,21.6730106 5.36673284,21.6685687 5.52861992,21.712988 C5.74031846,21.7662911 5.76107318,21.7796169 5.68220511,21.8329201 C5.61578989,21.8773393 5.56597847,21.8817813 5.48295947,21.8462458 Z" id="Path"></path>
                    <path d="M9.25202332,21.7929427 C9.25202332,21.7218718 9.37655189,21.6374752 9.42221234,21.6863364 C9.44711803,21.712988 9.42636331,21.7440815 9.35579713,21.7796169 C9.29768381,21.8062685 9.25202332,21.8151523 9.25202332,21.7929427 Z" id="Path"></path>
                    <path d="M4.22522119,21.0466986 C3.71880511,20.4914575 3.60672942,20.3226642 3.75201272,20.3226642 C3.87239031,20.3226642 4.05503217,20.4514801 4.08408883,20.5536445 C4.10069264,20.6113896 4.24182499,20.7801829 4.39541017,20.9312085 C4.5572973,21.0911179 4.6859768,21.2554693 4.69427869,21.3220982 C4.73163725,21.526427 4.59050493,21.4464722 4.22522119,21.0466986 Z" id="Path"></path>
                    <path d="M9.13164572,20.9933955 C9.03202292,20.9267666 9.12749479,20.8556957 9.31428761,20.8556957 C9.53013708,20.8556957 9.59240136,20.9267666 9.43881613,20.9889536 C9.30598571,21.0422567 9.20636287,21.0466986 9.13164572,20.9933955 Z" id="Path"></path>
                    <path d="M10.2897612,20.900115 C10.2897612,20.7846248 10.4474974,20.6913443 10.4807049,20.7890668 C10.5097616,20.8690215 10.4308935,20.9889536 10.3478745,20.9889536 C10.3146669,20.9889536 10.2897612,20.9489762 10.2897612,20.900115 Z" id="Path"></path>
                    <path d="M5.54937468,20.8512538 C5.350129,20.7402055 5.33352521,20.6113896 5.52031802,20.651367 C5.5908842,20.6646928 5.67805418,20.6780185 5.70711084,20.6780185 C5.76937512,20.6780185 5.79012984,20.8779053 5.73616749,20.9134408 C5.71541273,20.9267666 5.63239373,20.8956731 5.54937468,20.8512538 Z" id="Path"></path>
                    <path d="M9.61730705,20.837928 C9.43466521,20.6602508 9.48032566,20.5492026 9.66711847,20.713554 C9.71692989,20.7579733 9.75428844,20.8290441 9.74598655,20.8734634 C9.72938276,20.9445343 9.71692989,20.9400923 9.61730705,20.837928 Z" id="Path"></path>
                    <path d="M10.6425921,20.8556957 C10.6550449,20.8334861 10.6841016,20.8112764 10.7090073,20.8112764 C10.729762,20.8112764 10.7463658,20.8334861 10.7463658,20.8556957 C10.7463658,20.8823473 10.7173092,20.900115 10.6799506,20.900115 C10.646743,20.900115 10.6301392,20.8823473 10.6425921,20.8556957 Z" id="Path"></path>
                    <path d="M11.7633489,20.8112764 C11.6886318,20.7801829 11.501839,20.5936219 11.5391976,20.584738 C11.8297642,20.5447607 11.9086322,20.5492026 11.9459908,20.6291573 C12.0041041,20.7402055 11.8837265,20.8601376 11.7633489,20.8112764 Z" id="Path"></path>
                    <path d="M8.33051212,20.6780185 C8.25164404,20.5269929 8.25164404,20.5269929 8.4010783,20.5980638 C8.45919162,20.6247154 8.50070114,20.6780185 8.49655017,20.713554 C8.47579541,20.8334861 8.40522923,20.8157183 8.33051212,20.6780185 Z" id="Path"></path>
                    <path d="M5.83163936,20.651367 C5.81918654,20.6113896 5.80673368,20.5314349 5.80673368,20.4736898 C5.80673368,20.3759673 5.79843178,20.3715254 5.7195637,20.4159447 C5.63654465,20.460364 5.63239373,20.4559221 5.66145039,20.3137803 C5.69050704,20.1627547 5.76522415,20.0383807 5.76522415,20.1361032 C5.76522415,20.1760805 5.79843178,20.1671967 5.86484699,20.1138935 C5.96031886,20.0428227 5.96031886,20.0294969 5.90220555,19.9806357 C5.86484699,19.9495422 5.75277129,19.9228906 5.65314845,19.9228906 C5.47465757,19.9228906 5.47465757,19.9228906 5.47465757,19.7674231 C5.47465757,19.6208394 5.4705066,19.6119556 5.38748756,19.6608168 C5.33767614,19.6874684 5.28786476,19.7452134 5.27956282,19.7896327 C5.25050616,19.9051229 5.17994002,19.9228906 5.03880766,19.8562617 C4.95578861,19.8162843 4.93918482,19.7940746 4.98899624,19.7940746 C5.09277001,19.7896327 5.33352521,19.5275589 5.36673284,19.3809753 C5.40409139,19.2032981 5.47465757,19.2299497 5.44560091,19.4076268 L5.42484615,19.5586524 L5.60333703,19.5186751 C5.80258271,19.4698138 5.8565451,19.4342784 5.77352605,19.4031849 C5.74862036,19.3898591 5.73201653,19.3632075 5.74862036,19.3409979 C5.76107318,19.3187883 5.82333747,19.332114 5.89390365,19.3676495 C6.03503601,19.4476042 6.03918694,19.4387203 5.9312622,19.2477174 C5.83994126,19.083366 5.81918654,18.9856436 5.89805458,19.0700402 C5.92711128,19.1011337 5.98522459,19.1233434 6.02673407,19.1233434 C6.08899836,19.1233434 6.10145122,19.145553 6.08069646,19.2343916 C6.06409267,19.3099044 6.08069646,19.3720914 6.13880978,19.4342784 C6.23843262,19.5408847 6.24258355,19.5542105 6.15126264,19.5764201 C6.10560215,19.5897459 6.16371547,19.6252813 6.28409307,19.6608168 C6.48748972,19.7274457 6.49164064,19.7318876 6.47918778,19.8873552 C6.47088588,20.0383807 6.47918778,20.0561485 6.69503725,20.1894063 C6.97730198,20.3581996 6.9897548,20.3804093 6.88598103,20.4781317 C6.81541485,20.5447607 6.78635819,20.5492026 6.69503725,20.5092252 C6.55390493,20.4381544 6.36711212,20.4425963 6.3089988,20.5181091 C6.27579117,20.5625284 6.21352689,20.5758542 6.11390409,20.5580865 C5.98937552,20.5358768 5.97277173,20.5447607 5.97277173,20.6291573 C5.97277173,20.7357636 5.86899792,20.7535313 5.83163936,20.651367 Z M6.26333831,19.7896327 C6.26333831,19.7674231 6.24673451,19.7452134 6.22182883,19.7452134 C6.20107406,19.7452134 6.1803193,19.7674231 6.1803193,19.7896327 C6.1803193,19.8162843 6.20107406,19.834052 6.22182883,19.834052 C6.24673451,19.834052 6.26333831,19.8162843 6.26333831,19.7896327 Z" id="Shape"></path>
                    <path d="M11.2859895,20.646925 C11.2859895,20.5047833 11.327499,20.4115028 11.3939142,20.4115028 C11.4727823,20.4115028 11.4686314,20.4514801 11.3690086,20.6113896 C11.2942914,20.7313217 11.2859895,20.7357636 11.2859895,20.646925 Z" id="Path"></path>
                    <path d="M12.1576893,20.6780185 C12.1576893,20.6558089 12.186746,20.6335993 12.2241045,20.6335993 C12.2573121,20.6335993 12.273916,20.6558089 12.2614631,20.6780185 C12.2490102,20.7046701 12.2199536,20.7224378 12.1950479,20.7224378 C12.1742931,20.7224378 12.1576893,20.7046701 12.1576893,20.6780185 Z" id="Path"></path>
                    <path d="M10.136176,20.4337124 L10.0199493,20.3271061 L10.1776855,20.3226642 C10.3146669,20.3226642 10.3312707,20.33599 10.3312707,20.4337124 C10.3312707,20.5714122 10.2856102,20.5758542 10.136176,20.4337124 Z" id="Path"></path>
                    <path d="M10.9331586,20.3448738 C10.7961772,20.2249417 10.8418377,20.207174 11.0825929,20.2871288 C11.2112724,20.3271061 11.2361781,20.3493158 11.1988195,20.398177 C11.1324043,20.4825736 11.074291,20.4692479 10.9331586,20.3448738 Z" id="Path"></path>
                    <path d="M9.66711847,20.3271061 C9.64221278,20.273803 9.50108042,20.1760805 9.35164616,20.1005677 C9.11504193,19.9895195 9.08183434,19.958426 9.10674003,19.8784713 C9.12334382,19.8251681 9.11504193,19.7629811 9.09428716,19.7318876 C9.0735324,19.7007941 9.02372098,19.585304 8.9822115,19.4698138 C8.91579625,19.274369 8.90334342,19.2654851 8.81202248,19.3099044 C8.69579585,19.3676495 8.67504109,19.5675363 8.77466393,19.6563749 C8.83277724,19.709678 8.82862627,19.7274457 8.7497582,19.8162843 L8.66258822,19.9140067 L8.7497582,19.9451002 C8.79956962,19.958426 8.83692817,19.9939614 8.83692817,20.0161711 C8.83692817,20.0739162 8.73730537,20.0650323 8.68334298,20.0072872 C8.64598443,19.9673099 8.60447491,19.9806357 8.5214559,20.0517065 C8.37202164,20.1760805 8.29730449,20.1716386 8.29730449,20.0339388 C8.29730449,19.9095648 8.30975736,19.9051229 8.42598399,19.9673099 C8.48824827,20.0028453 8.50485207,19.9984034 8.50485207,19.9539841 C8.50485207,19.8562617 8.2807007,19.771865 8.18107786,19.8296101 C8.13126644,19.8562617 8.01503981,19.8651455 7.90711507,19.8518197 C7.74107702,19.8251681 7.72447323,19.8118424 7.75768081,19.7407715 C7.8116432,19.6386071 7.75352989,19.5986298 7.51277468,19.585304 C7.13088716,19.5586524 7.00635863,19.5675363 6.91503769,19.6208394 C6.85277341,19.6563749 6.83201864,19.6430491 6.81541485,19.5719782 C6.79050916,19.4653719 6.78635819,19.46093 6.67013156,19.5275589 C6.59541445,19.5719782 6.57050872,19.5586524 6.48333875,19.4387203 C6.41692354,19.3498818 6.34635735,19.3010205 6.27579117,19.3010205 C6.17201741,19.3010205 6.17201741,19.3010205 6.24258355,19.1855304 C6.3006969,19.0922499 6.30484783,19.0611564 6.25918738,19.0300629 C6.21352689,19.0034113 6.21767786,18.9634339 6.27579117,18.8301761 C6.3173007,18.7413375 6.34220638,18.6569409 6.32975356,18.6436151 C6.29239497,18.6080796 6.10560215,18.7591052 6.02673407,18.8834792 C5.96862076,18.9812017 5.95201697,18.9856436 5.92296031,18.9278985 C5.90220555,18.8879212 5.90220555,18.8257342 5.92711128,18.772431 C5.96446983,18.7013601 5.95201697,18.6747086 5.83579033,18.6036377 C5.76522415,18.5547765 5.64069562,18.4925895 5.56182755,18.4659379 C5.44144995,18.4215186 5.41239329,18.4215186 5.36673284,18.4925895 C5.31692142,18.5636603 5.30446855,18.5592184 5.20069474,18.4215186 C5.10937384,18.2971446 5.07201529,18.2793769 4.97654338,18.3015865 C4.84371295,18.33268 4.7689958,18.2393995 4.7689958,18.0439547 C4.7689958,17.959558 4.79805246,17.9284645 4.90597719,17.8929291 L5.03880766,17.8529517 L4.92673196,17.772997 C4.79390153,17.6797164 4.20446643,17.5109232 4.1463531,17.5464586 C4.12144739,17.5642263 4.10484359,17.6130875 4.10484359,17.6663907 C4.10484359,17.7330196 4.12559835,17.7507873 4.1878626,17.7330196 C4.25427785,17.7152519 4.27088165,17.7330196 4.27088165,17.8307421 C4.27088165,17.9906515 4.37880638,18.150561 4.43276877,18.0617224 C4.48673112,17.9773257 4.56144823,18.0439547 4.56144823,18.1772125 C4.56144823,18.2927027 4.53239157,18.2971446 4.34559875,18.212748 C4.28333451,18.1860964 4.27088165,18.2038641 4.27088165,18.33268 C4.27088165,18.5325668 4.29163641,18.5503346 4.45767446,18.4748218 C4.64861824,18.3904251 4.69842966,18.394867 4.66522203,18.4970314 C4.63616538,18.5991958 4.85616577,18.8124084 4.99314721,18.8124084 C5.12597763,18.8124084 5.20069474,18.9012469 5.11767574,18.9634339 C5.06786432,19.0034113 5.06371335,19.0522725 5.09277001,19.1944142 C5.1301286,19.3720914 5.12597763,19.3765333 4.97239245,19.4698138 C4.77729774,19.5897459 4.63616538,19.5897459 4.39956114,19.4786977 C4.2999383,19.4298365 4.1878626,19.3898591 4.15050406,19.3854172 C4.10484359,19.3854172 4.10069264,19.3765333 4.1380512,19.3587656 C4.1795607,19.3409979 4.17540978,19.3187883 4.12144739,19.2521593 C4.02597551,19.1366692 3.98861695,19.145553 4.01352266,19.2788109 C4.03842837,19.4165107 3.95956029,19.4253945 3.89314507,19.2921367 C3.81012604,19.1189015 3.6855975,18.9945274 3.56106896,18.9678759 C3.46974802,18.9456662 3.44069137,18.9145727 3.44069137,18.834618 C3.44069137,18.6169635 3.40748376,18.5903119 3.1127662,18.5903119 C2.93842625,18.58587 2.80974675,18.5636603 2.75993533,18.523683 C2.65616155,18.4392863 2.61050108,18.4392863 2.61050108,18.523683 C2.61050108,18.6347312 2.53993491,18.5991958 2.44861398,18.4348444 C2.39465161,18.337122 2.33238734,18.2793769 2.27842497,18.2793769 C2.23276451,18.2793769 2.19540595,18.2527253 2.19540595,18.2260738 C2.19540595,18.1327932 2.41125542,18.146119 2.53578396,18.2438415 C2.60219918,18.2927027 2.77653914,18.3504478 2.93012434,18.3726574 C3.16257762,18.4081928 3.21238904,18.4037509 3.2414457,18.3460058 C3.26220045,18.3104704 3.30786092,18.2793769 3.34937044,18.2793769 C3.3950309,18.2793769 3.35767234,18.2171899 3.2331438,18.0794901 C3.13352096,17.9728838 3.03804908,17.8929291 3.02144527,17.9062549 C2.96333196,17.9417903 2.93427529,17.8307421 2.98408671,17.768555 C3.04635098,17.6886003 3.00899242,17.5686682 2.92597339,17.5686682 C2.89276578,17.5686682 2.85955817,17.6042037 2.84710532,17.6486229 C2.83050151,17.7152519 2.82635056,17.7152519 2.7972939,17.6397391 C2.77238819,17.581994 2.78069009,17.5464586 2.80974675,17.5331328 C2.88446388,17.5064812 2.82635056,17.4354104 2.73087868,17.4354104 C2.66446346,17.4354104 2.6520106,17.4087588 2.6603125,17.2843848 C2.66446346,17.1688946 2.63540679,17.0933818 2.53578396,16.9734498 C2.46106684,16.8846112 2.40295352,16.7913307 2.40295352,16.769121 C2.40295352,16.7469114 2.35729305,16.7158179 2.29917973,16.6980502 C2.19540595,16.6713986 2.12483977,16.5159311 2.14974548,16.3604636 C2.15389643,16.3160443 2.13729263,16.2805088 2.10823596,16.2805088 C2.07917931,16.2805088 2.0708774,16.2360896 2.07917931,16.1694606 C2.09578311,16.0939478 2.07917931,16.0406447 2.03351884,16.0095512 C1.97955647,15.9740158 1.98370742,15.9695738 2.06672645,15.9784577 C2.13729263,15.9873415 2.17880214,16.0317608 2.21200975,16.1383671 C2.26597212,16.3116024 2.33653829,16.3693474 2.4984254,16.3693474 C2.58144443,16.3693474 2.61050108,16.3915571 2.61050108,16.458186 C2.61050108,16.5070472 2.63540679,16.5470246 2.66446346,16.5470246 C2.69767107,16.5470246 2.7972939,16.6047697 2.88861483,16.6758405 C3.06710574,16.8135403 3.10861525,16.8135403 3.10861525,16.6625147 C3.1044643,16.5381407 2.96333196,16.3382539 2.92597339,16.4093248 C2.90936958,16.4359764 2.84710532,16.458186 2.78484104,16.458186 L2.67276536,16.458186 L2.76408629,16.3782313 L2.85955817,16.3027185 L2.74748248,16.2938346 C2.64785965,16.2893927 2.52748206,16.1827864 2.52748206,16.0983898 C2.52748206,16.085064 2.60635014,16.0584124 2.70597297,16.0495285 C2.8055958,16.0362028 2.93842625,15.9917835 2.99653957,15.9473642 C3.1044643,15.8718514 3.10861525,15.8629675 3.04220003,15.7874547 C2.99653957,15.7341516 2.98408671,15.6675227 3.00069052,15.5964518 C3.02559622,15.4898455 3.01729432,15.4898455 2.88031293,15.5120552 C2.78484104,15.5298229 2.73502963,15.520939 2.73502963,15.4854036 C2.73502963,15.458752 2.76408629,15.4365424 2.7972939,15.4365424 C2.85125627,15.4365424 2.84710532,15.4098908 2.77653914,15.2588652 C2.73087868,15.1655847 2.65616155,15.0634203 2.61050108,15.0367687 C2.56484062,15.0101171 2.52748206,14.9523721 2.52748206,14.9035108 C2.52748206,14.8546496 2.47767064,14.7880207 2.41540637,14.7524853 C2.33238734,14.703624 2.31993449,14.6858563 2.37389685,14.6814144 C2.46521778,14.6814144 2.46521778,14.6236693 2.3697459,14.5303888 C2.29502878,14.4637599 2.28672688,14.4637599 2.21200975,14.5525985 C2.13314167,14.645879 2.13314167,14.645879 2.24936831,14.7524853 C2.37389685,14.8679754 2.36559495,14.9479301 2.23276451,14.9479301 C2.17880214,14.9479301 2.12483977,14.8857431 2.0625755,14.7480433 C2.01276408,14.6369951 1.95880172,14.5481565 1.94219791,14.5481565 C1.9255941,14.5481565 1.87163173,14.4770857 1.82182032,14.397131 C1.7720089,14.3038504 1.70974463,14.2505473 1.68068797,14.2638731 C1.64748036,14.2771989 1.6101218,14.2638731 1.59351799,14.2372215 C1.57276323,14.2016861 1.54785753,14.2016861 1.50634801,14.2416634 C1.4731404,14.268315 1.41502708,14.2816408 1.36936661,14.268315 C1.30710235,14.2505473 1.28219664,14.2860827 1.24068712,14.4415502 C1.21163046,14.5481565 1.1742719,14.6369951 1.1576681,14.6369951 C1.09540382,14.6369951 0.99163004,14.4682018 0.99163004,14.3615955 C0.99163004,14.2238957 1.27804568,13.9262865 1.41502708,13.9262865 C1.49804611,13.9262865 1.49804611,13.9218446 1.43578184,13.8463318 C1.39427232,13.8019125 1.36521566,13.7308416 1.36521566,13.6908643 C1.36521566,13.5664903 1.17842285,13.5975838 1.09540382,13.7308416 L1.02483765,13.8463318 L0.950120525,13.7130739 C0.90861101,13.642003 0.854648642,13.5664903 0.829742932,13.5531645 C0.804837227,13.5353967 0.784082469,13.4687678 0.784082469,13.4021389 C0.779931517,13.3355099 0.755025807,13.2333456 0.721818197,13.1711586 C0.688610586,13.1089716 0.663704877,12.9712718 0.663704877,12.8602236 C0.663704877,12.704756 0.672006781,12.6781045 0.705214392,12.7402915 C0.738422002,12.8024785 0.763327712,12.8069204 0.829742932,12.7669431 C0.937667668,12.704756 1.04144146,12.7491753 1.02483765,12.8468978 C1.01653575,12.9090848 1.04559241,12.9312944 1.17012095,12.9401783 C1.25729093,12.9490621 1.32370615,12.9357363 1.32370615,12.9090848 C1.32370615,12.8824332 1.28219664,12.8557816 1.23238522,12.8557816 C1.15351714,12.8513397 1.16181904,12.8424558 1.26144188,12.8158043 C1.33200805,12.7980366 1.46068755,12.7758269 1.55200848,12.771385 C1.68898987,12.7580592 1.69729178,12.7536173 1.6018199,12.7402915 C1.53540467,12.7269657 1.47729135,12.6869883 1.4648385,12.647011 C1.45238564,12.6070336 1.42332898,12.5359627 1.40257423,12.4871015 C1.36936661,12.4249145 1.37766852,12.3849371 1.44408374,12.3094243 C1.49389516,12.2561212 1.53125372,12.1628407 1.53125372,12.1095375 C1.53125372,12.0206989 1.52295182,12.0118151 1.4648385,12.0651182 C1.43163089,12.0962117 1.41087613,12.1583987 1.42332898,12.20726 C1.43993279,12.2872147 1.42332898,12.2916566 1.23653617,12.2738889 C1.04144146,12.2516793 1.02483765,12.2605631 0.987479088,12.3671694 C0.93351672,12.5093112 0.879554352,12.5492885 0.717667244,12.5492885 C0.572383946,12.5492885 0.518421578,12.4959854 0.476912063,12.3094243 L0.447855405,12.1806084 L0.593138704,12.3005405 L0.738422002,12.4160306 L0.808988175,12.2738889 C0.846346738,12.1939342 0.896158157,12.1139795 0.916912915,12.1006537 C0.94181862,12.082886 0.958422426,12.0029312 0.962573378,11.9140927 C0.96672433,11.8030444 0.987479088,11.7497413 1.04144146,11.7364155 C1.13276239,11.7097639 1.13691334,11.6031576 1.05389431,11.5276448 C0.970875283,11.4521321 0.975026231,11.4077128 1.09125287,11.1678486 C1.14106429,11.0523585 1.19917761,10.9146587 1.21163046,10.8613555 C1.22823427,10.7947266 1.25729093,10.768075 1.29464949,10.7858427 C1.38181947,10.8213782 1.35691376,10.705888 1.25313997,10.5859559 C1.20747951,10.5282108 1.15351714,10.4393723 1.13691334,10.3860691 C1.11615858,10.3016725 1.12861143,10.2839048 1.19502666,10.2839048 C1.31540425,10.2839048 1.30710235,10.1328792 1.1825738,10.0706922 C1.09955478,10.0307148 1.07880002,10.0395987 1.03313955,10.1284372 C1.00408289,10.1861823 0.99163004,10.266137 1.00408289,10.3016725 C1.02483765,10.3549756 1.00408289,10.3638595 0.912761962,10.3460918 C0.846346738,10.328324 0.779931517,10.3416498 0.767478664,10.3683014 C0.667855829,10.5370947 0.535025383,10.270579 0.626346314,10.0929018 C0.667855829,10.0085052 0.680308682,10.0040632 0.692761539,10.0751341 C0.713516292,10.1728565 0.755025807,10.1728565 0.842195789,10.0662502 C0.8837053,10.017389 0.96672433,9.95964391 1.03313955,9.9285504 C1.12861143,9.88413115 1.17012095,9.88857305 1.25729093,9.95076005 C1.36106471,10.0262729 1.37351757,10.0262729 1.44823469,9.95076005 C1.53125372,9.87080535 1.53125372,9.87080535 1.44408374,9.768641 L1.35276281,9.6664766 L1.47729135,9.51545104 C1.69314083,9.24893529 1.69314083,8.97353569 1.4731404,8.60485558 C1.40672518,8.48936543 1.33200805,8.41829457 1.28219664,8.41829457 C1.1825738,8.41829457 0.96672433,8.20952392 0.929365768,8.07626606 C0.892007205,7.92968237 1.0372905,7.79642451 1.24068712,7.79642451 C1.38181947,7.79642451 1.41502708,7.77865681 1.44823469,7.68093436 C1.50634801,7.52546686 1.51049897,7.52990876 1.3278571,7.52990876 C1.1825738,7.52990876 1.16181904,7.51658301 1.12030953,7.392209 C1.06219621,7.20564795 1.05804526,7.2145318 1.17842285,7.2456253 C1.24068712,7.26339305 1.31125329,7.25006725 1.34446091,7.21897375 C1.39427232,7.17455445 1.41917803,7.17455445 1.46898945,7.21897375 C1.50634801,7.25006725 1.53955562,7.26783495 1.54785753,7.2589511 C1.59766894,7.1967641 1.68898987,6.96134189 1.66823512,6.93913224 C1.65578226,6.92580645 1.68483892,6.8591775 1.73465034,6.79254859 L1.82597127,6.66817454 L1.71389558,6.57489404 C1.6101218,6.48605549 1.60597084,6.47717163 1.66823512,6.31726218 C1.73049939,6.15735273 1.73465034,6.15735273 1.86748078,6.20621393 C1.97955647,6.24619129 2.00861313,6.24619129 2.02521694,6.19288818 C2.03351884,6.15735273 2.10823596,6.06851413 2.18710404,5.98855943 L2.32823639,5.85085963 L2.22031165,5.77534683 C2.10823596,5.69539212 2.07917931,5.60211162 2.15389643,5.55325037 C2.22031165,5.50883112 2.361444,5.57546002 2.361444,5.64653092 C2.361444,5.75313718 2.43616113,5.71760177 2.55238777,5.55325037 C2.66446346,5.39778287 2.74748248,5.36668937 2.85955817,5.44220217 C2.90936958,5.47329567 2.90521864,5.49994722 2.82219961,5.59322777 C2.74748248,5.67762442 2.73087868,5.73536947 2.74748248,5.85085963 C2.75993533,5.93081433 2.74748248,6.08183993 2.72257677,6.18400428 C2.68521821,6.33947183 2.68936916,6.40165883 2.74333153,6.52603284 C2.8055958,6.66373264 2.8055958,6.68594229 2.74748248,6.73480349 C2.71427487,6.77033894 2.60219918,6.79699049 2.50257635,6.79699049 C2.31993449,6.79699049 2.31993449,6.79699049 2.31993449,6.96134189 C2.31993449,7.05018045 2.34068924,7.13901905 2.361444,7.1523448 C2.38634971,7.1656706 2.40295352,7.23674145 2.40295352,7.31225425 C2.40295352,7.41886056 2.41955732,7.4410702 2.5067273,7.4410702 C2.57729347,7.4410702 2.63955775,7.39665091 2.70182202,7.2856027 C2.80974675,7.10792555 2.83880341,7.09904165 2.90106768,7.2145318 C2.99238861,7.40109285 2.82219961,7.52990876 2.48597254,7.52990876 C2.29917973,7.52990876 2.27427402,7.54323456 2.2161607,7.66316666 C2.17880214,7.73867946 2.13729263,7.79642451 2.12068882,7.79642451 C2.09993406,7.79642451 2.05012265,7.82307611 2.00446218,7.85861151 C1.92974505,7.92079852 1.92974505,7.92524046 2.04182074,8.05405641 C2.12068882,8.14289497 2.18710404,8.17843042 2.24106641,8.16510462 C2.29917973,8.14733692 2.31993449,8.16510462 2.31993449,8.23173357 C2.31993449,8.40052687 2.22861356,8.55155243 2.12899072,8.55155243 C2.01276408,8.55155243 1.83012222,8.80030048 1.89653744,8.87137133 C1.9255941,8.90246483 1.91314125,8.94244218 1.85917888,9.00018728 C1.73049939,9.13788708 1.7720089,9.64426695 1.92144315,9.706454 C1.97125457,9.7286636 1.99200933,9.74643135 1.96710362,9.74643135 C1.94634886,9.75087325 1.97125457,9.78196675 2.02106599,9.82194415 C2.15804738,9.9241085 2.13314167,10.0307148 1.95049981,10.141763 C1.82597127,10.2172758 1.79276366,10.266137 1.78861271,10.3594175 C1.78861271,10.4304884 1.77615985,10.5415366 1.75955605,10.6126075 C1.72634844,10.7414234 1.73049939,10.7414234 1.86748078,10.7103299 C1.94219791,10.6970041 2.01276408,10.6659106 2.02936789,10.643701 C2.04182074,10.6259333 2.08748121,10.5948398 2.13314167,10.5770721 C2.21200975,10.5548624 2.2161607,10.5726301 2.2244626,10.8169362 C2.22861356,10.9857295 2.2078588,11.0967777 2.17465119,11.1278712 C2.12899072,11.1678486 2.14144358,11.2211518 2.24936831,11.3988289 C2.42370827,11.7008801 2.44446303,12.0295828 2.29917973,12.1939342 C2.21200975,12.2916566 2.20370785,12.327192 2.23691546,12.4782176 C2.25767021,12.5759401 2.31993449,12.704756 2.38219876,12.7669431 C2.48182159,12.8735493 2.49427445,12.8779913 2.53163301,12.8069204 C2.58974633,12.6958722 2.6686144,12.704756 2.61050108,12.8113623 C2.57729347,12.8868751 2.58974633,12.9179686 2.71427487,13.0156911 C2.83465246,13.1178554 2.85125627,13.1533909 2.83050151,13.2644391 C2.80144485,13.4243485 2.88861483,13.4732097 3.07125669,13.393255 C3.20823809,13.331068 3.27050236,13.3577196 3.19993619,13.4510001 C3.16257762,13.4998613 3.17503048,13.5353967 3.25389855,13.6153515 C3.31201187,13.6730965 3.35767234,13.7530513 3.35767234,13.7974706 C3.35767234,13.9529381 3.40748376,14.0151251 3.52786134,14.0151251 C3.66484274,14.0151251 3.67314464,14.0595444 3.59012562,14.3171762 C3.53616325,14.4770857 3.53616325,14.5037372 3.59012562,14.5525985 C3.64408799,14.6014597 3.63578608,14.6192274 3.51540849,14.6858563 C3.33276663,14.7924626 3.31616283,14.7880207 3.31616283,14.6503209 C3.31616283,14.57925 3.27880426,14.4682018 3.2331438,14.392689 C3.15842667,14.2727569 3.15842667,14.2549892 3.22069094,14.1839184 C3.28295521,14.1084056 3.28295521,14.1039636 3.20408714,14.1039636 C3.15427572,14.1039636 3.09201145,14.0462186 3.04220003,13.9484961 C2.97163386,13.8063544 2.959181,13.7974706 2.91352054,13.8685414 C2.80144485,14.0284509 2.87201102,14.2327796 3.04220003,14.2416634 C3.12521906,14.2416634 3.12521906,14.2461054 3.03804908,14.2816408 C2.96333196,14.3171762 2.9425772,14.3571536 2.9425772,14.4948534 C2.9425772,14.645879 2.97163386,14.6991821 3.15012477,14.8901851 C3.31201187,15.0634203 3.34937044,15.1300492 3.32861568,15.210004 C3.31201187,15.2899587 3.32861568,15.334378 3.4033328,15.396565 C3.5320123,15.5031713 3.57352181,15.5031713 3.70635226,15.3876811 C3.79352224,15.3121684 3.80597509,15.2810748 3.77276748,15.210004 C3.74786177,15.1655847 3.70635226,15.1256073 3.6772956,15.1256073 C3.64408799,15.1256073 3.62333323,15.0634203 3.61918228,14.9701398 C3.61503132,14.8857431 3.62748418,14.8146723 3.64408799,14.8146723 C3.66069179,14.8146723 3.73540892,14.8813012 3.81012604,14.9656978 C3.88484317,15.0500945 3.98861695,15.1300492 4.04257932,15.143375 C4.11729644,15.1655847 4.13390025,15.1966782 4.13390025,15.3610296 C4.13390025,15.5298229 4.15465501,15.5786841 4.2999383,15.7341516 C4.45352349,15.898503 4.47427825,15.9118288 4.53654254,15.8451998 C4.59465585,15.7785709 4.60710872,15.7830128 4.6859768,15.8718514 C4.73578822,15.9251545 4.79805246,15.9695738 4.83126009,15.9695738 C4.86861864,15.9695738 4.89352437,16.0139931 4.89352437,16.080622 C4.89352437,16.147251 4.92258103,16.2538573 4.95578861,16.3249281 C5.03465669,16.4892795 4.98484527,16.4981634 4.85201485,16.3471378 L4.75239201,16.2316476 L4.71918438,16.3293701 C4.67352393,16.4626279 4.78559963,16.6491889 4.8893734,16.6136535 C4.93088292,16.6003277 4.98899624,16.6180954 5.0180529,16.6625147 C5.06786432,16.7247017 5.08031718,16.7202598 5.14258143,16.6314212 L5.21314761,16.5336988 L5.30446855,16.6314212 C5.43314805,16.769121 5.41654421,16.8579596 5.26711,16.8579596 C5.20069474,16.8579596 5.14258143,16.8668435 5.14258143,16.8757273 C5.14258143,16.8890531 5.18824192,16.9912175 5.24635524,17.1067076 C5.30446855,17.2221978 5.350129,17.3421299 5.350129,17.3687814 C5.350129,17.3998749 5.37918566,17.4354104 5.41239329,17.4531781 C5.52031802,17.4975974 5.4788085,17.5953198 5.31277045,17.6930422 C5.22560047,17.7463454 5.1301286,17.8218582 5.09692098,17.8618356 C5.06786432,17.9018129 5.00144911,17.9506742 4.94748672,17.9728838 C4.82295819,18.021745 4.82710912,18.0928159 4.95578861,18.1550029 C5.08861908,18.2216318 5.24635524,18.1105836 5.27956282,17.9284645 C5.31692142,17.7419035 5.45805374,17.71081 5.74446939,17.8263001 C5.96446983,17.9195806 6.06409267,17.8884871 5.88560175,17.7907647 C5.82748844,17.7552293 5.8108846,17.7152519 5.82748844,17.6663907 C5.84409223,17.6264133 5.86069602,17.5686682 5.86069602,17.5375747 C5.86069602,17.5064812 5.87729986,17.4931554 5.89390365,17.5064812 C5.91050744,17.5153651 5.94371507,17.4931554 5.96862076,17.4487361 C6.00597931,17.3732234 6.01013028,17.3732234 6.08899836,17.4487361 C6.13465881,17.4931554 6.19692309,17.5242489 6.23013072,17.5153651 C6.26333831,17.5064812 6.35050828,17.5775521 6.42522543,17.6708326 C6.53315017,17.7996485 6.55390493,17.8485098 6.51654637,17.897371 C6.44598019,17.9906515 6.52484827,18.026187 6.6576787,17.959558 C6.75315057,17.9151387 6.77390533,17.9151387 6.81126392,17.9862096 C6.84032058,18.0439547 6.86522627,18.0528385 6.91088672,18.0084192 C6.97730198,17.9506742 7.11428337,17.9906515 7.07277385,18.0528385 C7.06032098,18.0794901 7.08522671,18.1194675 7.13088716,18.146119 C7.18484955,18.1727706 7.20560427,18.2171899 7.18900048,18.2616092 C7.16824572,18.3237962 7.17654761,18.3282381 7.25541569,18.2793769 C7.30937808,18.2527253 7.37994426,18.2393995 7.41315185,18.2527253 C7.45051044,18.270493 7.51277468,18.2527253 7.55013324,18.212748 C7.61239752,18.150561 7.63730325,18.150561 7.76598271,18.208306 C7.96107746,18.2971446 8.02749267,18.3859832 7.9486246,18.4526121 C7.91126604,18.4837056 7.84900176,18.4970314 7.79503937,18.4792637 C7.73277512,18.4570541 7.71202036,18.4659379 7.72447323,18.5059153 C7.73692605,18.5414507 7.84069986,18.58587 7.96937936,18.6036377 C8.34711591,18.6658247 8.37202164,18.6747086 8.51730493,18.8257342 C8.62938064,18.9367824 8.67919206,18.958992 8.72900343,18.9234566 C8.77881485,18.8923631 8.80787151,18.9056889 8.85768293,18.9812017 C8.94070198,19.1011337 9.00296626,19.1100176 9.00296626,18.9945274 C9.00296626,18.9367824 9.04032482,18.9012469 9.13994766,18.8834792 C9.35579713,18.8390599 9.47202376,18.7324536 9.451269,18.5903119 C9.43881613,18.4925895 9.451269,18.461496 9.51768421,18.4437283 C9.56749563,18.4348444 9.63806181,18.4081928 9.67957134,18.3904251 C9.74598655,18.3593316 9.75428844,18.3815413 9.74183558,18.5947538 L9.72938276,18.834618 L10.1735345,18.834618 C10.4142897,18.834618 10.6301392,18.8479438 10.646743,18.8701534 C10.7007054,18.9278985 11.0161777,18.9012469 11.1116496,18.8301761 C11.1863667,18.7768729 11.1946686,18.7457794 11.161461,18.6747086 C11.1282533,18.6080796 11.1324043,18.5903119 11.1739138,18.5903119 C11.2071214,18.5903119 11.24448,18.6302893 11.2569328,18.6835924 C11.2776876,18.7635471 11.2984424,18.772431 11.4686314,18.7457794 C11.672028,18.710244 11.8048585,18.7768729 11.7674999,18.8834792 C11.755047,18.9145727 11.8090094,18.9812017 11.8837265,19.0300629 C11.9584436,19.0789241 12.0414627,19.1722046 12.0663684,19.2343916 C12.1078779,19.332114 12.099576,19.3632075 11.9833493,19.5053493 C11.8546698,19.6608168 11.842217,19.6652587 11.6305185,19.6386071 C11.3980652,19.6119556 10.812781,19.7230038 10.8501396,19.7851908 C10.8584415,19.8074004 10.8252339,19.8118424 10.7754225,19.8029585 C10.7131582,19.7896327 10.6259882,19.8296101 10.5222145,19.9184487 C10.3686293,20.0472646 9.97428888,20.2338256 9.84976031,20.2338256 C9.81655273,20.2338256 9.791647,20.2649191 9.79994894,20.3048965 C9.81655273,20.4159447 9.72108086,20.4292705 9.66711847,20.3271061 Z M6.72824488,18.4925895 C6.83616961,18.4126348 6.92749056,18.33268 6.92749056,18.3193543 C6.92749056,18.2527253 6.78220727,18.2349576 6.74069774,18.2927027 C6.70333919,18.3504478 6.68258443,18.337122 6.62862204,18.2305157 C6.54560303,18.0750482 6.36711212,18.0528385 6.32560259,18.1905383 C6.30484783,18.2660511 6.45428209,18.6347312 6.50824444,18.6347312 C6.5206973,18.6347312 6.61616917,18.5681023 6.72824488,18.4925895 Z M4.06333407,17.8796033 C4.06333407,17.8573936 4.03012646,17.835184 3.9927679,17.835184 C3.93050363,17.835184 3.92635268,17.8440678 3.98031505,17.8796033 C4.05918313,17.9329064 4.06333407,17.9329064 4.06333407,17.8796033 Z M3.88484317,17.5864359 C3.91389982,17.5064812 3.8391827,17.4132007 3.78106938,17.4531781 C3.73125796,17.4842716 3.76446557,17.6575068 3.81842795,17.6575068 C3.84333365,17.6575068 3.86823936,17.6264133 3.88484317,17.5864359 Z M3.44069137,17.1333592 C3.44069137,17.0889399 3.3950309,17.0045433 3.33691758,16.9467982 C3.24559665,16.8579596 3.2331438,16.8535177 3.20823809,16.9201466 C3.17503048,17.0089852 3.29540807,17.2133139 3.37842709,17.2133139 C3.4116347,17.2133139 3.44069137,17.1777785 3.44069137,17.1333592 Z M2.59389728,16.6891663 C2.56068967,16.6180954 2.50257635,16.5381407 2.46936874,16.5070472 C2.361444,16.4093248 2.38634971,16.5914439 2.4984254,16.711376 C2.62710489,16.8446338 2.66446346,16.83575 2.59389728,16.6891663 Z M4.17125881,15.9784577 C4.07993788,15.956248 4.04673027,15.9917835 4.08408883,16.0584124 C4.10484359,16.0939478 4.1297493,16.0895059 4.17540978,16.0495285 C4.23767402,15.9962254 4.23352309,15.9917835 4.17125881,15.9784577 Z M3.9761641,15.6852904 C4.03842837,15.6053357 4.00106981,15.583126 3.76861653,15.5431487 C3.59842752,15.5120552 3.59012562,15.5164971 3.64823894,15.5875679 C3.70220131,15.6586388 3.82672985,15.7385935 3.90144697,15.7430355 C3.91805078,15.7474774 3.95125839,15.7208258 3.9761641,15.6852904 Z M1.88408459,13.2599972 C1.95880172,13.1756005 1.95465076,13.1711586 1.87163173,13.1711586 C1.80936747,13.1711586 1.7803108,13.1978102 1.7803108,13.2599972 C1.7803108,13.3088584 1.78861271,13.3488357 1.79276366,13.3488357 C1.80106556,13.3488357 1.84257508,13.3088584 1.88408459,13.2599972 Z M1.55200848,13.1711586 C1.51464991,13.1000877 1.46898945,13.0379007 1.44823469,13.0379007 C1.38181947,13.0379007 1.35276281,13.1356231 1.40672518,13.1711586 C1.43578184,13.1889263 1.44408374,13.2289037 1.43163089,13.2555552 C1.41087613,13.2866487 1.43993279,13.3044164 1.51049897,13.3044164 C1.61427275,13.3044164 1.61427275,13.3044164 1.55200848,13.1711586 Z M1.52295182,10.7192138 C1.59766894,10.6392591 1.58521609,10.5593043 1.48559326,10.5015593 C1.36936661,10.4349303 1.31540425,10.519327 1.38181947,10.6659106 C1.43578184,10.7858427 1.45238564,10.7947266 1.52295182,10.7192138 Z M1.82182032,6.37500724 C1.82182032,6.35279759 1.81351841,6.33058794 1.80521651,6.33058794 C1.79276366,6.33058794 1.7720089,6.35279759 1.75955605,6.37500724 C1.74710319,6.40165883 1.75540509,6.41942654 1.77615985,6.41942654 C1.80106556,6.41942654 1.82182032,6.40165883 1.82182032,6.37500724 Z" id="Shape"></path>
                    <path d="M4.44522159,20.2382675 C4.34974972,20.1982902 4.23767402,20.1272193 4.19616454,20.087242 C4.13390025,20.0161711 4.13390025,20.0028453 4.1878626,19.9628679 C4.25427785,19.9184487 4.2999383,19.9228906 4.66107106,20.0294969 C4.93918482,20.1094516 5.0180529,20.1627547 4.95163769,20.2338256 C4.87276961,20.3182223 4.62786348,20.3182223 4.44522159,20.2382675 Z" id="Path"></path>
                    <path d="M9.08598527,20.2338256 C9.08598527,20.211616 9.10674003,20.1894063 9.13164572,20.1894063 C9.15240048,20.1894063 9.16070242,20.211616 9.14824955,20.2338256 C9.13579669,20.2604772 9.11504193,20.2782449 9.10258906,20.2782449 C9.09428716,20.2782449 9.08598527,20.2604772 9.08598527,20.2338256 Z" id="Path"></path>
                    <path d="M13.1290119,20.0739162 C13.1414648,20.0339388 13.1539176,19.9939614 13.1539176,19.9850776 C13.1539176,19.9273325 13.2327857,19.9806357 13.2493896,20.0561485 C13.2659933,20.1227774 13.2493896,20.144987 13.1871253,20.144987 C13.1290119,20.144987 13.1124081,20.1227774 13.1290119,20.0739162 Z" id="Path"></path>
                    <path d="M13.4527862,20.0472646 C13.465239,20.0161711 13.5150504,19.9806357 13.5690128,19.9761937 C13.6561828,19.9628679 13.6603337,19.9673099 13.6146732,20.0294969 C13.548258,20.1138935 13.4320314,20.1227774 13.4527862,20.0472646 Z" id="Path"></path>
                    <path d="M11.9791984,19.8296101 C11.8090094,19.7318876 11.8090094,19.6830264 11.9791984,19.6341652 C12.0456136,19.6208394 12.1286327,19.5719782 12.1701422,19.5320008 C12.2448593,19.46093 12.2531612,19.4653719 12.3486331,19.5808621 C12.4773126,19.7407715 12.4731616,19.8074004 12.3444821,19.8695874 C12.2033498,19.9406583 12.1659912,19.9362164 11.9791984,19.8296101 Z" id="Path"></path>
                    <path d="M12.8633511,19.834052 C12.8633511,19.7407715 12.8965586,19.7274457 13.0044834,19.771865 C13.0584458,19.7940746 13.0625967,19.8118424 13.0252381,19.8607036 C12.954672,19.9539841 12.8633511,19.9362164 12.8633511,19.834052 Z" id="Path"></path>
                    <path d="M13.4610881,19.7585392 C13.3946728,19.6830264 13.3946728,19.6785845 13.5192014,19.6386071 C13.635428,19.6030717 13.6437299,19.5897459 13.6229752,19.46093 C13.6063713,19.3854172 13.5690128,19.2965786 13.5399561,19.2610432 C13.4569371,19.1722046 13.5025976,19.149995 13.6561828,19.20774 C13.7308999,19.2343916 13.8512775,19.2566013 13.9301455,19.2566013 C14.0090136,19.2566013 14.1086365,19.2788109 14.1542969,19.3054625 C14.2290141,19.3454398 14.2207122,19.3587656 14.0463722,19.46093 C13.9425984,19.5186751 13.8263718,19.5675363 13.7931642,19.5675363 C13.7599566,19.5675363 13.7101452,19.6297233 13.6893904,19.7007941 C13.639579,19.8518197 13.5648618,19.8695874 13.4610881,19.7585392 Z" id="Path"></path>
                    <path d="M15.5697713,19.6075136 C15.4992052,19.5542105 15.4369409,19.4964654 15.4369409,19.4786977 C15.4369409,19.4120688 15.6527904,19.2921367 15.7897718,19.2876948 C15.8727908,19.2832528 15.9184513,19.2610432 15.9059984,19.2255078 C15.860338,19.1055757 16.1841122,18.6791505 16.3210936,18.6791505 C16.3501502,18.6791505 16.4912826,18.6169635 16.6324149,18.5458926 C16.7776982,18.4703798 16.9229815,18.4126348 16.9520382,18.4126348 C16.9852458,18.4126348 17.0101515,18.4792637 17.0226044,18.58587 C17.0350572,18.7324536 17.0143025,18.7813149 16.8690191,18.9545501 C16.7652454,19.083366 16.6407168,19.1766465 16.536943,19.212182 C16.4456221,19.2432755 16.2920369,19.3143463 16.196565,19.3720914 C16.1010931,19.4298365 16.0014703,19.4786977 15.9724137,19.4786977 C15.943357,19.4786977 15.8727908,19.5275589 15.8105265,19.5897459 L15.7067528,19.6963522 L15.5697713,19.6075136 Z" id="Path"></path>
                    <path d="M12.9380682,19.6252813 C12.8467473,19.5986298 12.8425963,19.5408847 12.9297663,19.5053493 C13.037691,19.46093 13.0708986,19.4742558 13.0708986,19.5675363 C13.0708986,19.6563749 13.0625967,19.6608168 12.9380682,19.6252813 Z" id="Path"></path>
                    <path d="M14.4822221,19.4431623 C14.4822221,19.394301 14.4241088,19.332114 14.3327878,19.2876948 C14.2207122,19.2299497 14.1916555,19.1899723 14.2124103,19.1322272 C14.2248631,19.0922499 14.2497688,19.0034113 14.2622217,18.9323404 C14.2788255,18.834618 14.2954293,18.8212922 14.3410897,18.8612696 C14.407505,18.9190147 14.494675,18.8612696 14.6980716,18.6169635 C14.8018454,18.4970314 14.8226001,18.4881476 14.9554306,18.5325668 C15.088261,18.5769861 15.1048648,18.5725442 15.175431,18.461496 C15.2127896,18.399309 15.2418462,18.3193543 15.2376952,18.2838188 C15.2252424,18.2393995 15.2667519,18.2305157 15.428639,18.2571673 L15.6361866,18.2882608 L15.7109037,18.1150255 C15.773168,17.9862096 15.8229794,17.9417903 15.9267532,17.9195806 C16.0097722,17.9018129 16.113546,17.8307421 16.1758103,17.7463454 L16.2878859,17.6086456 L16.4082635,17.7419035 L16.5327921,17.8796033 L16.4373202,18.1816545 L16.3459993,18.4792637 L15.8271303,18.834618 C15.5407147,19.0300629 15.2667519,19.2299497 15.2169405,19.2788109 C15.1214686,19.3720914 14.7312792,19.523117 14.577694,19.523117 C14.5112788,19.523117 14.4822221,19.4964654 14.4822221,19.4431623 Z" id="Path"></path>
                    <path d="M13.124861,19.3143463 C13.1622195,19.274369 13.2037291,19.2521593 13.2203329,19.2654851 C13.2618424,19.3099044 13.1954272,19.3898591 13.1207101,19.3898591 C13.0584458,19.3898591 13.0584458,19.3854172 13.124861,19.3143463 Z" id="Path"></path>
                    <path d="M12.273916,19.2788109 C12.2614631,19.2654851 12.3071235,19.1944142 12.3735388,19.1233434 C12.4607088,19.025621 12.5146711,18.9989694 12.5603316,19.0300629 C12.614294,19.0611564 12.5976902,19.087808 12.4814635,19.1855304 C12.3278783,19.3054625 12.3112745,19.3143463 12.273916,19.2788109 Z" id="Path"></path>
                    <path d="M5.24635524,19.0744822 C5.20899668,18.958992 5.28786476,18.8612696 5.35427997,18.9323404 C5.40409139,18.9856436 5.36673284,19.1677627 5.30861948,19.1677627 C5.28786476,19.1677627 5.2588081,19.1277853 5.24635524,19.0744822 Z" id="Path"></path>
                    <path d="M13.6520318,18.3859832 L13.6520318,18.1905383 L13.8305227,18.1905383 C13.9259946,18.1905383 14.0463722,18.1772125 14.1003346,18.1638867 C14.3327878,18.0972578 14.0463722,18.4526121 13.8014661,18.5325668 L13.6520318,18.5814281 L13.6520318,18.3859832 Z" id="Path"></path>
                    <path d="M9.87466605,18.3726574 C9.87466605,18.3237962 10.0365531,18.2616092 10.0697608,18.2927027 C10.0822136,18.3060285 10.0780627,18.337122 10.0614589,18.3637735 C10.0282512,18.4215186 9.87466605,18.4304025 9.87466605,18.3726574 Z" id="Path"></path>
                    <path d="M10.8293849,18.2793769 C10.8293849,18.2571673 10.8501396,18.2349576 10.8708944,18.2349576 C10.8958001,18.2349576 10.9124039,18.2571673 10.9124039,18.2793769 C10.9124039,18.3060285 10.8958001,18.3237962 10.8708944,18.3237962 C10.8501396,18.3237962 10.8293849,18.3060285 10.8293849,18.2793769 Z" id="Path"></path>
                    <path d="M13.1995781,18.2171899 C13.0335401,18.0306289 13.1331629,17.9329064 13.3241067,18.0972578 C13.4112766,18.1727706 13.4154276,18.1860964 13.3531633,18.2482834 C13.29505,18.3149123 13.2825971,18.3104704 13.1995781,18.2171899 Z" id="Path"></path>
                    <path d="M11.1324043,18.1327932 C11.1407062,18.1016997 11.1905176,18.0706062 11.2403291,18.0661643 C11.3565557,18.0483966 11.3233481,18.1239094 11.2029705,18.1594448 C11.1448572,18.1727706 11.1199515,18.1638867 11.1324043,18.1327932 Z" id="Path"></path>
                    <path d="M16.5203392,17.7019261 C16.4663769,17.6219714 16.4082635,17.5775521 16.3792069,17.5953198 C16.3501502,17.6130875 16.3626031,17.5864359 16.4041126,17.5420167 C16.4788297,17.45762 16.4829807,17.45762 16.5618488,17.5642263 C16.628264,17.6486229 16.6739244,17.835184 16.628264,17.835184 C16.6199621,17.835184 16.5743016,17.772997 16.5203392,17.7019261 Z" id="Path"></path>
                    <path d="M17.5539262,16.6847244 C17.5539262,16.6625147 17.5248695,16.6092116 17.4875109,16.5736762 C17.4293976,16.5070472 17.4376995,16.4848376 17.5788318,16.3027185 C17.6743037,16.1739026 17.7490209,16.1161575 17.7739266,16.1428091 C17.7988323,16.1694606 17.8569456,16.1650187 17.9358137,16.1383671 C18.0935498,16.0761801 18.1309084,16.1250413 18.0188327,16.2494153 C17.9690213,16.3071604 17.9275118,16.3737894 17.9275118,16.4004409 C17.9275118,16.4670699 17.6743037,16.7247017 17.6078885,16.7247017 C17.5788318,16.7247017 17.5539262,16.706934 17.5539262,16.6847244 Z" id="Path"></path>
                    <path d="M18.3841164,16.018435 C18.3218521,15.8896191 18.3301541,15.8807353 18.4878902,15.8807353 C18.6580792,15.8807353 18.674683,15.9295965 18.5293997,16.0317608 C18.4339278,16.0983898 18.4256259,16.0983898 18.3841164,16.018435 Z" id="Path"></path>
                    <path d="M18.9444949,15.9429223 C18.9029853,15.9073868 18.8365701,15.8807353 18.7950606,15.8807353 C18.757702,15.8807353 18.6954378,15.831874 18.6580792,15.769687 C18.6207206,15.7075 18.5543054,15.6586388 18.5086449,15.6586388 C18.4505316,15.6586388 18.4256259,15.6275453 18.4256259,15.5653583 C18.4256259,15.5164971 18.4048712,15.4365424 18.3841164,15.3876811 C18.3467579,15.3210522 18.3550598,15.2944006 18.4048712,15.2766329 C18.4463807,15.2588652 18.4588336,15.2188878 18.4463807,15.1655847 C18.4256259,15.1033977 18.4463807,15.0723042 18.5169469,15.0412106 C18.5792111,15.0145591 18.6331735,14.9434882 18.6622302,14.8368819 C18.7037397,14.6991821 18.6995887,14.6769725 18.6497773,14.6991821 C18.6165697,14.7125079 18.591664,14.6947402 18.591664,14.6547628 C18.591664,14.6014597 18.6165697,14.5881339 18.6954378,14.6103435 C18.8116644,14.641437 18.9403439,14.5303888 19.0067591,14.3438278 C19.0441177,14.2461054 19.2350615,14.1084056 19.27242,14.1528249 C19.2807219,14.1617087 19.27242,14.2816408 19.2558162,14.4148987 C19.2350615,14.583692 19.2392124,14.6725305 19.27242,14.703624 C19.3014767,14.7302756 19.3222314,14.9434882 19.3263824,15.2633071 L19.3346843,15.7830128 L19.1810991,15.894061 C19.0441177,15.9917835 19.015061,15.9962254 18.9444949,15.9429223 Z" id="Path"></path>
                    <path d="M19.6501566,15.6586388 C19.6086471,15.520939 19.8411004,14.0328928 19.8909118,14.1261733 C19.9116665,14.1661507 19.9158175,14.2638731 19.9033646,14.3393859 C19.8909118,14.4193406 19.8992137,14.5525985 19.9199684,14.6369951 C19.9656289,14.8013465 19.9407232,14.9834656 19.8037418,15.4942874 C19.7331756,15.7608032 19.6916661,15.8052225 19.6501566,15.6586388 Z" id="Path"></path>
                    <path d="M1.61427275,15.4854036 C1.55615943,15.3654715 1.56031038,15.3477038 1.65163131,15.3477038 C1.72219748,15.3477038 1.7803108,15.4276585 1.7803108,15.5298229 C1.7803108,15.6053357 1.65993322,15.5698002 1.61427275,15.4854036 Z" id="Path"></path>
                    <path d="M10.3494259,13.8954344 C9.87215315,13.7308662 9.51685013,13.3903801 9.29412284,12.8739763 C9.17215317,12.5845632 9.15624408,12.4937669 9.17745621,12.1078827 C9.1933653,11.7957705 9.24109257,11.5971536 9.33654711,11.392862 C9.46381982,11.1261479 9.80851679,10.7402638 10.0418501,10.5927198 C10.1373047,10.5359721 10.1213956,10.4508506 9.68124407,8.65762413 C9.4266986,7.63049125 9.21988044,6.74522752 9.21988044,6.6998294 C9.21988044,6.64875649 9.25700166,6.59200881 9.30472893,6.57498451 C9.3524562,6.55796021 10.0418501,6.54093591 10.8373046,6.54093591 C11.6327592,6.54093591 12.3221531,6.55796021 12.3698804,6.57498451 C12.4176077,6.59200881 12.4547289,6.66010601 12.4547289,6.72252843 C12.4547289,6.7849509 12.2532137,7.64751555 12.0039713,8.64627461 C11.7547289,9.63935889 11.5532138,10.4735497 11.5532138,10.4962488 C11.5532138,10.5246226 11.6539713,10.6040693 11.775941,10.6835161 C12.6668501,11.2680171 12.7570016,12.7491314 11.945638,13.5095502 C11.5054865,13.929483 10.890335,14.077027 10.3494259,13.8954344 Z" id="Path"></path>
                    <path d="M0.867101495,15.3699134 C0.867101495,15.334378 0.896158157,15.3032845 0.929365768,15.3032845 C0.96672433,15.3032845 0.979177183,15.3299361 0.96672433,15.3699134 C0.950120525,15.4054489 0.925214815,15.4365424 0.904460058,15.4365424 C0.8837053,15.4365424 0.867101495,15.4054489 0.867101495,15.3699134 Z" id="Path"></path>
                    <path d="M2.44446303,15.3699134 C2.39050066,15.2988426 2.43201017,15.2810748 2.54408586,15.3299361 C2.58144443,15.3432619 2.59804823,15.3743554 2.58559538,15.396565 C2.55238777,15.4543101 2.50257635,15.4454262 2.44446303,15.3699134 Z" id="Path"></path>
                    <path d="M4.15880596,14.9168366 C4.08408883,14.8901851 4.09239074,14.8146723 4.16295691,14.8146723 C4.23352309,14.8146723 4.28748544,14.8857431 4.24182499,14.9168366 C4.22107023,14.9257205 4.18371167,14.9257205 4.15880596,14.9168366 Z" id="Path"></path>
                    <path d="M1.32370615,14.8191142 C1.24898903,14.7658111 1.27804568,14.7302756 1.41087613,14.7169498 C1.47729135,14.708066 1.51049897,14.7258337 1.51049897,14.770253 C1.51049897,14.8502077 1.41087613,14.8768593 1.32370615,14.8191142 Z" id="Path"></path>
                    <path d="M3.82672985,14.6592048 C3.79352224,14.5614823 3.85163556,14.5126211 3.89729602,14.5925758 C3.95125839,14.6814144 3.94710744,14.7258337 3.89729602,14.7258337 C3.87239031,14.7258337 3.84333365,14.6947402 3.82672985,14.6592048 Z" id="Path"></path>
                    <path d="M19.8577042,13.9218446 C19.8411004,13.8996349 19.8618551,13.8374479 19.9033646,13.7885867 C19.9697799,13.708632 19.9822327,13.708632 20.0154403,13.770819 C20.0735536,13.8907511 19.9199684,14.0373347 19.8577042,13.9218446 Z" id="Path"></path>
                    <path d="M20.4927997,13.9416523 C20.5218564,13.9249479 20.559215,13.930516 20.5716678,13.9472204 C20.5882716,13.9639249 20.5633659,13.9806293 20.5177054,13.9750611 C20.472045,13.9750611 20.4595921,13.9583567 20.4927997,13.9416523 Z" id="Path"></path>
                    <path d="M19.3097786,13.8107963 C19.2973257,13.7752609 19.3056276,13.7219578 19.3346843,13.6908643 C19.3678919,13.6553288 19.3803448,13.6730965 19.3803448,13.7619351 C19.3803448,13.895193 19.3512881,13.9174026 19.3097786,13.8107963 Z" id="Path"></path>
                    <path d="M19.44676,13.3488357 C19.4758166,13.1400651 19.6709113,12.7269657 19.6709113,12.8735493 C19.6709113,13.0334588 19.5837414,13.3266261 19.5007224,13.4376743 L19.4177033,13.5487225 L19.44676,13.3488357 Z" id="Path"></path>
                    <path d="M19.8161946,12.9757137 C19.7414775,12.9179686 19.7414775,12.9135267 19.8286475,12.8646655 C19.9490251,12.7935946 19.961478,12.8024785 19.961478,12.9268525 C19.961478,13.0512265 19.9282703,13.0645523 19.8161946,12.9757137 Z" id="Path"></path>
                    <path d="M2.89276578,12.6106601 C2.91767149,12.5969409 2.9674829,12.5969409 2.99653957,12.6106601 C3.02144527,12.6312387 3.00069052,12.6449578 2.9425772,12.6449578 C2.88446388,12.6449578 2.86370912,12.6312387 2.89276578,12.6106601 Z" id="Path"></path>
                    <path d="M19.6709113,12.3760533 C19.6750623,12.2783308 19.8161946,11.9451862 19.874308,11.9096507 C19.9531761,11.8563476 19.9656289,11.9896054 19.8992137,12.1628407 C19.8411004,12.3094243 19.8411004,12.331634 19.8992137,12.3538436 C20.0071384,12.3982629 19.9656289,12.4426822 19.8161946,12.4426822 C19.7124209,12.4426822 19.6709113,12.4249145 19.6709113,12.3760533 Z" id="Path"></path>
                    <path d="M2.88446388,12.3049824 C2.81389771,12.2472373 2.74748248,12.20726 2.73502963,12.2161438 C2.72257677,12.2250277 2.70597297,12.1495149 2.69767107,12.0517925 C2.68521821,11.829696 2.6686144,11.7941606 2.56899157,11.7941606 C2.49427445,11.7941606 2.49427445,11.7897186 2.56068967,11.6609027 C2.59804823,11.5898318 2.6437087,11.5276448 2.66446346,11.5276448 C2.68106726,11.5276448 2.69352011,11.4832256 2.69352011,11.4254805 C2.69352011,11.3544096 2.73087868,11.3099903 2.81389771,11.2744549 C2.90521864,11.2389195 2.9508791,11.1811744 2.98823766,11.0390327 C3.06710574,10.7591911 2.9425772,10.5992817 2.75993533,10.7503073 C2.69767107,10.7991685 2.69352011,10.8258201 2.73087868,10.8746813 C2.76823724,10.9279844 2.74333153,10.9724037 2.61050108,11.1012197 C2.43616113,11.270013 2.31993449,11.3055484 2.31993449,11.1900582 C2.31993449,11.0701262 2.40710446,10.9413102 2.46936874,10.9679618 C2.51087825,10.9857295 2.52748206,10.9590779 2.52748206,10.8791232 C2.52748206,10.7858427 2.5150292,10.7725169 2.42370827,10.7991685 C2.30333068,10.830262 2.29502878,10.7902846 2.38634971,10.6481429 C2.42370827,10.5859559 2.49427445,10.5504205 2.56484062,10.5504205 C2.63125584,10.5504205 2.72672772,10.5148851 2.78069009,10.4660238 C2.87616197,10.3860691 2.88031293,10.3860691 3.12521906,10.5282108 C3.26635141,10.6081656 3.45314422,10.6970041 3.54446515,10.7280976 C3.8308808,10.8258201 3.93880553,10.9324264 3.93880553,11.1278712 C3.93880553,11.2877807 3.85578651,11.4388063 3.77276748,11.4388063 C3.74786177,11.4388063 3.74786177,11.4787836 3.76861653,11.5409706 C3.82672985,11.705322 3.72710701,11.9052088 3.49050278,12.1050956 C3.36597424,12.20726 3.20823809,12.3183082 3.13767191,12.3494017 C3.01729432,12.4027048 2.99238861,12.3982629 2.88446388,12.3049824 Z" id="Path"></path>
                    <path d="M19.7248737,11.7275316 C19.7124209,11.6875543 19.7124209,11.6475769 19.7248737,11.6298092 C19.7705342,11.5853899 19.961478,11.6609027 19.961478,11.7275316 C19.961478,11.8163702 19.7580813,11.8163702 19.7248737,11.7275316 Z" id="Path"></path>
                    <path d="M20.7501587,11.6342511 C20.7501587,11.5987157 20.7709135,11.580948 20.7916682,11.5942738 C20.816574,11.6075996 20.8331777,11.6386931 20.8331777,11.6653446 C20.8331777,11.6875543 20.816574,11.705322 20.7916682,11.705322 C20.7709135,11.705322 20.7501587,11.6742285 20.7501587,11.6342511 Z" id="Path"></path>
                    <path d="M0.701063439,10.9946134 C0.701063439,10.9724037 0.663704877,10.9501941 0.622195362,10.9501941 C0.501817773,10.9501941 0.481063016,10.8791232 0.555780141,10.7280976 C0.626346314,10.581514 0.701063439,10.5504205 0.701063439,10.6747945 C0.701063439,10.7192138 0.730120101,10.7947266 0.763327712,10.8435878 C0.842195789,10.954636 0.842195789,11.0390327 0.763327712,11.0390327 C0.730120101,11.0390327 0.701063439,11.021265 0.701063439,10.9946134 Z" id="Path"></path>
                    <path d="M0.99163004,10.6481429 C0.99163004,10.5859559 1.0372905,10.5548624 1.09955478,10.581514 C1.13276239,10.5948398 1.14521524,10.6214914 1.13276239,10.643701 C1.10370572,10.6925622 0.99163004,10.6970041 0.99163004,10.6481429 Z" id="Path"></path>
                    <path d="M1.98785838,10.4304884 C1.98785838,10.3549756 2.01276408,10.270579 2.0459717,10.2439274 C2.09578311,10.1995081 2.09993406,10.2172758 2.0708774,10.3505337 C2.02521694,10.5637463 1.98785838,10.5992817 1.98785838,10.4304884 Z" id="Path"></path>
                    <path d="M0.327477813,10.4882335 C0.327477813,10.4793496 0.356534473,10.4482561 0.389742085,10.4171626 C0.427100648,10.3860691 0.452006358,10.3816272 0.452006358,10.4082788 C0.452006358,10.4304884 0.422949695,10.4615819 0.389742085,10.4793496 C0.356534473,10.4926754 0.327477813,10.4971173 0.327477813,10.4882335 Z" id="Path"></path>
                    <path d="M2.71427487,10.1106695 C2.67276536,10.0307148 2.78484104,10.0085052 2.85125627,10.079576 C2.91352054,10.146205 2.91352054,10.1506469 2.83050151,10.1506469 C2.78069009,10.1506469 2.73087868,10.1328792 2.71427487,10.1106695 Z" id="Path"></path>
                    <path d="M2.45691588,9.8796892 C2.38219876,9.7997345 2.39050066,9.62205734 2.46521778,9.5909638 C2.57314252,9.5421026 2.59804823,9.5909638 2.55238777,9.76419905 C2.5150292,9.90189885 2.4984254,9.9241085 2.45691588,9.8796892 Z" id="Path"></path>
                    <path d="M0.730120101,9.67536045 C0.680308682,9.5731961 0.663704877,9.39551894 0.705214392,9.39551894 C0.73427105,9.39551894 0.742572954,9.35554159 0.725969149,9.28002879 C0.701063439,9.17342249 0.705214392,9.16898059 0.833893885,9.18230634 C0.950120525,9.19563214 0.970875283,9.20895794 0.958422426,9.30668039 C0.954271477,9.36442544 0.912761962,9.45326404 0.871252447,9.50656719 C0.829742932,9.55542839 0.804837227,9.62205734 0.813139127,9.65315084 C0.833893885,9.7108959 0.759176759,9.7286636 0.730120101,9.67536045 Z" id="Path"></path>
                    <path d="M0.0701188263,9.56431225 C0.132383098,9.5287768 0.161439757,9.47547365 0.161439757,9.39107699 C0.161439757,9.29779649 0.186345466,9.26226109 0.290119251,9.22228374 C0.493515868,9.14677094 0.505968725,9.20451599 0.344081619,9.42217054 C0.232005931,9.56431225 0.165590709,9.6176154 0.0825716808,9.61317345 C-0.0253530558,9.61317345 -0.0253530558,9.61317345 0.0701188263,9.56431225 Z" id="Path"></path>
                    <path d="M0.368987328,9.55542839 C0.368987328,9.51545104 0.398043987,9.48435754 0.435402548,9.48435754 C0.472761111,9.48435754 0.493515868,9.50656719 0.485213968,9.53766069 C0.460308258,9.6176154 0.368987328,9.63094119 0.368987328,9.55542839 Z" id="Path"></path>
                    <path d="M2.69352011,9.50656719 C2.69352011,9.46214789 2.73502963,9.43993824 2.80974675,9.43993824 C2.91767149,9.44438015 2.91767149,9.44438015 2.84295436,9.50656719 C2.73918058,9.5909638 2.69352011,9.5909638 2.69352011,9.50656719 Z" id="Path"></path>
                    <path d="M2.0708774,9.44438015 C2.0708774,9.41772859 2.09163216,9.38663509 2.11238692,9.37330929 C2.13729263,9.35998349 2.15389643,9.37775124 2.15389643,9.41328664 C2.15389643,9.45326404 2.13729263,9.48435754 2.11238692,9.48435754 C2.09163216,9.48435754 2.0708774,9.4665898 2.0708774,9.44438015 Z" id="Path"></path>
                    <path d="M2.42785922,9.13344514 C2.39880256,9.08014199 2.63955775,8.72922958 2.70597297,8.72922958 C2.86370912,8.73367153 2.85540722,8.80918433 2.67691631,8.98686148 C2.47351969,9.18674829 2.46106684,9.19563214 2.42785922,9.13344514 Z" id="Path"></path>
                    <path d="M2.08748121,8.93355833 C2.05012265,8.76920698 2.12899072,8.68481033 2.19540595,8.81806818 C2.23691546,8.89802288 2.23276451,8.92911639 2.18295309,8.98686148 C2.12483977,9.04904849 2.11238692,9.04016463 2.08748121,8.93355833 Z" id="Path"></path>
                    <path d="M0.950120525,8.68481033 C0.950120525,8.66260068 0.970875283,8.64039103 0.99163004,8.64039103 C1.01653575,8.64039103 1.03313955,8.66260068 1.03313955,8.68481033 C1.03313955,8.71146188 1.01653575,8.72922958 0.99163004,8.72922958 C0.970875283,8.72922958 0.950120525,8.71146188 0.950120525,8.68481033 Z" id="Path"></path>
                    <path d="M2.56899157,8.06294027 C2.56899157,7.97410167 2.58974633,7.92968237 2.63125584,7.92968237 C2.6686144,7.92968237 2.77238819,7.88970502 2.85955817,7.84084381 C2.9508791,7.79198261 3.02559622,7.76533101 3.02559622,7.78309871 C3.02559622,7.84084381 2.67691631,8.19619812 2.62295394,8.19619812 C2.58974633,8.19619812 2.56899157,8.14289497 2.56899157,8.06294027 Z" id="Path"></path>
                    <path d="M2.63125584,7.79198261 C2.61465204,7.76533101 2.61050108,7.73867946 2.62295394,7.72535366 C2.63125584,7.71202786 2.6520106,7.73423751 2.66446346,7.77421486 C2.69352011,7.84972766 2.6686144,7.86305346 2.63125584,7.79198261 Z" id="Path"></path>
                    <path d="M1.4565366,6.9968773 C1.42332898,6.93913224 1.42332898,6.90803874 1.44823469,6.90803874 C1.4731404,6.90803874 1.50219706,6.93913224 1.51880087,6.97466765 C1.55615943,7.08127395 1.51464991,7.09459975 1.4565366,6.9968773 Z" id="Path"></path>
                    <path d="M2.84295436,6.73924544 C2.83050151,6.71259384 2.83465246,6.68150034 2.85955817,6.66373264 C2.88031293,6.65040684 2.90106768,6.60154564 2.90106768,6.55712634 C2.90106768,6.51714899 2.96333196,6.41498459 3.04220003,6.33502989 C3.15012477,6.22398168 3.22069094,6.18844623 3.33691758,6.18844623 C3.51955944,6.18844623 3.57767276,6.23730743 3.55691801,6.37944918 C3.5320123,6.58377789 2.93012434,6.88582909 2.84295436,6.73924544 Z" id="Path"></path>
                    <path d="M3.8474846,6.21269588 C3.87654126,6.19599144 3.91389982,6.20155962 3.92635268,6.21826401 C3.94295649,6.23496844 3.91805078,6.25167287 3.87239031,6.24610474 C3.82672985,6.24610474 3.81427699,6.22940031 3.8474846,6.21269588 Z" id="Path"></path>
                    <path d="M4.92258103,6.06407223 C4.94748672,5.96634978 5.05126053,5.85974348 5.08446811,5.89972083 C5.11352477,5.92637243 4.98069434,6.15291078 4.93503385,6.15291078 C4.91427913,6.15291078 4.91012816,6.11293343 4.92258103,6.06407223 Z" id="Path"></path>
                    <path d="M3.27465331,5.70427597 C3.2497476,5.65541477 3.23729475,5.59322777 3.24559665,5.56213427 C3.25389855,5.53104072 3.29125712,5.57546002 3.33276663,5.65541477 C3.37012519,5.73092753 3.38257805,5.79755648 3.36182329,5.79755648 C3.33691758,5.79755648 3.29955902,5.75757912 3.27465331,5.70427597 Z" id="Path"></path>
                    <path d="M2.29917973,5.30894431 C2.28672688,5.28673466 2.29502878,5.26452501 2.31578353,5.26452501 C2.34068924,5.26452501 2.361444,5.28673466 2.361444,5.30894431 C2.361444,5.33559587 2.3531421,5.35336357 2.3448402,5.35336357 C2.33238734,5.35336357 2.31163259,5.33559587 2.29917973,5.30894431 Z" id="Path"></path>
                    <path d="M2.88446388,5.29561851 C2.82219961,5.24675731 2.81804865,5.22898957 2.87201102,5.18457027 C2.91767149,5.14015101 2.93842625,5.15347676 2.97578481,5.24231536 C3.02974718,5.36668937 2.99653957,5.38445707 2.88446388,5.29561851 Z" id="Path"></path>
                    <path d="M5.78597891,5.17568641 C5.77352605,5.15347676 5.79012984,5.13126711 5.82333747,5.13126711 C5.86069602,5.13126711 5.88975268,5.15347676 5.88975268,5.17568641 C5.88975268,5.20233801 5.87314889,5.22010571 5.85239413,5.22010571 C5.82748844,5.22010571 5.79843178,5.20233801 5.78597891,5.17568641 Z" id="Path"></path>
                    <path d="M3.04635098,4.90917071 C3.05880384,4.88696106 3.10861525,4.86475141 3.15012477,4.86475141 C3.19163428,4.86475141 3.2414457,4.88696106 3.25389855,4.90917071 C3.27050236,4.93582226 3.22484189,4.95358996 3.15012477,4.95358996 C3.07540764,4.95358996 3.02974718,4.93582226 3.04635098,4.90917071 Z" id="Path"></path>
                    <path d="M5.70295987,4.90917071 C5.69050704,4.88251911 5.70711084,4.85142561 5.74446939,4.83809981 C5.82333747,4.8025644 5.86899792,4.83809981 5.82748844,4.90472876 C5.79428081,4.96691576 5.73616749,4.96691576 5.70295987,4.90917071 Z" id="Path"></path>
                    <path d="M4.26257975,4.74481931 C4.17125881,4.73149355 4.1463531,4.70040001 4.1463531,4.6204453 C4.1463531,4.56270025 4.16295691,4.5005132 4.1878626,4.48718745 C4.23767402,4.451652 4.4369197,4.02966875 4.4369197,3.95415596 C4.4369197,3.92306246 4.51163685,3.82978195 4.60295775,3.75426916 C4.69427869,3.67431444 4.7689958,3.58991778 4.76484487,3.55882428 C4.75239201,3.43445027 4.77314677,3.39447291 4.84371295,3.41668256 C4.8893734,3.43000834 4.93918482,3.39447291 4.99729814,3.3011924 C5.04710956,3.21679575 5.17578905,3.11018945 5.31277045,3.03911859 C5.46220471,2.95916387 5.58258231,2.85255757 5.66145039,2.73262549 C5.79012984,2.53718062 6.28409307,2.13740701 6.35050828,2.1818263 C6.37126304,2.19515209 6.41692354,2.18626823 6.45013112,2.15517473 C6.47918778,2.12852316 6.69088632,2.09742965 6.91503769,2.0885458 C7.33428377,2.07077808 7.50862376,2.0441265 7.64975608,1.96417178 C7.72447323,1.92419442 7.72447323,1.91975249 7.62900132,1.86200742 C7.49617089,1.78205269 7.48371803,1.78649462 7.38824616,1.89310092 C7.34258571,1.94640407 7.28862332,1.97305564 7.26371763,1.95528792 C7.18484955,1.90642671 7.21390621,1.72430762 7.31352901,1.65323676 C7.45051044,1.55551432 7.74937892,1.23569543 7.79919034,1.13353107 C7.86145462,1.01359899 7.78258654,1.01804091 7.66635991,1.14241492 L7.5791899,1.23569543 L7.4795671,1.11576335 C7.33013284,0.924760404 7.3508876,0.867015327 7.58334087,0.867015327 C7.73277512,0.867015327 7.79088844,0.889224973 7.82824699,0.951411979 C7.86145462,1.00915706 7.90711507,1.0313667 7.96522839,1.01359899 C8.01088888,1.0002732 8.07730409,1.01359899 8.11051168,1.04469249 C8.1603231,1.08911178 8.17692693,1.08022792 8.21428549,0.978063554 C8.23504025,0.915876548 8.25579501,0.835921827 8.25994594,0.809270251 C8.25994594,0.778176751 8.2807007,0.813712181 8.30560643,0.880341113 C8.35956878,1.04025056 8.46334254,1.02248284 8.55051256,0.831479897 L8.6210787,0.684896239 L8.7331544,0.827037967 C8.82032438,0.942528119 8.84938104,0.960295834 8.88258866,0.906992688 C8.91164532,0.858131472 8.91994722,0.858131472 8.91994722,0.924760404 C8.91994722,0.964737764 8.89919246,1.0002732 8.87428677,1.0002732 C8.84107914,1.0002732 8.84107914,1.02248284 8.87843769,1.06690213 C8.96145674,1.17350843 9.08598527,1.15129878 9.09428716,1.02248284 C9.09428716,0.960295834 9.09843813,0.884783043 9.10258906,0.858131472 C9.10674003,0.822596037 9.06523051,0.804828321 9.01126816,0.809270251 C8.93240008,0.822596037 8.92409819,0.809270251 8.96145674,0.73819939 C8.9822115,0.689338169 9.00296626,0.569406087 9.00296626,0.47612558 L9.00296626,0.29844842 L9.2105138,0.267354918 C9.42221234,0.236261415 9.52183518,0.262912989 9.47617469,0.338425781 C9.46372186,0.365077355 9.42636331,0.360635426 9.38485379,0.325099994 C9.32674047,0.276238775 9.3225895,0.280680704 9.35579713,0.356193497 C9.37655189,0.405054716 9.38900471,0.498335225 9.38485379,0.569406087 C9.38485379,0.636035023 9.38070282,0.715989744 9.38070282,0.747083245 C9.37655189,0.773734821 9.38900471,0.875899187 9.40145758,0.969179694 C9.42221234,1.10687949 9.4429671,1.13353107 9.52598611,1.13353107 C9.61315612,1.13353107 9.62145802,1.11576335 9.60070326,1.02248284 C9.5716466,0.893666903 9.59240136,0.884783043 9.72523179,0.978063554 C9.81240176,1.04025056 9.82900559,1.04025056 9.92862839,0.955853909 C9.98674175,0.906992688 10.053157,0.867015327 10.0780627,0.867015327 C10.1029684,0.867015327 10.1610817,0.844805682 10.2067421,0.813712181 C10.2690064,0.769292891 10.2980631,0.773734821 10.3686293,0.840363757 C10.4516483,0.920318474 10.4516483,0.920318474 10.476554,0.813712181 C10.5014597,0.720431674 10.5222145,0.707105884 10.7007054,0.715989744 C10.812781,0.715989744 10.9456115,0.755967105 10.9995739,0.795944466 C11.1324043,0.893666903 11.1490081,0.889224973 11.1780648,0.73375746 C11.1905176,0.662686594 11.2195743,0.600499592 11.24448,0.600499592 C11.2652347,0.600499592 11.2735367,0.653802738 11.2610838,0.7248736 C11.2403291,0.831479897 11.2610838,0.875899187 11.3690086,0.969179694 C11.5225937,1.10687949 11.6471223,1.15129878 11.838066,1.12464721 C11.9667455,1.11132142 11.9750474,1.11576335 11.9584436,1.22681157 C11.9418399,1.3378598 11.9335379,1.34230173 11.7301413,1.32009208 C11.6097637,1.31120823 11.4520276,1.27123086 11.3731595,1.24013736 L11.2361781,1.17795036 L11.2527819,1.41781452 C11.2735367,1.68433026 11.2071214,1.71542376 11.0991967,1.49332731 C11.0535362,1.4000468 11.0161777,1.37339523 10.904102,1.37783716 C10.8293849,1.38227909 10.729762,1.40448873 10.6841016,1.43114031 C10.6384411,1.45779188 10.5222145,1.49332731 10.4267426,1.51109503 C10.2690064,1.5377466 10.2524026,1.53330467 10.2399498,1.44002416 C10.2274969,1.35118559 10.219195,1.34674366 10.1652326,1.40448873 C10.132025,1.44002416 10.0324022,1.51553696 9.94523223,1.57328204 C9.82900559,1.64879483 9.791647,1.70209797 9.80409986,1.75984305 C9.83730749,1.89754285 9.75428844,1.90642671 9.70447702,1.76872691 C9.68372226,1.70209797 9.63806181,1.63102711 9.61315612,1.6132594 C9.50938231,1.54218853 9.3308914,1.57772396 9.2395705,1.68433026 C9.15240048,1.78649462 9.13164572,1.79093655 8.94485295,1.74207533 C8.78711679,1.70209797 8.65428633,1.71098183 8.2723988,1.77761076 C7.8116432,1.85756549 7.79919034,1.86200742 7.86975652,1.94640407 C7.9403227,2.02635879 7.9403227,2.03524264 7.82824699,2.13296509 C7.74107702,2.21736173 7.71617133,2.27954874 7.71617133,2.43057433 C7.71617133,2.56827412 7.70371847,2.60380955 7.67051084,2.56827412 C7.61239752,2.50608712 7.21805714,2.54162255 7.15579289,2.61713534 C7.13503813,2.64378692 7.08522671,2.66599656 7.05201908,2.66599656 C7.00220766,2.66599656 6.9897548,2.72374164 6.99390577,2.94583809 L6.99805674,3.23012154 L6.87352817,3.20346997 C6.7697544,3.18126032 6.72409391,3.19902804 6.62862204,3.29675047 C6.53315017,3.39447291 6.49579161,3.4077987 6.4376783,3.37226326 C6.38371591,3.3322859 6.35465925,3.34561169 6.29239497,3.43000834 C6.22597975,3.51440499 6.1886212,3.52773078 6.07239457,3.50552114 C5.96031886,3.48331149 5.91050744,3.50107921 5.80673368,3.59435971 C5.69050704,3.69652408 5.5991861,3.73650144 5.25465713,3.81645616 C5.15918526,3.84310774 5.1384305,3.86531738 5.15088332,3.96303982 C5.15918526,4.06076226 5.20069474,4.10518155 5.34597807,4.18513626 C5.350129,4.18957819 5.34597807,4.21178784 5.32937424,4.23843942 C5.29201569,4.30951028 5.14258143,4.21622977 5.14258143,4.12294926 C5.14258143,4.06076226 5.1301286,4.06076226 5.05541145,4.13627505 C4.96824148,4.2206717 4.96824148,4.21622977 4.8893734,4.1140654 C4.84786388,4.05632033 4.81880722,3.99857525 4.82710912,3.98080754 C4.83541105,3.96748175 4.78975056,3.95415596 4.72333535,3.94971403 C4.65692014,3.9452721 4.60295775,3.95859789 4.60295775,3.97192368 C4.60295775,3.98969139 4.68182583,4.08741383 4.78144867,4.18957819 C4.91843006,4.33616185 4.97239245,4.36281343 5.009751,4.32283607 C5.04710956,4.28285871 5.05956242,4.30951028 5.05956242,4.44721007 C5.05956242,4.62488725 5.05956242,4.62488725 4.8893734,4.63821301 C4.78975056,4.64265495 4.6776749,4.6204453 4.61956158,4.576026 C4.49918398,4.49162935 4.4203159,4.49162935 4.35390069,4.576026 C4.31239117,4.62932915 4.3165421,4.6470969 4.37050448,4.66930651 C4.4369197,4.6959581 4.46597636,4.78035475 4.40786304,4.7714709 C4.38710828,4.76702896 4.32484403,4.75370316 4.26257975,4.74481931 Z M6.62862204,3.00802509 C6.66598059,2.98137352 6.65352777,2.95472194 6.57881062,2.91918651 C6.49994254,2.88365108 6.46673495,2.88365108 6.43352733,2.92807037 C6.35465925,3.03023474 6.50409351,3.08797981 6.62862204,3.00802509 Z M10.6633468,1.3378598 C10.6633468,1.32453401 10.646743,1.30232437 10.6218373,1.28899858 C10.6010825,1.27567279 10.5803278,1.28455665 10.5803278,1.3067663 C10.5803278,1.33341787 10.6010825,1.35562752 10.6218373,1.35562752 C10.646743,1.35562752 10.6633468,1.34674366 10.6633468,1.3378598 Z M9.33504237,1.04469249 C9.33504237,1.02248284 9.30183474,1.0002732 9.26447619,1.0002732 C9.2022119,1.0002732 9.19806097,1.00915706 9.25202332,1.04469249 C9.3308914,1.09799564 9.33504237,1.09799564 9.33504237,1.04469249 Z" id="Shape"></path>
                    <path d="M3.77691843,4.63821301 C3.69805035,4.6026776 3.6855975,4.576026 3.71050321,4.47386165 C3.74371082,4.32283607 3.73125796,4.33171992 3.91805078,4.36281343 L4.07578693,4.389465 L3.98031505,4.47386165 C3.90559792,4.5404906 3.89729602,4.56714215 3.93880553,4.6204453 C4.00106981,4.70040001 3.93880553,4.7092839 3.77691843,4.63821301 Z" id="Path"></path>
                    <path d="M7.98598315,4.55381635 C7.99843602,4.53160675 8.01919078,4.5093971 8.0316436,4.5093971 C8.03994554,4.5093971 8.04824744,4.53160675 8.04824744,4.55381635 C8.04824744,4.58046795 8.02749267,4.59823565 8.00258694,4.59823565 C7.98183218,4.59823565 7.97353028,4.58046795 7.98598315,4.55381635 Z" id="Path"></path>
                    <path d="M4.11314549,4.14960083 C4.12144739,4.11850733 4.15465501,4.0829719 4.18371167,4.07408804 C4.2169193,4.06076226 4.23352309,4.07852997 4.22107023,4.1140654 C4.21276833,4.14515891 4.1795607,4.18069434 4.15050406,4.18957819 C4.11729644,4.20290398 4.10069264,4.18513626 4.11314549,4.14960083 Z" id="Path"></path>
                    <path d="M5.72807201,4.03855261 C5.72807201,3.98969139 5.74368219,3.97636561 5.75929236,4.01190104 C5.77490254,4.04299454 5.76969916,4.0829719 5.75408899,4.09629769 C5.73847881,4.1140654 5.72286864,4.08741383 5.72807201,4.03855261 Z" id="Path"></path>
                    <path d="M3.71880511,3.97192368 C3.68144655,3.9452721 3.65654084,3.90529474 3.67314464,3.8830851 C3.68974845,3.85643352 3.71880511,3.85643352 3.75201272,3.88752702 C3.79352224,3.92306246 3.8308808,3.92306246 3.89314507,3.89196895 C4.01767361,3.81645616 4.04257932,3.83422388 3.95956029,3.93194631 C3.87654126,4.02966875 3.82672985,4.03855261 3.71880511,3.97192368 Z" id="Path"></path>
                    <path d="M4.1463531,3.92750438 C4.1463531,3.85643352 4.03842837,3.75426916 3.96371124,3.75426916 C3.87654126,3.75426916 3.87654126,3.638779 3.96371124,3.60324357 C4.05088122,3.56770814 4.1463531,3.65210479 4.1463531,3.75871109 C4.1463531,3.82089809 4.17540978,3.84310774 4.26257975,3.84310774 C4.37050448,3.84754966 4.37050448,3.84754966 4.29578733,3.90973667 C4.20031546,3.98969139 4.1463531,3.99413332 4.1463531,3.92750438 Z" id="Path"></path>
                    <path d="M6.67843346,3.84310774 C6.67843346,3.82089809 6.69918822,3.79868845 6.72409391,3.79868845 C6.74484867,3.79868845 6.75315057,3.82089809 6.74069774,3.84310774 C6.72824488,3.86975931 6.70749012,3.88752702 6.69503725,3.88752702 C6.68673535,3.88752702 6.67843346,3.86975931 6.67843346,3.84310774 Z" id="Path"></path>
                    <path d="M7.05201908,3.7764788 C7.05201908,3.70096601 7.24296287,3.58991778 7.28862332,3.638779 C7.33843474,3.68764022 7.2388119,3.82089809 7.13918906,3.83422388 C7.08107574,3.84310774 7.05201908,3.82534002 7.05201908,3.7764788 Z" id="Path"></path>
                    <path d="M7.55428421,3.19014418 C7.50447279,2.9946993 7.51277468,2.97693159 7.62900132,3.04356052 C7.72032226,3.09242174 7.73692605,3.15905068 7.6912656,3.28342469 C7.64975608,3.39891484 7.59994466,3.36337941 7.55428421,3.19014418 Z" id="Path"></path>
                    <path d="M16.9603401,3.32340205 C16.9146796,3.27898276 16.9271325,3.1323991 16.972793,3.1323991 C16.9976986,3.1323991 17.0143025,3.18126032 17.0143025,3.24344733 C17.0143025,3.35893748 17.0060005,3.37226326 16.9603401,3.32340205 Z" id="Path"></path>
                    <path d="M8.0233417,3.2390054 C8.03579457,3.19902804 8.04824744,3.16349261 8.04824744,3.15460875 C8.04824744,3.10574753 8.35126688,2.95028002 8.4010783,2.97248966 C8.56296538,3.03911859 8.40522923,3.2390054 8.1603231,3.27898276 C8.02749267,3.3011924 8.00258694,3.29230854 8.0233417,3.2390054 Z" id="Path"></path>
                    <path d="M14.6150526,2.94583809 C14.5693921,2.88809301 14.4988259,2.81702214 14.4656183,2.78592864 C14.4282597,2.75483514 14.3992031,2.67932235 14.3992031,2.61269341 C14.3992031,2.5194129 14.407505,2.51052905 14.4614673,2.55494833 C14.5818449,2.66155463 14.8142982,3.04356052 14.7603358,3.04356052 C14.7312792,3.04356052 14.664864,2.99914123 14.6150526,2.94583809 Z" id="Path"></path>
                    <path d="M17.2426048,2.99914123 C17.226001,2.97248966 17.2301519,2.92807037 17.2550576,2.9014188 C17.2799633,2.87476722 17.3048691,2.87476722 17.3256238,2.91030266 C17.3422276,2.93695423 17.3380767,2.98137352 17.313171,3.00802509 C17.2882653,3.03467666 17.2633595,3.03467666 17.2426048,2.99914123 Z" id="Path"></path>
                    <path d="M10.8293849,2.64378692 L10.8293849,2.51052905 L10.9373096,2.58604184 C11.0410834,2.6571127 11.0410834,2.66155463 10.9705172,2.71929971 C10.8584415,2.80813829 10.8293849,2.79037057 10.8293849,2.64378692 Z" id="Path"></path>
                    <path d="M16.877321,2.51497097 C16.7527925,2.3506196 16.7361887,2.2884326 16.8275097,2.2884326 C16.8939249,2.2884326 17.0267553,2.53273869 17.0060005,2.60825148 C16.9976986,2.63490306 16.9395853,2.59048377 16.877321,2.51497097 Z" id="Path"></path>
                    <path d="M8.19353073,2.55494833 C8.18107786,2.53273869 8.18522883,2.51052905 8.21013452,2.51052905 C8.23088928,2.51052905 8.26409691,2.53273869 8.27654973,2.55494833 C8.2890026,2.58159991 8.28485167,2.59936762 8.25994594,2.59936762 C8.23919118,2.59936762 8.20598359,2.58159991 8.19353073,2.55494833 Z" id="Path"></path>
                    <path d="M12.182595,2.5194129 C12.1701422,2.49276133 12.1784441,2.4572259 12.2033498,2.44390011 C12.2656141,2.39948082 12.3071235,2.4572259 12.2531612,2.51497097 C12.2241045,2.54606448 12.1991988,2.54606448 12.182595,2.5194129 Z" id="Path"></path>
                    <path d="M8.87843769,2.45278397 C8.87843769,2.41724854 8.90334342,2.36394539 8.93655101,2.33729382 C8.98636243,2.29287453 8.9905134,2.30175838 8.97390961,2.37727118 C8.94485295,2.4883194 8.87843769,2.54162255 8.87843769,2.45278397 Z" id="Path"></path>
                    <path d="M16.2380745,2.30175838 C16.1633574,2.27510681 16.1716593,2.15517473 16.2422255,2.15517473 C16.3210936,2.15517473 16.370905,2.23957138 16.3252445,2.2884326 C16.3044898,2.30620031 16.2629803,2.31064224 16.2380745,2.30175838 Z" id="Path"></path>
                    <path d="M10.5471201,2.20403595 C10.5554221,2.17294245 10.5761768,2.1507328 10.5927806,2.1507328 C10.6425921,2.15517473 10.6301392,2.21736173 10.5803278,2.23957138 C10.5512711,2.24845524 10.5346673,2.23068752 10.5471201,2.20403595 Z" id="Path"></path>
                    <path d="M14.4324107,2.13296509 C14.407505,1.99526528 14.4365616,1.79982041 14.4863731,1.79982041 C14.5071278,1.79982041 14.5237316,1.90198478 14.5237316,2.02191686 C14.5237316,2.25289717 14.4656183,2.32396803 14.4324107,2.13296509 Z" id="Path"></path>
                    <path d="M11.7425942,1.93307828 C11.6886318,1.89754285 11.6886318,1.88421706 11.7508961,1.81758813 C11.8090094,1.75540112 11.8339151,1.75095919 11.8837265,1.79982041 C12.0290098,1.92419442 11.9044813,2.0441265 11.7425942,1.93307828 Z" id="Path"></path>
                    <path d="M15.6527904,1.83979777 C15.6610923,1.8131462 15.685998,1.79537848 15.7067528,1.79537848 C15.7275075,1.79537848 15.7524132,1.8131462 15.7607151,1.83979777 C15.769017,1.86644935 15.7441113,1.88865899 15.7067528,1.88865899 C15.6693942,1.88865899 15.6444885,1.86644935 15.6527904,1.83979777 Z" id="Path"></path>
                    <path d="M12.9256153,1.65767868 C12.8550492,1.59993361 12.7388225,1.55551432 12.6433506,1.55107239 C12.4648597,1.54218853 12.4316521,1.51553696 12.3901426,1.3689533 C12.3693878,1.29344051 12.3859916,1.25346315 12.4731616,1.19571807 C12.5727844,1.12464721 12.5893883,1.12464721 12.6308978,1.18239228 C12.6558035,1.22236964 12.7180678,1.27567279 12.7720301,1.3067663 C12.8467473,1.35118559 12.8633511,1.34674366 12.8633511,1.28899858 C12.8633511,1.24457929 12.9048606,1.22236964 12.9961815,1.22236964 C13.1165591,1.22236964 13.1207101,1.22681157 13.0584458,1.30232437 C12.9712758,1.40448873 12.9712758,1.48888538 13.0501439,1.60437554 C13.1746724,1.77761076 13.1041062,1.80870427 12.9256153,1.65767868 Z" id="Path"></path>
                    <path d="M14.5859959,1.65767868 C14.6025997,1.61770132 14.5527883,1.59549168 14.4365616,1.58660782 C14.3410897,1.58216589 14.2456179,1.56439818 14.2248631,1.55107239 C14.1625989,1.5066531 14.1916555,1.36006944 14.2871274,1.24013736 L14.3867502,1.12020528 L14.5320335,1.21348579 C14.664864,1.30232437 14.8599587,1.59549168 14.8142982,1.63546904 C14.8018454,1.6443529 14.7437321,1.66656254 14.6814678,1.68433026 C14.5984487,1.70209797 14.573543,1.69765604 14.5859959,1.65767868 Z" id="Path"></path>
                    <path d="M12.1493874,1.52886274 C12.0871231,1.49332731 12.0829722,1.47111767 12.1286327,1.4000468 C12.2033498,1.26678893 12.2822179,1.29344051 12.2822179,1.44446609 C12.2822179,1.58660782 12.2614631,1.59993361 12.1493874,1.52886274 Z" id="Path"></path>
                    <path d="M13.38222,1.35562752 C13.465239,1.25790508 13.5108995,1.26678893 13.4735409,1.37783716 C13.4569371,1.41337259 13.4154276,1.44446609 13.378069,1.44446609 C13.3116538,1.44446609 13.3116538,1.43558224 13.38222,1.35562752 Z" id="Path"></path>
                    <path d="M13.2784462,1.13353107 C13.2784462,1.11132142 13.2992009,1.08911178 13.3241067,1.08911178 C13.3448614,1.08911178 13.3531633,1.11132142 13.3407105,1.13353107 C13.3282576,1.16018264 13.3075029,1.17795036 13.29505,1.17795036 C13.2867481,1.17795036 13.2784462,1.16018264 13.2784462,1.13353107 Z" id="Path"></path>
                    <path d="M7.25956666,1.07134406 C7.25956666,1.0313667 7.28862332,1.0002732 7.32598187,1.0002732 C7.36334043,1.0002732 7.38409519,1.02248284 7.37579329,1.05357635 C7.3508876,1.13353107 7.25956666,1.14685685 7.25956666,1.07134406 Z" id="Path"></path>
                    <path d="M15.2169405,1.05357635 C15.1256196,0.946970049 15.1297705,0.911434618 15.2293933,0.911434618 C15.3124124,0.911434618 15.4120352,1.05357635 15.3663747,1.10687949 C15.3248652,1.15129878 15.2875067,1.137973 15.2169405,1.05357635 Z" id="Path"></path>
                    <path d="M12.4897654,0.915876548 C12.4897654,0.889224973 12.5105202,0.858131472 12.531275,0.844805682 C12.5561806,0.831479897 12.5727844,0.849247612 12.5727844,0.884783043 C12.5727844,0.924760404 12.5561806,0.955853909 12.531275,0.955853909 C12.5105202,0.955853909 12.4897654,0.938086193 12.4897654,0.915876548 Z" id="Path"></path>
                    <path d="M13.5565599,0.929202334 C13.5233523,0.893666903 13.5607109,0.822596037 13.6146732,0.822596037 C13.635428,0.822596037 13.6520318,0.853689542 13.6520318,0.889224973 C13.6520318,0.955853909 13.6022204,0.978063554 13.5565599,0.929202334 Z" id="Path"></path>
                    <path d="M14.7105244,0.867015327 C14.6399582,0.818154111 14.4780712,0.769292891 14.3452407,0.751525175 C14.1252403,0.7248736 14.1086365,0.72931553 14.1086365,0.813712181 C14.1086365,0.898108833 14.0961836,0.902550758 14.0007117,0.862573397 C13.9384474,0.840363757 13.8346737,0.769292891 13.7682585,0.711547814 C13.7018433,0.649360808 13.6146732,0.600499592 13.5814657,0.600499592 C13.5233523,0.600499592 13.5233523,0.591615732 13.5814657,0.520544871 C13.6229752,0.47612558 13.6520318,0.405054716 13.6520318,0.369519284 C13.6520318,0.307332278 13.6769375,0.302890349 13.8720322,0.351751568 C13.9882589,0.382845071 14.2705236,0.493893295 14.490524,0.591615732 C14.7105244,0.693780099 14.913921,0.778176751 14.9346758,0.778176751 C14.9969401,0.778176751 14.9927891,0.835921827 14.9305249,0.902550758 C14.8682606,0.969179694 14.8641096,0.969179694 14.7105244,0.867015327 Z" id="Path"></path>
                    <path d="M11.6595751,0.485009435 C11.6595751,0.46724172 11.6927828,0.427264361 11.7342923,0.396170858 C11.8007075,0.34286771 11.7965565,0.338425781 11.7135375,0.333983852 C11.5558014,0.333983852 11.5973109,0.200725983 11.755047,0.196284054 C11.8256132,0.191842125 11.9086322,0.196284054 11.929387,0.200725983 C11.9542927,0.209609841 12.0248589,0.222935628 12.0912741,0.236261415 C12.2033498,0.254029131 12.2075007,0.249587202 12.182595,0.134097049 L12.1535384,0.0141649664 L12.352784,0.0408165402 C12.4607088,0.0585842561 12.6308978,0.0807939011 12.7305206,0.0941196879 C12.9131625,0.120771261 13.0293891,0.236261415 13.0293891,0.391728928 C13.0293891,0.453915934 13.0127853,0.46724172 12.9588229,0.440590147 C12.8010868,0.369519284 12.2905198,0.369519284 12.0912741,0.440590147 C11.8920284,0.511661011 11.6595751,0.533870656 11.6595751,0.485009435 Z" id="Path"></path>
                    <path d="M9.7833451,0.373961213 C9.67542037,0.307332278 9.69202416,0.267354918 9.83315652,0.258471059 C9.93277936,0.249587202 9.95768505,0.267354918 9.95768505,0.333983852 C9.95768505,0.431706289 9.89542081,0.445032076 9.7833451,0.373961213 Z" id="Path"></path>
                    <path d="M10.6924035,0.391728928 C10.6757996,0.378403142 10.7048563,0.316216136 10.7546677,0.258471059 C10.821083,0.182958267 10.8542906,0.16963248 10.8999511,0.205167912 C10.9705172,0.271796847 10.9705172,0.382845071 10.8958001,0.351751568 C10.8625925,0.338425781 10.8252339,0.347309639 10.8086301,0.373961213 C10.7795735,0.431706289 10.729762,0.436148218 10.6924035,0.391728928 Z" id="Path"></path>
                    <path d="M10.4973088,0.249587202 C10.4973088,0.227377557 10.5180635,0.191842125 10.5388183,0.178516338 C10.563724,0.165190551 10.5803278,0.16963248 10.5803278,0.196284054 C10.5803278,0.218493699 10.563724,0.254029131 10.5388183,0.267354918 C10.5180635,0.280680704 10.4973088,0.276238775 10.4973088,0.249587202 Z" id="Path"></path>
                </g>
            </g>
        </g>
    </g>
</svg>